<?xml version="1.0" standalone="no"?>
<!DOCTYPE svg PUBLIC "-//W3C//DTD SVG 1.1//EN" "http://www.w3.org/Graphics/SVG/1.1/DTD/svg11.dtd" >
<svg>
<metadata>
Created by FontForge 20090914 at Thu Feb 23 21:20:38 2012
 By root
&#194;&#169; 1998 Digital Graphic Labs - All Rights Reserved
</metadata>
<defs>
<font id="EnterSansmanBoldItalic" horiz-adv-x="710" >
  <font-face 
    font-family="Enter Sansman"
    font-weight="700"
    font-style="italic"
    font-stretch="normal"
    units-per-em="1024"
    panose-1="2 11 6 0 5 3 2 2 2 4"
    ascent="819"
    descent="-205"
    x-height="526"
    cap-height="717"
    bbox="-281 -265 1138 922"
    underline-thickness="0"
    underline-position="0"
    unicode-range="U+0020-U+2122"
  />
<missing-glyph horiz-adv-x="721" 
d="M-109 0l219 820h628l-220 -820h-627zM666 753h-512l-183 -685h511z" />
    <glyph glyph-name=".notdef" horiz-adv-x="721" 
d="M-109 0l219 820h628l-220 -820h-627zM666 753h-512l-183 -685h511z" />
    <glyph glyph-name="glyph1" horiz-adv-x="0" 
 />
    <glyph glyph-name="glyph2" horiz-adv-x="1024" 
 />
    <glyph glyph-name="space" unicode=" " horiz-adv-x="512" 
 />
    <glyph glyph-name="A" unicode="A" horiz-adv-x="880" 
d="M662 715l81 -715h-268l-23 190h-291l-138 -190h-120l508 715h251zM411 554l-165 -244h197z" />
    <glyph glyph-name="B" unicode="B" horiz-adv-x="782" 
d="M689 716q8 0 15 -0.5t14 -0.5q7 -1 13.5 -3t12.5 -3q7 -2 14 -4.5t12 -5.5t10 -7.5t9 -8.5t7.5 -9.5t4.5 -9.5q3 -5 5 -11t3 -11q1 -6 1.5 -12t-0.5 -12q0 -6 -1 -12.5l-2 -12.5l-36 -131q-1 -7 -3.5 -13.5t-5.5 -11.5t-7.5 -10.5t-8.5 -9.5q-4 -5 -8.5 -8.5t-9.5 -6.5
q-4 -3 -10 -6.5t-11 -5.5q-3 -1 -8 -3t-10 -3q-4 -2 -9 -3l-10 -2q-8 -2 -15.5 -3t-14.5 -1t-14 -0.5t-13 -0.5q7 -1 14 -2.5t13 -2.5l13.5 -4t12.5 -3q9 -2 17.5 -6t14.5 -8l6 -4l6 -4q2 -2 4.5 -5t4.5 -5q3 -4 5.5 -9.5t2.5 -10.5v-12.5t-2 -12.5l-43 -162l-6 -17.5
t-6 -15.5q-4 -8 -9 -14.5l-10 -12.5q-4 -5 -9.5 -10.5t-11.5 -9.5t-12 -9t-12 -8l-12 -6t-11 -4q-6 -2 -12.5 -4.5t-12.5 -3.5q-7 -2 -15 -3.5t-15 -1.5q-7 -1 -14.5 -1.5t-13.5 -0.5h-539l190 715h538zM371 598l-45 -169h158q3 0 6 0.5t5 2.5q4 1 7 3t5 4l5 5l5 5q5 6 6 11
l30 111v5t-1 5l-2 4t-3 4q-2 1 -4 3t-4 3t-4.5 2t-4.5 1h-159zM294 312l-52 -194h162q3 0 6 1t5 2q3 1 6 4l5 5q3 3 5.5 6t4.5 6q1 3 2.5 6.5t2.5 6.5l35 130v5v5q-1 2 -2.5 4t-2.5 4q-2 1 -4.5 3t-4.5 3q-1 1 -4 2t-5 1h-159z" />
    <glyph glyph-name="C" unicode="C" horiz-adv-x="645" 
d="M701 719l-31 -118h-274q-6 0 -13 -3q-4 -2 -8 -4.5l-7 -4.5q-7 -6 -12 -12q-2 -3 -4 -6.5t-2 -6.5l-110 -410q-2 -6 0 -12q0 -3 2 -6.5t4 -5.5q3 -2 6 -4.5t5 -3.5q3 -2 6.5 -2.5t6.5 -0.5h280l-32 -119h-422q-8 0 -16.5 0.5t-15.5 2.5q-7 1 -14.5 4.5l-14.5 6.5
q-6 3 -11.5 7t-9.5 9q-5 4 -9 10.5t-6 12.5q-3 5 -5 11.5l-4 13.5t-3 14.5t-1 15.5q1 7 1 14.5t1 15.5t2.5 16.5t4.5 17.5l98 370q2 9 5 18t6 16t7.5 15t7.5 16q5 8 11 16.5l11 15.5t11.5 14l12.5 13l12 10t11 10l12.5 8t12.5 7q8 4 16.5 7.5t16.5 5.5t17 3.5t17 1.5h421z
" />
    <glyph glyph-name="D" unicode="D" horiz-adv-x="769" 
d="M148 717h518q7 0 14.5 -0.5t13.5 -1.5q8 -1 14.5 -3t13.5 -3q8 -2 15.5 -6.5l14.5 -8.5q7 -5 13 -11t10 -13q3 -5 6.5 -12t4.5 -14q3 -7 4.5 -15.5t1.5 -17.5q-1 -7 -1 -15t-1 -15q-1 -8 -2.5 -17t-4.5 -18l-99 -372l-6 -18t-6 -17t-7 -16t-7 -15q-5 -9 -10.5 -17
l-10.5 -15t-12 -14t-13 -12q-6 -6 -13 -11t-14 -9q-7 -5 -15 -8.5l-15 -6.5q-10 -4 -20.5 -7t-19.5 -4q-9 -2 -19.5 -2.5t-19.5 -0.5h-519zM369 599l-129 -482h146q3 0 6.5 1.5t5.5 2.5q4 1 7.5 4t5.5 6q2 2 5 5.5t4 6.5q3 3 4.5 6.5t2.5 6.5l111 415v5t-1 5q0 2 -1.5 4.5
t-3.5 4.5q-1 1 -3.5 3t-4.5 3q-6 3 -11 3h-144z" />
    <glyph glyph-name="E" unicode="E" horiz-adv-x="642" 
d="M148 717h553l-31 -116h-300l-46 -172h292l-32 -117h-292l-52 -195h307l-31 -116h-559z" />
    <glyph glyph-name="F" unicode="F" horiz-adv-x="635" 
d="M701 717l-31 -116h-302l-46 -170h294l-32 -120h-296l-83 -311h-248l191 717h553z" />
    <glyph glyph-name="G" unicode="G" horiz-adv-x="764" 
d="M791 717l-31 -116h-359q-3 0 -7.5 -1t-7.5 -2q-4 -2 -8.5 -4t-7.5 -4q-4 -2 -8 -5t-6 -6l-4.5 -6.5t-3.5 -6.5l-109 -409q-1 -3 -1.5 -7t0.5 -7t2.5 -6.5t4.5 -6.5l5 -5t5 -4q3 -1 6.5 -2.5t6.5 -1.5h104q3 0 7 0.5t8 2.5q3 1 7 4t7 5q4 2 7 5.5t5 6.5q3 3 5 6.5t3 6.5
l42 158h-133l31 115h385l-114 -426h-535q-10 0 -19 1t-16 3q-8 1 -15 4.5l-13 6.5q-6 4 -12 9t-11 10q-4 6 -7.5 12.5l-6.5 12.5l-4 12t-3 12t-2 13t-1 13q1 8 1.5 17t1.5 17t2.5 16.5t3.5 16.5l95 357q2 9 5.5 18.5t6.5 18.5q4 9 8.5 18t8.5 16q3 7 8.5 15l10.5 15t11 14
t11 12q6 7 13 13l13 11q8 4 15.5 9t14.5 9q7 3 15 5.5l15 4.5q8 1 15.5 2.5t15.5 1.5h513z" />
    <glyph glyph-name="H" unicode="H" horiz-adv-x="780" 
d="M401 717l-77 -286h189l77 286h249l-192 -716h-249l83 311h-189l-83 -311h-250l191 716h251z" />
    <glyph glyph-name="I" unicode="I" horiz-adv-x="339" 
d="M167 715l252 2l-192 -717h-251z" />
    <glyph glyph-name="J" unicode="J" horiz-adv-x="577" 
d="M646 717l-147 -548q-2 -9 -5 -18t-6 -17q-4 -9 -8.5 -17.5l-8.5 -16.5q-5 -8 -10.5 -15l-10.5 -13l-13 -12.5t-13 -11.5l-13.5 -9t-14.5 -9q-7 -5 -16 -8.5l-17 -6.5l-21 -6t-23 -4q-12 -2 -25.5 -3t-26.5 -1h-351l32 118h233q7 0 14.5 1.5t12.5 3.5q12 6 21 14
q4 4 7.5 8.5t5.5 9.5q2 4 4 10t3 10l145 541h252z" />
    <glyph glyph-name="K" unicode="K" horiz-adv-x="848" 
d="M148 717h251l-86 -321l342 321h159l-245 -210l143 -507h-296l-68 304l-80 -75l-61 -228h-250z" />
    <glyph glyph-name="L" unicode="L" horiz-adv-x="642" 
d="M158 717h253l-161 -600h297l-31 -116h-549z" />
    <glyph glyph-name="M" unicode="M" horiz-adv-x="1001" 
d="M152 717h322l17 -408l245 408h314l-192 -717h-248l153 572l-340 -571h-173l-29 565l-152 -565h-108z" />
    <glyph glyph-name="N" unicode="N" horiz-adv-x="803" 
d="M150 718h327l115 -586l157 586h112l-192 -716h-327l-116 597l-160 -597h-107z" />
    <glyph glyph-name="O" unicode="O" horiz-adv-x="793" 
d="M301 718h391q18 0 34 -3q9 -2 16.5 -4.5t13.5 -5.5q7 -3 13.5 -7.5l12.5 -8.5q5 -5 10 -12.5t8 -14.5t5.5 -15t3.5 -17q2 -9 2.5 -20t-0.5 -22q-1 -7 -2 -16t-3 -18t-4 -19.5t-5 -20.5l-82 -308q-3 -11 -6.5 -22t-7.5 -21q-3 -10 -7.5 -19.5l-8.5 -18.5q-4 -11 -10 -20.5
l-12 -18.5l-14 -17.5l-13 -15.5q-11 -11 -24 -20t-25 -15q-8 -4 -17 -7.5t-18 -4.5t-18.5 -2.5t-19.5 -1.5h-420q-8 0 -16 0.5t-14 2.5q-7 1 -13.5 4t-11.5 6q-7 4 -13.5 9t-10.5 11q-5 6 -9 12.5t-6 14.5q-2 6 -4 13t-3 14t-2 15t0 16v14.5t2 15.5q1 7 2.5 14.5t2.5 14.5
l94 354l6.5 21l6.5 20q4 9 8.5 18l8.5 17q4 9 10 17t11 16t11.5 14.5t12.5 11.5q6 6 13 11l14 10l14.5 8t14.5 7q9 3 19 5.5t20 4.5q9 1 19.5 2.5t19.5 1.5zM404 599q-5 0 -9.5 -1t-8.5 -2q-4 -2 -8.5 -4.5t-7.5 -4.5q-4 -3 -8 -7.5t-7 -8.5q-2 -5 -4.5 -10l-4.5 -9
l-106 -397q-1 -3 -0.5 -6.5t0.5 -6.5q1 -3 3 -6.5t3 -5.5q3 -2 6 -4.5t5 -3.5q3 -2 6.5 -3t6.5 -1h134q3 0 7 1t7 3q4 1 8 4t7 6q3 2 6 5.5t5 6.5t4 7t3 7l108 403q1 3 1 7v7q-1 3 -2.5 6.5t-3.5 5.5l-4.5 4.5t-5.5 3.5t-6 2.5t-6 1.5h-128z" />
    <glyph glyph-name="P" unicode="P" horiz-adv-x="769" 
d="M152 716h530q6 0 13.5 -0.5t14.5 -1.5t14 -3t14 -3q6 -2 12 -5.5l11 -6.5q6 -4 11 -9l9 -9l6 -10t4 -9q2 -5 3.5 -11.5t2.5 -12.5t1 -13t-2 -15q0 -8 -1.5 -16.5t-4.5 -17.5l-47 -178q-3 -8 -5.5 -16.5t-5.5 -15.5q-3 -8 -7 -14.5l-8 -12.5q-3 -6 -8 -12t-9 -10
q-4 -5 -9.5 -10t-10.5 -9l-12 -8t-11 -7l-13 -6.5t-13 -5.5q-9 -3 -17.5 -5t-16.5 -3q-7 -2 -16 -2.5t-16 -0.5h-287l-69 -255h-248zM369 598l-60 -223h148q3 0 6.5 1t5.5 3q4 1 7.5 4t5.5 6t5 6.5t5 6.5q1 3 2.5 6.5t2.5 6.5l40 148q1 4 1 7.5v6.5t-1.5 6l-2.5 5t-3 4t-4 3
t-5 2t-5 1h-148z" />
    <glyph glyph-name="Q" unicode="Q" horiz-adv-x="792" 
d="M542 597h-132q-3 0 -7 -1l-8 -2q-3 -2 -7.5 -4.5t-7.5 -5.5l-6.5 -6.5t-5.5 -6.5t-4 -7t-3 -7l-107 -400q-1 -3 -1 -6.5v-6.5q1 -3 3 -6.5t4 -6.5l4.5 -4.5t5.5 -3.5q2 -2 6 -3t7 -1h60l-24 104h96l24 -96q3 1 6 3.5t5 5.5q1 1 3 2.5t2 3.5q0 1 1 3l2 4l111 416q2 6 1 12
q-1 3 -3 5.5t-4 4.5q-2 1 -4 3t-5 4l-6 2t-6 1zM301 718h415q11 0 20.5 -1.5t18.5 -3.5q8 -3 15.5 -7t13.5 -8q6 -5 11 -11t9 -12t7 -13t5 -15q2 -6 3.5 -12t1.5 -12t1 -13t1 -13q-1 -8 -1.5 -17t-1.5 -17q-2 -8 -3.5 -17t-3.5 -16l-91 -340q-2 -8 -5 -17t-7 -18l-8.5 -18.5
l-8.5 -18.5q-4 -7 -8.5 -14l-8.5 -13q-4 -7 -9 -13.5l-10 -12.5q-5 -7 -11.5 -13.5t-12.5 -11.5q-7 -6 -14.5 -11.5t-14.5 -9.5t-14.5 -7.5t-14.5 -5.5q-8 -2 -16.5 -3.5t-16.5 -1.5h-69l24 -91h-102l-23 91h-261q-10 0 -19 1t-16 3q-8 1 -15 4.5l-13 6.5t-11 7t-10 9
q-4 4 -8 10t-6 11q-3 6 -5.5 12.5t-3.5 12.5q-2 6 -3 13t-1 13v36q1 9 3 18t4 17l98 365q1 7 4 14t5 15q3 8 7 15t7 15q4 7 8.5 14t9.5 14t11 14.5l11 13.5q6 6 12.5 11.5t11.5 10.5q6 5 13 10t14 9l19 8.5t20 7.5q9 3 20.5 4.5t22.5 1.5z" />
    <glyph glyph-name="R" unicode="R" horiz-adv-x="821" 
d="M150 716h539q19 0 35.5 -3t29.5 -7q12 -5 22.5 -13t16.5 -18q3 -4 5 -10.5l4 -12.5q1 -7 2 -15t1 -15q-1 -12 -3.5 -26.5t-6.5 -30.5l-39 -147q-2 -5 -3.5 -11l-2.5 -10q-1 -5 -3.5 -11t-5.5 -11q-2 -5 -5 -10.5t-6 -9.5t-8 -9l-9 -9q-3 -3 -7 -6t-8 -5t-9.5 -4.5
t-10.5 -3.5q-5 -2 -11 -3.5t-12 -1.5q-7 -1 -14 -1.5t-15 -0.5l60 -310h-278l-36 309h-80l-83 -309h-250zM371 598l-45 -169h157q4 0 7.5 0.5t4.5 1.5q3 1 6 3.5t5 4.5q1 1 3 4t3 6t2.5 6.5t2.5 8.5l29 109q1 3 1.5 6.5t0.5 5.5t-1.5 4t-2.5 4q-1 1 -3.5 2.5t-4.5 1.5
q-3 0 -6 0.5t-5 0.5h-154z" />
    <glyph glyph-name="S" unicode="S" 
d="M745 716l-32 -118h-335q-2 0 -5 -0.5t-4 -1.5q-3 -1 -6 -2.5l-5 -2.5l-4 -4t-4 -3q-2 -2 -3.5 -4.5t-1.5 -4.5l-14 -53q-1 -2 -1 -4v-3q0 -2 1 -4.5t2 -3.5q1 -2 3 -5t4 -4q3 -2 5.5 -3t5.5 -1h220q6 0 13 -0.5t14 -1.5t13.5 -3t12.5 -3q6 -2 12 -5t11 -6t10.5 -7.5
t9.5 -8.5q3 -4 6 -8.5t4 -8.5l4 -10t3 -10t1 -11.5v-12.5q-1 -6 -2 -13.5t-3 -15.5l-59 -219q-1 -5 -3 -11t-4 -11q-1 -5 -3.5 -11t-4.5 -10q-4 -8 -8 -15t-8 -13t-9.5 -12.5l-9.5 -11.5q-11 -11 -23 -20.5t-26 -16.5l-18 -8t-19 -5q-9 -2 -19 -3.5t-20 -1.5h-474l31 119
h334q3 0 6 0.5t6 1.5q4 1 7 2t6 3q2 1 5 3t5 4t4 5t2 6l17 63q1 2 1 5t-1 5t-2.5 4t-3.5 4l-3 3t-4 3q-3 1 -5.5 1.5t-5.5 0.5h-242q-6 0 -12.5 0.5t-12.5 1.5t-11.5 2.5t-9.5 3.5q-5 1 -9.5 4t-8.5 5q-4 3 -7 6.5t-6 6.5q-5 8 -9 17q-2 4 -3 10t-1 12q-1 10 0 22.5t5 26.5
l60 224l4 12.5t5 12.5q2 6 5.5 13t7.5 13q3 6 7.5 12.5l8.5 12.5l10.5 12t11.5 11q4 5 9.5 9l10.5 8q6 4 12 7.5t12 6.5l12.5 4l12.5 4q6 1 13.5 2t14.5 1h484z" />
    <glyph glyph-name="T" unicode="T" horiz-adv-x="678" 
d="M115 718h627l-32 -121h-188l-160 -597h-250l160 597h-189z" />
    <glyph glyph-name="U" unicode="U" horiz-adv-x="786" 
d="M145 718h251l-144 -539l-2 -10t0 -9q0 -5 1.5 -9.5t3.5 -8.5t5.5 -8.5t7.5 -7.5t9 -5t11 -2h238q6 0 11.5 0.5t9.5 2.5q5 1 9.5 4t8.5 5q4 3 8.5 7t6.5 9q3 4 5.5 10t4.5 10l147 551h108l-141 -528q-2 -8 -5 -16.5t-5 -16.5q-3 -9 -7 -18t-8 -17q-3 -8 -8 -17t-10 -16
l-12 -16t-13 -16q-5 -6 -11 -12t-13 -10l-14 -9t-15 -8q-9 -4 -19 -8t-20 -5q-11 -2 -23 -3.5t-24 -1.5h-380q-11 0 -22 1t-19 3q-9 1 -17 4.5t-15 7.5q-6 4 -11.5 9l-10.5 10l-8 12.5t-7 12.5q-3 7 -5.5 15.5t-3.5 16.5q0 9 -1 18t-1 18q1 9 1.5 18t2.5 18q0 9 2 18.5
t4 17.5z" />
    <glyph glyph-name="V" unicode="V" horiz-adv-x="816" 
d="M145 0l-49 718h266l40 -566l352 566h120l-448 -718h-281z" />
    <glyph glyph-name="W" unicode="W" horiz-adv-x="1082" 
d="M71 0l22 718h251l-19 -470l230 470h250l-17 -463l230 463h109l-352 -718h-242l15 476l-236 -476h-241z" />
    <glyph glyph-name="X" unicode="X" horiz-adv-x="832" 
d="M260 315l-170 403h310l88 -209l242 209h153l-354 -304l168 -414h-306l-87 218l-258 -218h-147z" />
    <glyph glyph-name="Y" unicode="Y" horiz-adv-x="795" 
d="M229 278l-144 440h295l99 -295l246 295h129l-378 -451l-71 -267h-250z" />
    <glyph glyph-name="Z" unicode="Z" horiz-adv-x="733" 
d="M163 718h632l-501 -599h283l-32 -119h-637l499 597h-276z" />
    <glyph glyph-name="a" unicode="a" 
d="M698 346l-92 -344h-214v56q0 -3 -2 -6t-3 -4q-2 -2 -4.5 -5t-3.5 -4q-2 -3 -5 -6t-5 -4l-5 -5t-5 -4q-6 -5 -13 -8.5t-14 -5.5q-6 -1 -13.5 -2.5t-14.5 -1.5h-223q-18 0 -31 3q-7 1 -13 3.5t-12 5.5q-5 3 -9.5 6.5t-8.5 8.5q-3 4 -5.5 10t-4.5 12t-3 13.5t-1 15.5
t0.5 16.5t1.5 16.5t3 17t3 17l4 16.5t4 15.5q1 7 3.5 15l4.5 15t5 15.5t5 16.5q3 8 6.5 15.5l7.5 15.5q3 7 8 15l9 14q5 7 11.5 13.5t12.5 11.5q7 6 15 11t16 8q14 6 30 9t33 3h248q3 0 7.5 1t7.5 3q4 1 8 4.5t8 6.5q2 1 4.5 4t4.5 6t3.5 6l2.5 5q2 6 0 12q-1 3 -2 5.5
t-3 4.5l-4 4t-5 4q-5 3 -11 3h-330l27 103h460q10 0 19.5 -1t17.5 -2q7 -2 14.5 -5t13.5 -6t12 -8t10 -10t7.5 -11.5t5.5 -12.5q3 -6 4.5 -12.5t2.5 -12.5q1 -7 1 -14v-14q0 -9 -1 -19t-3 -19t-3.5 -18.5t-4.5 -17.5zM432 255h-118q-4 0 -8.5 -1.5l-7.5 -2.5
q-4 -2 -8.5 -4.5t-8.5 -5.5l-6.5 -6.5t-5.5 -6.5q-3 -4 -5 -8t-3 -7l-20 -75q-1 -2 -1 -5v-5q1 -3 1.5 -6t1.5 -5q2 -2 4.5 -5t5.5 -4q2 -2 5.5 -3t5.5 -1h97q2 0 5 0.5t6 2.5q4 1 7.5 4t6.5 5q2 1 4.5 4t3.5 5l4 6t2 5z" />
    <glyph glyph-name="b" unicode="b" horiz-adv-x="726" 
d="M380 718l-51 -191h67h67h67h67q10 0 18 -0.5t13 -1.5q6 -1 10.5 -2t6.5 -2q3 -1 5.5 -2t3.5 -1v-1.5t-1 -0.5q5 -2 10.5 -5.5t10.5 -7.5q4 -4 7.5 -9t7.5 -9q6 -11 10 -23.5t4 -26.5v-15t-2 -15q0 -7 -1.5 -16t-4.5 -18l-58 -218l-6 -18t-6 -17t-7 -15.5t-8 -13.5
l-11.5 -16t-10.5 -14l-13.5 -13t-13.5 -10q-5 -5 -12 -9t-13 -7q-7 -3 -13.5 -6.5t-13.5 -4.5q-9 -3 -16.5 -5t-12.5 -2q-5 -1 -9.5 -1.5t-6.5 -0.5h-5.5h-3.5h-127h-127h-128h-127l191 718h243zM436 424h-106q-6 0 -11 -3q-4 -2 -7.5 -4.5t-5.5 -4.5q-3 -2 -5.5 -5t-4.5 -6
t-3.5 -6.5t-2.5 -6.5l-68 -252q-2 -6 0 -11q1 -3 2.5 -6t2.5 -4q1 -2 3.5 -4.5l3.5 -3.5q6 -3 12 -3h106q2 0 5 0.5t5 2.5q4 1 7.5 3.5t5.5 4.5t4.5 5t3.5 5q5 6 6 12l68 252q1 2 1 5v6q-1 3 -2 6.5t-2 5.5t-3 4.5t-4 3.5l-5 2.5t-6 1.5z" />
    <glyph glyph-name="c" unicode="c" horiz-adv-x="591" 
d="M633 526l-27 -103h-242q-4 0 -8.5 -1.5t-8.5 -2.5q-4 -2 -8.5 -4.5t-8.5 -5.5t-8 -6.5t-7 -6.5q-2 -4 -4.5 -8t-2.5 -7l-64 -238q-1 -3 -1 -7t1 -7q1 -4 3 -7.5t4 -5.5q3 -3 6.5 -5.5t6.5 -3.5q3 -2 7 -2.5t8 -0.5h241l-28 -104h-390q-10 0 -19.5 1t-16.5 3
q-8 1 -15.5 4.5l-13.5 6.5q-5 4 -10 8.5t-9 9.5q-4 4 -7.5 10.5l-6.5 12.5l-2.5 10t-2.5 12q-3 12 -2 24q0 6 0.5 12.5t1.5 12.5q0 6 1 12.5l2 12.5l59 219q2 7 4.5 14l5.5 15q3 7 7.5 15l8.5 15t9.5 14.5t9.5 14.5q6 7 12.5 13.5l12.5 12.5q6 4 12.5 9t12.5 9l14.5 8
t14.5 7q5 1 11.5 3t12.5 3t13 1.5t13 0.5h398z" />
    <glyph glyph-name="d" unicode="d" horiz-adv-x="717" 
d="M429 424h-108q-2 0 -5 -1t-5 -2q-4 -2 -7.5 -4.5t-5.5 -4.5t-4.5 -5t-4.5 -6t-3.5 -6t-2.5 -6l-68 -254q0 -2 -0.5 -5t-0.5 -6q1 -3 2.5 -6t2.5 -4q1 -2 3 -4.5t4 -3.5q6 -3 11 -3h106q3 0 6 0.5t5 2.5q3 1 6.5 3.5t4.5 4.5q3 2 5.5 5t3.5 6q3 3 4.5 6t1.5 5l69 255
q0 2 0.5 5t0.5 6q-1 3 -2.5 6t-1.5 5q-1 2 -3 4l-4 4q-2 1 -4.5 2t-5.5 1zM779 717l-192 -717h-512q-11 0 -19 0.5t-13 0.5q-6 1 -10 2t-7 2q-2 1 -4 2.5t-2 2.5l-2 2t-2 1q-5 3 -10 6.5t-9 8.5q-4 4 -7.5 9t-6.5 10q-2 4 -4 10l-4 12l-2 12t-1 12v12.5t1 12.5q0 6 1.5 12.5
t2.5 12.5l62 234q2 9 5 17.5l6 16.5l8 15.5l8 14.5t9 13.5t10 11.5q4 5 9.5 11t10.5 10l13 9t13 8q7 4 14.5 7.5t13.5 5.5l17 5.5t13 3.5t9.5 2t7.5 1q2 0 4.5 -0.5l2.5 -0.5q1 0 2 -0.5l1 -0.5h67h67h67h67l51 190h244z" />
    <glyph glyph-name="e" unicode="e" horiz-adv-x="715" 
d="M627 528q9 0 17.5 -1l16.5 -2l15 -4.5t15 -6.5q5 -3 9.5 -7.5t7.5 -8.5q4 -5 7 -11t5 -12l2.5 -10t1.5 -11v-11.5t-1 -12.5q-1 -8 -3 -17.5l-4 -18.5l-51 -187h-407l-15 -57q-1 -4 -1 -8t1 -8q0 -4 2.5 -8l4.5 -7t5.5 -6.5t6.5 -4.5q3 -2 7 -3t8 -1h337l-28 -103h-503
q-7 0 -15 0.5t-15 1.5t-14 4t-13 6q-5 2 -10 6t-8 8t-6 10t-5 12q-2 4 -3 9.5t-1 11.5v13.5v14.5q1 5 1.5 10.5t1.5 10.5q2 6 3 12.5l2 12.5l63 237l4 12t3 11q2 5 4.5 10.5t3.5 10.5l8 16t8 15t9.5 14l9.5 12l12 12t12 10t13.5 8t14.5 6q6 2 13.5 4t14.5 3l14.5 2t13.5 1
h405zM458 309l22 83q1 2 1 5v5l-2 6t-2 5t-3 4l-4 4q-2 1 -4.5 2t-4.5 1h-116q-3 0 -5.5 -1t-4.5 -2l-6 -4t-5 -3q-2 -2 -4.5 -5t-4.5 -5q-5 -6 -6 -11l-22 -84h171z" />
    <glyph glyph-name="f" unicode="f" horiz-adv-x="573" 
d="M642 716l-27 -101h-175q-4 0 -7 -0.5t-5 -0.5t-4.5 -1t-4.5 -2q-3 -2 -5.5 -4.5t-3.5 -4.5l-2.5 -5l-2.5 -5l-17 -63h193l-27 -102h-193l-114 -425h-245l114 425h-100l27 101h100l15 55q1 4 3 10t3 10t4 9.5l6 10.5q3 6 7 12.5t7 12.5q4 6 9.5 12.5t10.5 11.5
q4 4 9.5 8.5l10.5 8.5l12.5 8t12.5 7q7 3 14 5l14 4q7 1 15 2t17 1h329z" />
    <glyph glyph-name="g" unicode="g" horiz-adv-x="715" 
d="M481 424h-119q-2 0 -4 -1l-4 -2l-4 -4l-4 -4q-1 -2 -3 -4.5t-2 -4.5q-1 -3 -2.5 -6t-1.5 -4l-70 -260q0 -2 -0.5 -5t0.5 -5q0 -3 1.5 -6l2.5 -5t3 -4t4 -3q2 -2 5 -2.5t5 -0.5h110q2 0 5 0.5t5 1.5t5 3t4 4q2 1 5 4t4 5l2.5 5t1.5 5l70 261q1 3 1.5 6t-0.5 5
q0 3 -1.5 5.5t-2.5 4.5t-3 4l-4 4q-2 1 -4.5 2t-4.5 1zM622 -51q-1 -7 -3.5 -14t-5.5 -13q-3 -7 -7 -13.5l-8 -12.5q-3 -6 -7.5 -12.5t-8.5 -11.5t-10 -10.5l-11 -10.5q-5 -4 -10.5 -9t-11.5 -9q-5 -4 -10.5 -7.5l-10.5 -6.5l-14.5 -6t-13.5 -5q-7 -2 -14 -3.5t-13 -1.5
h-487l27 102h320q6 0 12 1.5t11 2.5q5 2 9.5 5.5t8.5 7.5q4 3 7.5 7.5l6.5 8.5q5 9 7 18l13 45h-275q-9 0 -16.5 0.5t-13.5 2.5q-8 1 -14 4t-11 6t-10 6.5t-8 7.5q-4 4 -8 8.5t-6 9.5q-5 9 -9 20q-2 5 -3 11t-1 12q-1 7 -1 15t1 15t2.5 15t3.5 16l62 232q1 6 3.5 12.5
t4.5 12.5l6.5 13l6.5 13t7.5 12.5t9.5 12.5l10.5 12l10.5 11q6 6 12.5 11l13.5 10q6 4 13.5 8.5t14.5 7.5t14 5l14 4q7 1 14.5 2.5t15.5 1.5h517z" />
    <glyph glyph-name="h" unicode="h" horiz-adv-x="733" 
d="M-50 1l191 718h243l-51 -192h267q17 0 32 -3q7 -2 13.5 -5t11.5 -6t10.5 -7.5t9.5 -8.5q4 -5 7.5 -10t6.5 -10t5.5 -11t3.5 -12q2 -6 3 -13t1 -13q1 -8 1 -17t-1 -17l-2 -18t-3 -17l-96 -359h-242l106 396v5v5q-1 2 -2 4.5t-2 4.5q-2 1 -4.5 3t-4.5 3q-1 1 -4 2t-5 1
h-116q-2 0 -5 -1t-5 -2q-2 -2 -5 -4.5t-5 -4.5t-4 -5t-4 -5q-1 -3 -2.5 -6l-2.5 -5l-104 -390h-242z" />
    <glyph glyph-name="i" unicode="i" horiz-adv-x="315" 
d="M157 717h237l-37 -137h-237zM346 529l-142 -529h-240l141 529h241z" />
    <glyph glyph-name="j" unicode="j" horiz-adv-x="326" 
d="M193 717h238l-36 -136h-238zM383 530l-161 -601q-1 -5 -3 -10.5l-4 -10.5q-2 -4 -4.5 -9.5t-4.5 -10.5q-3 -6 -7.5 -12t-7.5 -11l-10 -11.5t-11 -10.5q-6 -4 -12.5 -9t-13.5 -9t-15 -8t-17 -6q-5 -1 -10.5 -2.5t-10.5 -1.5q-5 -1 -11 -1.5t-12 -0.5h-349l27 101h191
q3 0 7 1.5t8 2.5q3 2 7.5 4.5t7.5 5.5t6 7t5 7q3 4 5.5 8t3.5 8l154 580h242z" />
    <glyph glyph-name="k" unicode="k" horiz-adv-x="765" 
d="M282 344l258 182h154l-178 -126l117 -400h-289l-48 247l-50 -39l-56 -208h-241l191 717h242z" />
    <glyph glyph-name="l" unicode="l" horiz-adv-x="315" 
d="M396 717l-192 -717h-243l191 717h244z" />
    <glyph glyph-name="m" unicode="m" horiz-adv-x="1037" 
d="M112 527h221l-10 -38q3 4 6.5 8t6.5 7q4 3 8 6.5t8 5.5q3 2 7.5 4t8.5 4q3 1 7.5 2t7.5 1h235q9 0 16 -1.5t12 -4.5t9.5 -7t7.5 -8q2 -3 4 -7t3 -7q1 -4 2 -7.5t1 -6.5q1 -3 1 -5v-3v-2v2q2 4 5 9.5l6 10.5q2 4 6 9t7 8l8.5 8.5t8.5 6.5q5 3 10 4.5t11 1.5h193
q10 0 19.5 -1.5t16.5 -2.5q7 -2 14 -5.5t12 -7.5t10 -9t8 -10t6 -11.5t5 -12.5q1 -5 2.5 -11t0.5 -12q0 -6 0.5 -13t-0.5 -13q0 -8 -1 -16.5t-3 -16.5t-3.5 -16.5t-3.5 -15.5l-94 -353h-221l105 394q1 3 1 6.5v5.5q-1 2 -1.5 4.5t-1.5 4.5q-1 1 -3.5 2.5t-3.5 2.5
q-2 1 -4.5 1.5t-4.5 0.5h-92q-3 0 -5.5 -0.5t-4.5 -1.5q-2 -2 -4.5 -3.5t-4.5 -2.5q-1 -2 -3.5 -4.5t-3.5 -4.5l-2.5 -5t-1.5 -4l-106 -396h-222l105 392q0 2 0.5 5t1.5 6q0 3 -1 5.5t-2 4.5t-3 4l-4 4q-2 1 -5.5 2t-7.5 1h-88q-2 0 -5 -1t-5 -2q-2 -2 -5 -4.5t-5 -4.5
t-4 -5t-4 -5q-1 -3 -2.5 -6l-2.5 -5l-105 -392h-220z" />
    <glyph glyph-name="n" unicode="n" horiz-adv-x="732" 
d="M322 393l-106 -393h-243l140 526h511q19 0 35 -4.5t29 -12.5q12 -7 20 -17.5t14 -23.5q2 -5 3.5 -11t3.5 -12q1 -7 1.5 -14t0.5 -15q-1 -8 -1 -16t-2 -16q-1 -8 -3 -17.5l-4 -18.5l-93 -348h-242l105 392q1 4 1 7.5v5.5q-1 3 -2 5.5t-2 4.5q-2 2 -4.5 4t-4.5 3
q-3 1 -6.5 1.5t-6.5 0.5h-105q-2 0 -5 -0.5t-6 -1.5q-4 -1 -7 -3t-5 -3q-2 -2 -4.5 -4t-5.5 -5q-2 -3 -3.5 -6.5t-2.5 -7.5z" />
    <glyph glyph-name="o" unicode="o" horiz-adv-x="723" 
d="M637 526q7 0 14 -0.5t13 -1.5t12.5 -3t11.5 -3q6 -1 10.5 -4t7.5 -6q4 -3 8 -8l7 -9t4.5 -10.5t3.5 -12.5q1 -7 2 -15t0 -17q0 -5 -0.5 -11t-2.5 -12t-3 -13.5t-3 -14.5l-67 -249l-4.5 -15l-4.5 -14l-6 -13.5l-6 -12.5q-3 -7 -7.5 -13.5t-9.5 -12.5q-4 -6 -9 -11t-10 -9
q-4 -4 -9.5 -8t-10.5 -7t-11.5 -6.5t-11.5 -4.5l-14.5 -4t-14.5 -3q-8 -1 -15.5 -1.5t-14.5 -0.5h-411q-7 0 -15 0.5t-15 2.5q-7 1 -14 4t-13 6q-5 3 -9.5 6.5t-7.5 7.5q-4 4 -7.5 8.5t-5.5 9.5q-1 4 -3 10t-3 12t-1.5 12.5t0.5 14.5v8t1 9q1 4 2 10t3 11l67 254l4 13.5
l4 12.5q1 6 4 12t5 11q4 8 9 16l9 15q5 7 10 12.5t11 10.5q5 5 11.5 10t11.5 8l13 6.5t12 4.5q7 1 13.5 3t12.5 3t12.5 1.5t12.5 0.5h418zM464 422h-132q-3 0 -7 -3q-2 -2 -4.5 -4t-3.5 -3q-1 -2 -3 -4.5t-2 -3.5q-1 -2 -2 -5t-2 -4l-69 -259q-1 -3 -1 -6t1 -5l2 -6t2 -4
q1 -2 3 -4.5t4 -3.5q5 -3 10 -3h115q3 0 5.5 0.5t5.5 2.5q3 1 6.5 3t5.5 4q3 1 5.5 4t3.5 5q3 3 4.5 6t1.5 5l70 260q1 2 1 5v5q-1 2 -2.5 4.5t-2.5 4.5l-3 3t-4 3t-4.5 2t-3.5 1z" />
    <glyph glyph-name="p" unicode="p" horiz-adv-x="724" 
d="M653 527q7 0 14 -1t13 -2l14 -4t12 -5q9 -5 17 -11.5t13 -14.5q4 -6 7.5 -13.5t5.5 -14.5q3 -8 4 -18t0 -20q0 -6 -0.5 -13t-2.5 -14q-1 -7 -2.5 -15t-3.5 -16l-55 -205q-2 -8 -4.5 -15.5t-4.5 -14.5q-3 -8 -6.5 -15l-6.5 -13l-9 -15t-10 -15t-10.5 -13.5t-11.5 -11.5
q-5 -5 -11 -10l-11 -9q-6 -4 -12.5 -7.5l-12.5 -6.5l-17.5 -6t-16.5 -4q-8 -2 -16.5 -3t-16.5 -1h-273l-53 -198h-240l193 725h514zM489 423h-113q-2 0 -5 -1t-5 -2t-5 -4t-5 -4q-2 -2 -4.5 -5t-3.5 -5q-2 -3 -3.5 -6t-1.5 -5l-70 -260v-4.5v-4.5q1 -2 2 -5t2 -4
q1 -2 3.5 -3.5t4.5 -2.5q1 -2 4 -2.5t5 -0.5h111q2 0 5 0.5t4 1.5q3 1 6 2.5t5 3.5t4.5 5t4.5 5q4 6 6 11l70 262q0 2 0.5 5t-0.5 5q0 2 -1.5 4.5t-2.5 4.5l-3 3t-5 3q-1 1 -3.5 2t-5.5 1z" />
    <glyph glyph-name="q" unicode="q" horiz-adv-x="716" 
d="M779 527l-194 -724h-242l53 197h-269q-9 0 -17 0.5t-15 2.5q-7 1 -14 4t-13 6t-11 7t-9 8t-7.5 9t-7.5 10q-2 4 -4 10l-4 12q-1 6 -2.5 12t-1.5 12v12.5t1 12.5q0 6 1.5 13t2.5 13l63 234q2 7 4.5 14l5.5 15t7 15l8 14t9 14t10 13q6 7 12.5 13.5t12.5 11.5q4 4 9.5 8
t11.5 7q5 4 12 7.5t13 5.5l14 4t13 4q7 1 15.5 2t15.5 1h517zM480 423h-109q-2 0 -5 -0.5t-4 -1.5q-3 -2 -5.5 -4t-4.5 -3q-3 -2 -6 -5t-5 -6t-4 -6.5t-3 -6.5l-68 -256q-1 -2 -1 -5v-5l2 -6t2 -4q1 -2 3.5 -4t3.5 -3q2 -2 5 -2.5t5 -0.5h111q6 0 11 3q3 1 6.5 4t5.5 5
q2 1 4 3.5t3 4.5q1 1 2.5 4t1.5 5l71 262v5t-1 5q0 2 -1.5 4.5t-2.5 4.5q-1 1 -3.5 3t-4.5 3q-1 1 -4 2t-5 1z" />
    <glyph glyph-name="r" unicode="r" horiz-adv-x="549" 
d="M228 0h-243l141 527h243l-12 -47q3 4 7.5 8t9.5 7q2 1 4.5 3t4.5 4q3 1 6 3t5 3q3 1 6.5 3t6.5 4q4 1 7.5 3t6.5 3t7 2t7 1q3 1 6.5 1.5t6.5 0.5h145l-39 -146h-128q-9 0 -18.5 -1.5t-17.5 -2.5q-9 -2 -17 -5t-15 -6q-3 -2 -7 -4t-7 -3q-3 -2 -6 -5l-6 -6q-4 -3 -7 -6.5
t-4 -6.5q-3 -4 -5 -8.5t-3 -8.5z" />
    <glyph glyph-name="s" unicode="s" horiz-adv-x="675" 
d="M684 526l-25 -97h-323q-1 0 -3 -0.5t-4 -0.5q-2 -1 -5 -2t-5 -2t-4 -2.5t-3 -2.5q-2 -2 -3.5 -4t-1.5 -3l-8 -29v-3.5t2 -2.5l2.5 -2.5l2.5 -2.5l4 -2t3 -1q3 0 5.5 -0.5t3.5 -0.5h237q5 0 11 -0.5t11 -1.5t10.5 -2.5l9.5 -2.5q5 -2 9.5 -4.5t8.5 -5.5q3 -3 7 -6.5
t7 -7.5q2 -3 4 -7.5t4 -8.5q1 -4 2.5 -9.5t1.5 -10.5t0.5 -11t-0.5 -12t-2 -13t-4 -15l-32 -123q-2 -7 -4.5 -14t-5.5 -13t-7 -12.5t-7 -12.5q-3 -5 -8 -10.5t-9 -9.5q-4 -5 -9.5 -9.5t-9.5 -8.5q-5 -4 -11 -7.5l-11 -6.5q-6 -3 -12 -6.5t-12 -5.5q-7 -3 -15 -5t-15 -3
q-8 -2 -15.5 -2.5t-13.5 -0.5h-464l25 95h344q1 0 4 0.5t5 1.5t4.5 2t4.5 3q2 1 4 2.5t3 3.5q2 1 3 3.5t2 4.5l7 29q1 1 1 3t-1 4q0 1 -1.5 3t-2.5 3t-3.5 2.5t-3.5 1.5q-1 1 -3.5 1.5t-4.5 0.5h-237q-6 0 -13 0.5t-14 1.5t-14 3.5t-13 5.5q-4 1 -7.5 4t-6.5 6
q-4 3 -6.5 6.5t-4.5 7.5q-2 3 -4 7t-2 8q-1 4 -2 9t-1 9v8.5t1 8.5t2 9l2 10l38 140q2 7 4.5 13.5l4.5 11.5q4 6 7.5 12t7.5 11q4 4 9 9.5t9 9.5t9.5 8.5t10.5 7.5q6 4 12 7.5l11 6.5q6 3 12.5 5.5t12.5 4.5q7 2 15 4l16 4q16 3 29 3h431z" />
    <glyph glyph-name="t" unicode="t" horiz-adv-x="574" 
d="M427 641l-31 -114h193l-27 -102h-193l-79 -294q-1 -2 -1 -5t-1 -5q1 -2 1.5 -5t1.5 -4q1 -2 3 -3.5t4 -2.5q6 -3 15 -3h176l-28 -102h-320q-10 0 -19.5 1t-17.5 3t-15 5.5t-13 7.5q-4 3 -7.5 7t-6.5 8q-4 4 -7 8t-5 9q-1 5 -3 11t-3 12t-1.5 12.5t-0.5 12.5q1 5 1 9.5
t1 9.5l2.5 10l2.5 10l77 288h-104l27 102h102l31 114h245z" />
    <glyph glyph-name="u" unicode="u" horiz-adv-x="732" 
d="M356 528l-106 -396q-1 -2 -1 -5t1 -5l2 -6t2 -4q2 -2 4.5 -3.5t4.5 -2.5q2 -2 4.5 -2.5t5.5 -0.5h109q2 0 5 0.5t5 1.5q4 1 7 2.5t5 3.5q2 1 4.5 3.5l4.5 4.5t3.5 5l2.5 5l106 398h243l-141 -527h-511q-8 0 -16 0.5t-15 2.5q-7 1 -13.5 4t-11.5 6q-6 3 -11 7t-9 9
q-4 4 -7.5 10l-6.5 11q-4 5 -6.5 11.5t-3.5 12.5q-2 7 -3.5 14t-1.5 14v14t1 14q1 15 5 29l99 369h240z" />
    <glyph glyph-name="v" unicode="v" horiz-adv-x="690" 
d="M131 0l-70 528h264l47 -394l252 394h105l-340 -528h-258z" />
    <glyph glyph-name="w" unicode="w" horiz-adv-x="996" 
d="M62 0l10 526h244l-2 -335l168 335h280l-7 -337l175 337h89l-259 -526h-253l11 402l-203 -402h-253z" />
    <glyph glyph-name="x" unicode="x" horiz-adv-x="753" 
d="M89 527h311l60 -133l170 134h157l-288 -216l148 -312h-315l-64 141l-194 -141h-142l300 224z" />
    <glyph glyph-name="y" unicode="y" horiz-adv-x="721" 
d="M384 528l-105 -392q-1 -2 -1 -5v-5q0 -3 1.5 -6t2.5 -4q0 -3 2.5 -5.5t4.5 -3.5q6 -3 10 -3h109q3 0 5.5 0.5t4.5 1.5t4.5 3.5l4.5 4.5q2 1 4 4t3 5q1 3 2.5 5.5t1.5 4.5l105 392h240l-160 -597q-1 -4 -3 -10t-5 -11l-4.5 -11t-5.5 -11t-7.5 -10.5t-7.5 -10.5l-9 -9
t-9 -10q-4 -4 -9.5 -8.5t-10.5 -7.5q-6 -4 -12 -7.5t-12 -6.5q-6 -2 -12.5 -4.5t-12.5 -3.5l-14.5 -2t-14.5 -1h-495l26 102h336q4 0 8.5 0.5t7.5 1.5q3 2 7 4t7 3q1 2 4 4.5t4 4.5q2 2 3.5 5t2.5 6l18 65h-261q-9 0 -17.5 1t-15.5 3q-7 1 -14 4.5t-13 7.5t-11 9t-9 10
q-5 5 -9 11.5t-6 13.5q-2 4 -4 10t-2 12q-2 6 -3 12.5t-1 12.5v13t1 14q2 7 3 14t3 15l98 365h242z" />
    <glyph glyph-name="z" unicode="z" horiz-adv-x="693" 
d="M728 526l-389 -420h279l-29 -106h-643l399 424h-262l27 102h618z" />
    <glyph glyph-name="zero" unicode="0" horiz-adv-x="801" 
d="M301 718h407q18 0 32 -3q7 -2 14.5 -4.5t12.5 -4.5q7 -3 12.5 -7.5l10.5 -8.5l8 -10.5t7 -11.5q4 -7 7 -15t4 -16t2 -17t1 -17q0 -9 -0.5 -18t-1.5 -18q-2 -9 -3.5 -18t-4.5 -17l-92 -346l-6 -18.5t-6 -17.5q-3 -9 -7.5 -18t-8.5 -16q-5 -9 -11 -18.5t-12 -17.5l-14 -16
t-13 -14t-13 -11.5t-14 -9.5q-8 -5 -15.5 -9t-14.5 -7t-15 -6t-15 -4q-8 -2 -16 -2.5t-15 -0.5h-414q-8 0 -17 0.5t-16 2.5q-8 1 -15.5 4.5t-13.5 7.5q-7 4 -13 9t-10 10l-8.5 13t-8.5 15q-2 6 -3.5 13.5t-2.5 15.5t-1.5 17t0.5 18q0 8 1 16t1 15q1 8 3 17.5l4 18.5l89 329
q2 9 5.5 19l6.5 19q4 10 9 20t9 19t10 18.5t12 17.5q6 9 13 17t15 15q6 6 13.5 12t15.5 11q7 5 16 9.5t18 7.5l14 4t15 4q16 3 33 3zM537 598h-133q-3 0 -7.5 -1.5l-7.5 -2.5q-4 -2 -8.5 -4.5t-7.5 -5.5q-4 -3 -7 -6.5t-5 -6.5l-4.5 -7t-3.5 -8l-106 -396q-1 -4 -1 -8t1 -7
q1 -4 3 -7.5t4 -5.5q2 -3 5 -6t6 -4q4 -2 8 -3t7 -1h128q6 0 13 3q4 1 8 3.5l7 4.5q3 1 6 4t5 6l4 6t3 6l111 414q2 6 0 12q0 3 -2 5.5t-4 4.5l-4.5 4.5t-5.5 3.5q-2 1 -5.5 2t-6.5 1z" />
    <glyph glyph-name="one" unicode="1" horiz-adv-x="561" 
d="M631 718l-192 -716h-248l133 497h-92l34 127l306 92h59z" />
    <glyph glyph-name="two" unicode="2" horiz-adv-x="774" 
d="M170 718h517q7 0 14 -0.5t14 -1.5l14 -4l14 -4q6 -2 12 -5.5l11 -6.5q5 -4 10 -9t9 -10q3 -5 6.5 -10t4.5 -11q3 -6 4.5 -12.5t2.5 -13.5q-1 -6 -0.5 -12.5t-0.5 -12.5t-2 -13t-3 -14l-51 -191q-2 -5 -4 -11t-3 -10q-2 -5 -5 -10.5t-6 -9.5q-2 -4 -5.5 -8.5t-5.5 -8.5
q-3 -4 -7 -8.5t-7 -7.5q-4 -4 -9 -8t-8 -7l-9 -6.5t-11 -5.5q-5 -3 -11.5 -6t-11.5 -4q-7 -2 -13 -3t-11 -1l-290 -15q-5 0 -10 -1t-10 -1q-5 -1 -9 -3t-8 -3q-3 -1 -6.5 -4t-5.5 -6t-5 -8t-4 -10l-28 -103h414l-31 -118h-662l90 339q1 6 3.5 13l4.5 13q1 7 4.5 14l6.5 13
q2 5 5.5 10t5.5 10l7 9t7 10q4 4 9 8l9 7q6 3 12 6.5t11 5.5q5 1 10 3t10 3q6 1 12 2.5t12 1.5l313 16q3 0 6 0.5t5 1.5q3 1 6 3l6 4q2 1 4.5 4t3.5 5q2 2 3.5 5l2.5 5l19 71v3v4q-1 1 -3 2.5t-4 2.5q-1 1 -3.5 2t-4.5 1t-4.5 0.5t-4.5 0.5h-390z" />
    <glyph glyph-name="three" unicode="3" horiz-adv-x="759" 
d="M156 599l32 118h489q6 0 13 -0.5t14 -0.5q6 -1 13 -2.5l12 -2.5l13.5 -4t11.5 -4l10.5 -6.5t9.5 -7.5q3 -3 6 -7t5 -8l4 -10t3 -10t1 -11.5v-12.5q-1 -7 -2 -15t-4 -16l-40 -150q-2 -9 -6 -17t-9 -14q-5 -7 -12 -13.5t-15 -10.5q-5 -4 -12 -7.5t-14 -6.5q-8 -3 -16 -6.5
t-17 -6.5q9 -2 16 -5t14 -7q6 -4 11.5 -9.5t7.5 -11.5q3 -6 5.5 -13.5t2.5 -14.5q1 -8 0 -17t-4 -18l-43 -161q-1 -6 -3.5 -12l-4.5 -11t-5.5 -11t-5.5 -10q-3 -5 -7 -9.5t-7 -8.5q-4 -4 -9 -8.5t-9 -7.5q-4 -4 -9.5 -7.5l-10.5 -6.5l-11.5 -6t-10.5 -4q-5 -2 -10.5 -3.5
t-10.5 -2.5t-11 -1.5t-10 -0.5h-523l31 119h356q2 0 5 0.5t4 1.5q3 1 5.5 3t4.5 4q2 1 4.5 4t4.5 5q1 2 2.5 4.5t1.5 4.5l36 136q1 2 1 4.5v4.5q-1 1 -2.5 3t-2.5 3q-2 1 -4 2.5t-3 2.5q-2 1 -4.5 1.5t-5.5 0.5h-249l32 118h247q2 0 5 0.5t4 0.5l6 2t5 3q2 1 4.5 3t3.5 4
q2 1 3.5 3.5t2.5 4.5l35 133q1 1 0.5 3.5t-1.5 4.5q0 2 -1.5 4t-2.5 4q-2 1 -4 2.5t-3 2.5q-2 1 -4.5 1.5t-5.5 0.5h-353z" />
    <glyph glyph-name="four" unicode="4" horiz-adv-x="848" 
d="M791 715l-99 -368h113l-50 -186h-115l-43 -161h-242l43 161h-440l47 176l495 378h291zM510 587l-317 -236h254z" />
    <glyph glyph-name="five" unicode="5" horiz-adv-x="788" 
d="M838 717l-32 -118h-416l-45 -141h293q14 0 26.5 -2t23.5 -6q7 -2 13 -5.5t11 -7.5t10 -9t8 -10l6 -10t4 -10q2 -5 3.5 -11t1.5 -12q1 -6 1 -13t-1 -13q0 -7 -1 -14.5t-4 -14.5l-50 -188l-4.5 -15t-5.5 -14t-7 -12.5t-7 -12.5q-4 -8 -9.5 -14.5t-11.5 -11.5
q-6 -6 -12.5 -11.5t-12.5 -9.5q-5 -3 -11.5 -6.5l-12.5 -6.5t-12.5 -5.5t-13.5 -3.5q-6 -2 -13 -3.5t-13 -2.5q-7 -1 -14 -1.5t-13 -0.5h-520l30 116h386q3 0 6 1.5l5 2.5q3 2 6 5.5t5 6.5q3 3 5 7t3 7q1 4 2.5 7.5t2.5 6.5l38 141q1 4 1.5 8.5t0.5 7.5l-2 6t-2 5t-3 4t-4 3
q-3 1 -6 1.5t-6 0.5h-392l107 379h658z" />
    <glyph glyph-name="six" unicode="6" horiz-adv-x="786" 
d="M812 717l-32 -118h-364q-3 0 -7 -0.5t-7 -1.5q-4 -1 -8.5 -3t-7.5 -4q-4 -2 -7.5 -5t-5.5 -6l-4.5 -7t-3.5 -9l-27 -100h296q6 0 12.5 -1l12.5 -2l12 -4t12 -5l10.5 -6.5t10.5 -7.5t10 -9t8 -9q4 -4 7.5 -8.5t5.5 -9.5q3 -5 5 -10.5t3 -9.5q1 -5 2 -11t1 -11t-1 -11
t-2 -11l-54 -203q-2 -5 -4 -11t-5 -10l-6.5 -11t-6.5 -10q-3 -5 -8 -10.5t-9 -9.5q-4 -5 -9.5 -10t-10.5 -9q-6 -5 -12.5 -9.5l-12.5 -8.5t-13 -8t-13 -7q-9 -5 -18 -8.5t-17 -5.5t-16 -3.5t-16 -1.5h-401q-7 0 -15 1t-15 3q-7 1 -14 4.5t-14 6.5q-5 3 -10 6.5t-10 6.5
q-4 3 -8 7t-7 9l-7 9t-6 10q-3 5 -4.5 11t-2.5 12t-1.5 12.5t-0.5 12.5t0.5 13t2.5 14l115 435l4.5 13t6.5 13q3 7 7.5 14t9.5 13q4 6 9.5 12.5t11.5 12.5l12.5 12t12.5 11q5 4 12 9l13 9q15 9 28 15q5 1 10.5 3t10.5 3l10.5 2t10.5 1h529zM470 346h-140q-2 0 -4.5 -1
t-4.5 -2q-3 -1 -6 -3.5t-5 -3.5q-2 -2 -4 -4.5t-4 -4.5t-3.5 -5t-1.5 -5l-46 -171q-1 -2 -1 -5t1 -5t3 -5t5 -4q2 -2 4 -3.5t5 -2.5t6 -1.5t6 -0.5h125q2 0 5 0.5t6 1.5q4 1 7 3t5 4q3 1 5.5 3.5l4.5 4.5t3.5 5l2.5 5l46 174q1 2 1 4.5v4.5q-1 2 -2.5 4.5t-2.5 4.5
q-1 1 -3 2.5t-4 2.5q-3 1 -5.5 2t-3.5 1z" />
    <glyph glyph-name="seven" unicode="7" horiz-adv-x="766" 
d="M817 717l-24 -121l-26.5 -24l-26.5 -24l-16.5 -16l-16.5 -15l-16 -16.5t-16 -15.5l-19 -19t-19 -20q-8 -10 -17.5 -20l-17.5 -19l-21.5 -24l-19.5 -23l-19.5 -24l-19.5 -24l-29 -38.5t-28 -38.5l-15 -22.5l-15 -21.5l-14.5 -23t-14.5 -22l-12 -20l-12 -21l-12 -21.5
t-11 -20.5l-8.5 -15.5l-8.5 -16.5q-3 -8 -7.5 -16t-7.5 -15h-286l9.5 16l10.5 17l10.5 17l10.5 18q14 22 29.5 44l31.5 45l15 20.5t15 21.5q8 11 16.5 21t16.5 21l12.5 16.5t13.5 15.5l13 15.5l14 16.5l16.5 20.5t17.5 20.5q8 10 18 20t18 20l18 20t18 19q8 10 18 20t18 19
l19.5 20t19.5 19t20 19l19 19l14.5 14l14.5 14t15 14t14 13h-397l33 121h644z" />
    <glyph glyph-name="eight" unicode="8" horiz-adv-x="790" 
d="M719 717q7 0 14 -1l14 -2q7 -2 13.5 -4.5t12.5 -5.5q4 -2 9 -5t9 -6q3 -3 7 -7.5t6 -8.5q6 -8 10 -17q2 -5 3.5 -10t2.5 -9v-11v-11q0 -6 -1 -12.5t-3 -12.5l-31 -115q-1 -4 -3 -9t-4 -9q-2 -5 -5 -10t-6 -9q-2 -4 -6 -8t-7 -8q-4 -5 -8.5 -9t-8.5 -7l-9 -6.5t-11 -6.5
l-10.5 -6t-10.5 -5q-3 -1 -7.5 -3.5t-9.5 -3.5q-4 -2 -9 -3t-9 -2q4 -1 7.5 -2t7.5 -2q3 -2 7 -3.5t6 -2.5q4 -2 7.5 -4.5t5.5 -3.5q3 -2 6 -5t5 -6q3 -3 6 -7.5t5 -8.5t4 -9.5t2 -9.5q1 -5 1.5 -10t0.5 -10t-1 -10.5l-2 -10.5l-38 -142q-2 -7 -4.5 -14t-5.5 -13
q-4 -6 -7.5 -12.5t-7.5 -12.5l-9 -11t-9 -10q-4 -5 -9.5 -9.5l-10.5 -8.5q-4 -4 -9.5 -7.5l-10.5 -6.5l-11.5 -6t-10.5 -5q-7 -3 -14.5 -5t-13.5 -3q-7 -2 -14 -2.5t-13 -0.5h-447q-6 0 -13 0.5t-12 2.5q-6 1 -12 4l-12 6q-4 2 -7.5 5t-7.5 6q-3 3 -6.5 7t-6.5 7
q-2 4 -4.5 9.5t-4.5 9.5t-4 9.5l-4 10.5q0 5 -0.5 11t-1.5 11q0 5 1 11t2 11l38 143q1 6 4 12.5l6 12.5t8 12.5t10 11.5q3 4 7.5 8.5l8.5 8.5l10.5 8l9.5 7l10 6t10 5q5 3 10.5 5.5t10.5 4.5q11 4 22.5 6.5t22.5 3.5q-7 1 -13 2.5t-12 3.5q-5 1 -10 4t-10 4q-4 1 -8 4t-8 5
t-7.5 5t-5.5 6q-8 7 -12.5 15t-6.5 16q-1 9 -0.5 19t3.5 21l29 111q2 6 4.5 12t4.5 12q3 6 6.5 11.5t7.5 10.5q3 6 7.5 11.5l8.5 10.5l9.5 9.5t10.5 9.5l10.5 8t10.5 7q5 4 11 7.5t11 5.5t11 4t11 3l12 2t11 1h454zM459 314h-132q-4 0 -8 -1.5t-7 -2.5q-4 -2 -7.5 -5
t-5.5 -6t-5 -6.5t-5 -6.5q-1 -4 -2.5 -7.5t-2.5 -6.5l-31 -115q-1 -3 -1.5 -6.5t-1.5 -6.5q0 -3 0.5 -6.5t1.5 -6.5t3 -5.5t5 -3.5q2 -2 6.5 -3t8.5 -1h131q3 0 7 0.5t6 1.5q3 1 6.5 3t5.5 4q4 3 7 6.5t4 6.5q3 4 5 8t3 8l32 120q1 4 1.5 7.5t0.5 6.5t-0.5 6.5t-1.5 5.5
q-2 3 -4 5t-5 4q-2 1 -6 2t-8 1zM405 599q-4 0 -8 -1.5t-8 -2.5q-3 -1 -6.5 -4t-6.5 -6t-5.5 -6.5l-4.5 -6.5l-4 -8t-3 -7l-23 -85q-1 -5 -1.5 -8.5t-0.5 -6.5t0.5 -6.5t1.5 -5.5q1 -3 3.5 -5.5t5.5 -3.5q6 -3 16 -3h129q3 0 6.5 0.5t6.5 1.5q4 1 7 3.5t6 4.5q2 2 5 5.5
t6 6.5q2 3 4 7.5t3 8.5l23 87q1 3 1.5 6.5t0.5 6.5t-1 6.5t-2 6.5q0 3 -2 5.5t-5 4.5q-2 2 -6 3.5t-9 1.5h-129z" />
    <glyph glyph-name="nine" unicode="9" horiz-adv-x="788" 
d="M535 599h-135q-1 0 -3.5 -0.5t-4.5 -1.5l-6 -4t-5 -4t-4 -4.5t-4 -4.5t-3.5 -5t-1.5 -4l-47 -174v-5t1 -5q0 -2 1.5 -5t3.5 -4q1 -2 3.5 -3.5t4.5 -2.5q3 -2 5.5 -2.5t5.5 -0.5h126q2 0 5 0.5t5 1.5q4 1 7 3l6 4q3 1 5.5 4t5.5 5q2 2 3.5 5t1.5 5l47 175q1 2 1 5t-1 5
t-2.5 4.5t-3.5 4.5q-1 1 -3 2.5t-4 2.5t-5 2t-5 1zM703 717q6 0 13 -1t13 -2q7 -2 13.5 -5l12.5 -6q4 -2 8.5 -5t8.5 -6q5 -3 9 -7t7 -8q4 -5 7.5 -10l6.5 -9q3 -5 5.5 -11l4.5 -11t2.5 -11t0.5 -12t-0.5 -12t-1.5 -12l-124 -462q-3 -12 -10 -24q-3 -6 -8 -12.5t-9 -12.5
q-4 -5 -8.5 -9t-8.5 -8q-4 -5 -9.5 -9t-9.5 -8q-6 -5 -13 -9t-13 -8t-13 -7.5t-14 -6.5t-14.5 -5.5t-14.5 -3.5q-7 -2 -14.5 -3t-13.5 -1h-519l30 117h369q3 0 7 0.5t7 2.5q3 1 7 3.5t8 4.5t7.5 5t5.5 6l4.5 6.5t3.5 6.5l27 102h-296q-8 0 -15.5 1.5t-15.5 3.5
q-7 2 -14.5 5.5t-13.5 7.5q-4 2 -8.5 5t-7.5 6q-4 3 -7.5 7t-6.5 7q-3 4 -6 8.5t-6 9.5q-2 4 -4.5 9.5t-3.5 10.5q-1 4 -2 9.5t-1 10.5v11t2 11l56 210l4 12t5 11q3 6 7.5 12t7.5 11l10 10.5t9 10.5q5 5 11.5 10.5l12.5 10.5q5 4 11.5 8.5t11.5 8.5q6 4 13 7.5t13 5.5
q6 3 12.5 5l12.5 4l12.5 2t11.5 1h415z" />
    <glyph glyph-name="exclam" unicode="!" horiz-adv-x="315" 
d="M153 717h243l-77 -288l-75 -198h-197l25 185zM255 189l-51 -189h-243l50 189h244z" />
    <glyph glyph-name="numbersign" unicode="#" horiz-adv-x="717" 
d="M499 717l-84 -205h93l84 203h85l-77 -203h124l-24 -91h-138l-51 -124h130l-25 -93h-138l-82 -204h-91l82 204h-88l-85 -204h-88l83 204h-136l24 90h144l52 127h-132l25 93h144l79 203h90zM474 422h-91l-49 -126h91z" />
    <glyph glyph-name="dollar" unicode="$" horiz-adv-x="737" 
d="M521 760l-28 -104h261l-27 -101h-261l-19 -72h164q5 0 10 -0.5t10 -0.5q5 -1 10.5 -2.5l9.5 -2.5q5 -2 10 -4.5l9 -4.5t8 -5l8 -6q3 -3 6 -7l6 -8q3 -5 5 -10t3 -9q2 -4 2.5 -10t0.5 -11q0 -6 -1 -12.5t-3 -13.5l-49 -184q-1 -5 -3.5 -11t-4.5 -10l-6.5 -11t-5.5 -10
l-7 -9.5t-8 -9.5q-5 -5 -9.5 -9t-8.5 -8t-9 -7.5t-10 -6.5q-4 -3 -9.5 -6.5t-10.5 -5.5l-13.5 -6t-13.5 -4q-6 -2 -12.5 -3t-12.5 -1h-177l-29 -107h-79l30 109h-272l26 101h273l21 80h-161q-7 0 -14.5 0.5t-14.5 1.5t-13.5 3t-11.5 4q-6 2 -11 5t-8 6q-5 3 -9 6.5t-6 7.5
q-3 4 -5.5 8.5t-4.5 8.5t-3.5 9t-1.5 10q0 4 -0.5 10t0.5 10q-1 5 0 11t2 11l46 171l4 12t4 11q3 6 6.5 12l6.5 11q6 10 14.5 19.5t17.5 17.5q9 7 19.5 13t22.5 11q5 2 11 4t12 3q5 1 11.5 1.5t12.5 0.5h181l28 104h81zM293 483h73l19 70h-73q-2 0 -3.5 -0.5t-3.5 -0.5
q-3 -2 -6 -5q-2 -1 -3.5 -2.5t-1.5 -2.5q-1 -2 -2.5 -4t-1.5 -3l-10 -37v-3t1 -2q0 -2 1 -3t1 -2l2 -2t3 -1q1 -1 2.5 -1.5t2.5 -0.5zM386 257l-21 -80h66q1 0 3 0.5t3 0.5q2 1 4.5 2t3.5 2t3 2.5t3 3.5q1 1 2 3t2 3l12 46v2.5v2.5t-1 2.5t-2 2.5l-2.5 2.5t-3.5 2.5
t-4.5 1.5t-4.5 0.5h-63z" />
    <glyph glyph-name="percent" unicode="%" horiz-adv-x="1040" 
d="M215 718h215q4 0 8.5 -0.5t7.5 -1.5q5 -1 9 -2.5t6 -2.5l6 -4t5 -4l5 -5t4 -6q2 -4 3.5 -8.5t2.5 -8.5q0 -4 0.5 -8.5t1.5 -9.5q-1 -5 -1 -9.5t-1 -8.5l-2 -10t-2 -9l-49 -182q-3 -11 -6.5 -20.5t-7.5 -16.5l-6 -10t-6 -9l-7.5 -9t-6.5 -7q-7 -6 -15 -11.5t-16 -8.5
q-7 -3 -15.5 -5t-17.5 -2h-218q-4 0 -8 0.5t-8 1.5t-8 2.5t-7 3.5q-4 2 -7 5t-5 6q-3 3 -5.5 6.5t-4.5 7.5q0 3 -1 7l-2 8q0 4 -0.5 9.5t-1.5 9.5q1 4 1.5 8t1.5 8t2 9.5t2 9.5l46 174q2 4 4 9.5t3 10.5q1 4 3.5 9.5t5.5 10.5q2 4 5 9l6 10t7 9.5t8 7.5t7.5 6.5t7.5 5.5
q4 3 9 5t9 4q4 1 8 2.5t7 1.5q4 1 8.5 1.5t9.5 0.5zM339 655h-70q-1 0 -3.5 -0.5t-3.5 -1.5q-2 -1 -4.5 -3t-4.5 -3l-3.5 -3.5t-3.5 -2.5q-1 -2 -2 -4.5t-2 -3.5l-56 -209v-4v-4l2 -4t2 -3q1 -2 3.5 -3t3.5 -2t3.5 -1.5t3.5 -0.5h67q2 0 4 0.5t4 0.5q1 1 3.5 2t3.5 2
q2 1 3.5 2.5t2.5 3.5q1 1 2 2.5t2 3.5l58 218q1 1 0.5 2.5t-0.5 3.5q-1 1 -1.5 3t-1.5 3l-2.5 2.5t-3.5 1.5q-1 1 -2.5 1.5t-3.5 0.5zM701 371h214q5 0 9.5 -0.5t8.5 -0.5q3 -1 7 -2.5t6 -2.5q4 -2 7 -4.5t5 -4.5l5 -5t4 -6q2 -3 3.5 -7.5t2.5 -8.5q0 -4 0.5 -9t0.5 -9v-10
t-1 -9q-1 -5 -2 -9.5t-2 -9.5l-49 -182q-3 -10 -6.5 -19.5t-8.5 -17.5q-2 -5 -5 -10t-6 -9t-7.5 -8.5l-7.5 -7.5q-6 -6 -14 -11t-16 -8q-8 -2 -16 -3.5t-16 -1.5h-218q-4 0 -8.5 0.5t-8.5 1.5q-5 1 -9 2t-7 2t-6.5 4t-5.5 6q-3 3 -5 7t-3 8q-2 3 -3 7t-1 8q-1 4 -1.5 8.5
t-0.5 9.5q1 4 1.5 8t1.5 9q1 4 2 8.5t2 9.5l46 174q2 4 4 9.5t3 10.5t3.5 10.5t4.5 10.5l6.5 9t5.5 10q3 4 7 8.5t8 8.5q3 3 7 6t8 5q4 3 9 5.5t10 4.5q3 1 7 2t7 1q4 1 9 1.5t9 0.5zM825 308q2 0 3.5 -0.5t3.5 -1.5q1 0 2 -1t3 -2q1 -2 2 -3.5t1 -2.5q1 -2 1 -3.5t-1 -2.5
l-58 -218q0 -2 -1.5 -4t-2.5 -3l-2.5 -2.5t-3.5 -2.5q-2 -2 -4.5 -3t-3.5 -2q-2 0 -3.5 -0.5t-3.5 -0.5h-68q-1 0 -3.5 0.5t-3.5 1.5t-3 2t-3 3q-1 1 -2.5 3t-1.5 4v3.5v4.5l56 209q1 1 2 3.5t2 4.5l3 3l4 4q2 1 4.5 2.5t4.5 2.5q1 1 3.5 1.5t3.5 0.5h70zM872 717l-567 -717
h-146l566 717h147z" />
    <glyph glyph-name="ampersand" unicode="&#x26;" horiz-adv-x="854" 
d="M663 622l-4.5 -13.5t-5.5 -14.5q-3 -8 -7.5 -16.5l-9.5 -17.5q-3 -8 -7.5 -16.5l-8.5 -15.5q-6 -8 -11.5 -17l-10.5 -17q-6 -7 -11.5 -15l-11.5 -16l-12 -15.5l-12 -14.5q-6 -8 -13.5 -14.5t-13.5 -12.5q-7 -6 -14 -11t-13 -8l-68 93q6 5 13 11.5t11 12.5q6 7 11 14.5
t9 14.5q3 7 5.5 15l4.5 15t1.5 14t-2.5 13q-1 6 -5 10.5t-8 7.5q-5 3 -10.5 5.5t-11.5 2.5q-3 0 -7 -0.5t-7 -0.5q-4 -1 -8.5 -2.5l-7.5 -2.5l-8 -4l-8 -4q-3 -2 -6.5 -5.5t-5.5 -6.5q0 -2 -2 -4t-3 -4q-2 -2 -4 -5.5t-3 -6.5q-2 -3 -4 -8t-3 -9q-1 -5 -1 -11v-12
q0 -5 2.5 -11.5t4.5 -13.5l9 -15t12 -16l163 -203l119 103l66 -91l-109 -100l38 -46l81 2l-37 -140h-179l-47 55q-2 -2 -5 -4.5t-5 -3.5q-2 -2 -5 -4t-4 -3q-2 -2 -4.5 -3.5t-4.5 -2.5q-2 -2 -5.5 -4.5t-5.5 -3.5l-16.5 -10t-16.5 -8t-17 -5t-18 -2h-292q-6 0 -12.5 1
t-13.5 3q-6 1 -12.5 4.5l-12.5 6.5q-5 2 -9.5 5.5l-8.5 6.5l-7 7l-8 8q-3 4 -6 10t-5 11q-3 5 -5.5 11t-3.5 11q-3 12 -3 24q0 6 0.5 12t2.5 12l45 172q2 8 5.5 16.5t7.5 16.5q3 8 8.5 16t11.5 15q4 5 9 10.5t10 9.5l11.5 9t11.5 8q7 4 14.5 7t15.5 5t16.5 3t16.5 1l55 1
l-41 96q-1 5 -2.5 11t-0.5 11q0 6 0.5 12t1.5 11q2 6 3 12t2 11q2 6 4 11t3 10q2 9 6.5 17.5l8.5 16.5q5 8 10.5 15t11.5 13l12.5 10l13.5 10q7 4 15 8t16 7q7 3 15.5 5l16.5 4l18.5 2t18.5 1h163h13h13t13 -1t13 -1q8 -1 15.5 -2.5t14.5 -2.5t13.5 -4t11.5 -6
q6 -3 11.5 -6.5t9.5 -7.5q4 -5 7.5 -10t4.5 -10q1 -4 2 -9.5t1 -9.5q1 -5 -0.5 -11.5t-2.5 -13.5zM288 305l-10 -6t-9 -6q-5 -3 -10 -7l-9 -7q-6 -4 -11.5 -9t-9.5 -9t-9 -10l-9 -11q-5 -8 -9 -17.5t-5 -18.5q-2 -10 0.5 -20.5t8.5 -20.5q1 -2 3.5 -5t4.5 -5q2 -3 5.5 -6
t7.5 -5q4 -3 7.5 -6t7.5 -4q4 -2 8.5 -4t7.5 -3q2 0 5.5 -0.5t7.5 -0.5q5 0 10.5 1t10.5 1q6 1 13 2t13 2t13.5 3.5t14.5 4.5q8 1 16 4t15 6t14 6.5t13 7.5z" />
    <glyph glyph-name="quotesingle" unicode="'" horiz-adv-x="152" 
d="M72 717h114l-48 -179l-43 -124h-93l19 115z" />
    <glyph glyph-name="parenleft" unicode="(" horiz-adv-x="420" 
d="M511 718l-29 -108h-95q-4 0 -8.5 -1.5t-8.5 -2.5q-4 -2 -8.5 -5.5l-8.5 -6.5t-8.5 -7t-6.5 -8q-3 -5 -5 -9l-4 -8l-139 -520q-1 -4 -1 -8t1 -8t3 -8.5t5 -7.5q2 -3 5 -6t7 -4t8 -2.5t7 -1.5h93l-29 -108h-162q-9 0 -17.5 1.5t-16.5 3.5q-8 3 -16.5 7t-15.5 8
q-6 3 -12 7.5l-11 8.5q-5 5 -9.5 10.5l-8.5 10.5l-6.5 10.5t-5.5 10.5q-3 5 -5 11t-3 11q0 6 -0.5 11.5t-0.5 10.5v12t1 12l141 528l4.5 13t6.5 14q3 7 8 14t10 13q5 7 10.5 13.5l10.5 12.5l13 12.5l13 12.5l14.5 10l14.5 10l14.5 8.5t14.5 7.5t15 6t14 5q7 1 14.5 2.5
t14.5 1.5h178z" />
    <glyph glyph-name="asterisk" unicode="*" horiz-adv-x="586" 
d="M453 718l-36 -133l133 66l27 -88l-131 -66l95 -66l-74 -88l-97 65l-35 -131h-103l35 132l-130 -66l-27 89l132 66l-97 65l74 87l97 -65l36 133h101z" />
    <glyph glyph-name="backslash" unicode="\" horiz-adv-x="340" 
d="M53 718h109l66 -718h-111z" />
    <glyph glyph-name="colon" unicode=":" horiz-adv-x="333" 
d="M144 513h243l-50 -187h-243zM56 187h243l-50 -187h-243z" />
    <glyph glyph-name="comma" unicode="," horiz-adv-x="333" 
d="M121 187h243l-50 -187l-164 -153h-104l114 153h-89z" />
    <glyph glyph-name="equal" unicode="=" horiz-adv-x="597" 
d="M87 435h66.5h66.5h65.5h65.5h64.5h65.5h66.5h67.5l-29 -105h-132h-132h-131.5h-132.5zM23 199h67.5h65.5h66h65h65.5h64.5h67h67l-28 -104h-131.5h-132.5h-131.5h-131.5z" />
    <glyph glyph-name="greater" unicode="&#x3e;" horiz-adv-x="578" 
d="M129 533h225l197 -269l-342 -268h-224l28 109h181l199 157l-117 160h-177z" />
    <glyph glyph-name="less" unicode="&#x3c;" horiz-adv-x="578" 
d="M621 533l-30 -111h-177l-203 -160l115 -157h182l-29 -109h-226l-197 268l341 269h224z" />
    <glyph glyph-name="period" unicode="." horiz-adv-x="338" 
d="M104 188h243l-50 -188h-243z" />
    <glyph glyph-name="bar" unicode="|" horiz-adv-x="173" 
d="M154 718h107l-192 -718h-106z" />
    <glyph glyph-name="plus" unicode="+" horiz-adv-x="597" 
d="M428 530l-57 -211h212l-28 -105h-212l-57 -211h-104l57 211h-212l28 105h212l56 211h105z" />
    <glyph glyph-name="question" unicode="?" horiz-adv-x="707" 
d="M131 718h506q13 0 22 -3l11.5 -4l10.5 -4t10 -5.5l9 -6.5l8.5 -8.5t7.5 -8.5q4 -5 7 -10t5 -9q3 -5 5 -10.5l4 -10.5q1 -5 2 -11t1 -11q0 -6 -1 -12t-2 -11l-37 -137q-1 -5 -3 -10.5t-4 -9.5l-6.5 -11t-6.5 -10q-3 -5 -7 -11t-9 -10l-9.5 -9.5l-9.5 -9.5q-5 -5 -10 -9
t-10 -7l-10.5 -6.5t-11.5 -6.5l-11 -4.5t-11 -3.5q-5 -2 -10.5 -2.5t-9.5 -0.5h-106q-2 0 -6.5 -1t-8.5 -2l-10 -4t-8 -3q-4 -2 -8 -5t-7 -6t-5.5 -6.5t-3.5 -7.5l-17 -65h-251l28 105q1 4 3 10t4 10t5.5 10t6.5 10q2 4 6 9l8 10q4 4 8.5 9t8.5 9q5 4 10 8.5t10 7.5
q4 3 9.5 6.5t9.5 6.5l10 4t10 3l10.5 2t9.5 1h125q3 0 6.5 0.5t7.5 2.5q3 1 7 3l8 4q3 1 6.5 4t5.5 5l4.5 6.5t3.5 6.5l26 99q1 3 0.5 6t-1.5 5q-1 3 -3.5 5t-5.5 4q-2 1 -5.5 3t-6.5 3t-6.5 1.5t-6.5 0.5h-348zM117 187h243l-50 -187h-243z" />
    <glyph glyph-name="quotedbl" unicode="&#x22;" horiz-adv-x="341" 
d="M72 717h114l-48 -179l-43 -124h-93l19 115zM251 717h115l-48 -179l-44 -124h-93l19 115z" />
    <glyph glyph-name="semicolon" unicode=";" horiz-adv-x="333" 
d="M164 513h243l-50 -187h-243zM77 187h243l-50 -187l-163 -153h-104l113 153h-89z" />
    <glyph glyph-name="slash" unicode="/" horiz-adv-x="340" 
d="M420 718l-448 -718h-110l448 718h110z" />
    <glyph glyph-name="bracketleft" unicode="[" horiz-adv-x="426" 
d="M516 717l-29 -110h-141l-164 -608h143l-30 -111h-326l220 829h327z" />
    <glyph glyph-name="bracketright" unicode="]" horiz-adv-x="426" 
d="M191 717h326l-222 -829h-327l30 111l140 1l164 607h-140z" />
    <glyph glyph-name="parenright" unicode=")" horiz-adv-x="420" 
d="M183 718h178q7 0 14 -1.5l12 -2.5q7 -2 13 -5t11 -6t11 -7t10 -8q5 -4 10 -10t8 -11q3 -6 6.5 -12t6.5 -12t5 -13t3 -14q1 -6 1.5 -13t0.5 -14q-1 -7 -1.5 -14t-1.5 -13l-142 -528q-3 -12 -9 -23t-15 -23q-5 -5 -10 -11t-10 -11l-12 -10.5l-12 -10.5l-14.5 -10l-14.5 -10
q-8 -4 -16 -9t-15 -8l-20 -8t-20 -6q-9 -3 -19 -4.5t-19 -1.5h-160l29 108h91q4 0 9 1.5t9 2.5q5 1 10 4t9 6l7 7t7 8t5.5 8.5t3.5 8.5l139 520q2 4 1.5 8t-0.5 8q-1 4 -2.5 8.5t-3.5 7.5t-5.5 6t-6.5 5t-7 3.5t-8 1.5h-95z" />
    <glyph glyph-name="hyphen" unicode="-" horiz-adv-x="597" 
d="M55 319h67.5h65.5h66h65h65h65h66.5h67.5l-28 -105h-132h-132h-132h-132z" />
    <glyph glyph-name="at" unicode="@" horiz-adv-x="829" 
d="M569 543q9 0 17.5 -2t16.5 -6t15 -10t13 -13t10 -15t6 -16q3 -9 3 -18t-2 -18l-34 -125q-1 -3 -1 -6v-5q0 -3 1 -5.5t2 -3.5q1 -2 3 -3t4 -1h4t5 2q6 4 13 10t14 14l12.5 16.5t11.5 17.5t10 19t9 20q9 21 14 39q3 11 5 23t2 23t-0.5 22.5t-2.5 22.5q-1 10 -4.5 21
t-7.5 21t-9 19.5t-11 18.5q-8 10 -16 19t-18 17q-9 8 -20 15.5t-22 13.5q-12 6 -24.5 11.5t-26.5 8.5q-13 3 -28 5.5t-29 2.5q-12 0 -25 -1.5t-25 -2.5q-12 -2 -24 -5t-23 -7l-22.5 -10t-21.5 -11q-11 -6 -22 -13t-21 -15q-17 -13 -32.5 -27.5t-29.5 -30.5
q-15 -16 -28.5 -33t-23.5 -34q-12 -18 -22 -36t-18 -36l-14 -36t-11 -34q-9 -31 -11.5 -60.5t0.5 -55.5q2 -26 10.5 -49.5t21.5 -42.5q13 -20 31.5 -35.5t42.5 -25.5q24 -11 52.5 -17.5t61.5 -6.5h15h14q8 0 15.5 1l14.5 2q8 1 16 3.5t14 5.5q8 3 16 7.5t16 9.5h71
q-4 -7 -9.5 -14l-10.5 -13l-12 -11.5t-13 -9.5q-6 -5 -14 -9.5l-15 -8.5t-15 -7.5t-16 -6.5q-7 -3 -15 -6t-15 -4q-8 -2 -16 -3.5t-15 -2.5t-15 -2t-15 -1q-6 0 -13 -0.5t-13 -0.5q-16 1 -32 3t-32 5q-15 3 -30.5 7.5t-28.5 9.5q-14 6 -27.5 13.5t-25.5 15.5t-23.5 18.5
t-21.5 21.5q-9 11 -17 24.5t-15 27.5q-6 15 -10.5 31.5t-7.5 34.5t-3.5 38.5t1.5 41.5t6.5 44.5t11.5 49.5q4 17 11 35l14 35q8 17 18.5 34.5l21.5 34.5q11 16 24 33t27 32q14 16 30 31l32 29q16 13 32.5 24.5l33.5 22.5q17 10 35 19.5t37 17.5q18 8 38 14t39 10
q20 4 40.5 6.5t41.5 2.5q14 0 29.5 -1.5t29.5 -4.5t28 -8l28 -10q13 -6 26 -13.5t24 -15.5q11 -9 22 -19.5l21 -20.5q10 -11 19 -24.5t16 -27.5q6 -14 12 -30.5t9 -32.5q3 -17 4.5 -35t0.5 -37t-4.5 -39.5t-8.5 -41.5q-4 -16 -10 -30.5t-13 -27.5q-6 -13 -14 -25t-17 -22
q-9 -11 -19 -19.5l-20 -16.5t-21.5 -15t-22.5 -12t-23.5 -10t-23.5 -8q-12 -4 -24.5 -7.5t-24.5 -4.5l-24 -4t-24 -3q-11 -1 -22.5 -1.5t-21.5 -0.5h-110h-113q-6 0 -12.5 2t-11.5 6q-6 4 -11 9t-8 11t-5.5 12.5t-3.5 13.5t-1 14.5t2 14.5l44 166q2 8 6 16.5t9 15.5t12 15
t14 15t15 12.5t16 9.5t16 6.5t15 2.5h115h110zM432 477q-1 0 -3.5 -0.5t-4.5 -1.5q-3 -1 -5.5 -2.5t-3.5 -2.5l-4.5 -4.5t-4.5 -3.5q-2 -2 -3 -4.5t-2 -3.5l-44 -166q-1 -2 -0.5 -4t0.5 -3q0 -2 1.5 -3.5l2.5 -2.5t3.5 -2.5t3.5 -2.5t3.5 -1.5t3.5 -0.5h44q2 0 4.5 0.5
t4.5 1.5t4 2.5t4 2.5t4 3t3 4q1 1 2.5 3t1.5 4l45 166v3.5v4.5q-1 1 -1.5 3t-2.5 4q-1 1 -3 2.5t-3 2.5t-3.5 1.5t-4.5 0.5h-42z" />
    <glyph glyph-name="asciicircum" unicode="^" horiz-adv-x="610" 
d="M409 717l120 -390h-103l-97 271l-238 -270h-107l327 389h98z" />
    <glyph glyph-name="underscore" unicode="_" horiz-adv-x="539" 
d="M7 -82h514l-15 -56h-512z" />
    <glyph glyph-name="grave" unicode="`" horiz-adv-x="308" 
d="M-16 760h168l120 -164h-159z" />
    <glyph glyph-name="braceleft" unicode="{" horiz-adv-x="447" 
d="M537 718l-29 -108h-95q-4 0 -8.5 -1.5t-8.5 -2.5q-5 -2 -9.5 -5.5l-8.5 -6.5t-8 -7t-6 -8l-5.5 -9t-3.5 -8l-40 -150l-117 -103l62 -102l-44 -165q-1 -4 -1 -8.5t1 -8.5q1 -5 2.5 -8.5t4.5 -6.5q2 -3 5 -6t7 -4t8 -2.5t8 -1.5h93l-29 -108h-162q-9 0 -17.5 1.5t-16.5 3.5
q-8 3 -16.5 7l-16.5 8q-6 3 -12 7.5l-11 8.5q-5 5 -9.5 10.5t-7.5 10.5l-6.5 10.5l-6.5 10.5q-2 5 -4 11t-4 11l-2 10.5t0 11.5q0 6 0.5 12t2.5 12l46 173l-62 102l117 103l40 150l4.5 13t6.5 14q3 7 7.5 14t9.5 13q5 7 10.5 13.5t11.5 12.5l13 12.5l14 12.5q6 5 13 10
l14 10l15 8.5t15 7.5t15 6t14 5q7 1 14.5 2.5t14.5 1.5h178z" />
    <glyph glyph-name="braceright" unicode="}" horiz-adv-x="447" 
d="M119 718h178q6 0 13 -1.5t13 -2.5q7 -2 13 -5t11 -6t11 -7t10 -8q5 -4 9.5 -10l8.5 -11l6 -12l6 -12t5 -13t3 -14q1 -6 2 -13t1 -14q-1 -7 -1.5 -14t-1.5 -13l-41 -150l63 -103l-118 -102l-46 -173q-3 -12 -9 -24l-8 -11.5t-9 -10.5q-3 -5 -8 -11t-10 -11l-12 -10.5
l-12 -10.5l-14.5 -10l-14.5 -10q-8 -4 -16 -9t-16 -8q-9 -4 -19.5 -8t-20.5 -6q-9 -3 -19 -4.5t-18 -1.5h-160l29 108h91q3 0 8 1.5t9 2.5q5 1 10 4t9 6q3 3 7.5 6.5t7.5 8.5q3 4 5.5 8.5t3.5 8.5l44 165l118 102l-63 103l40 150q2 4 1.5 8t-0.5 8q-1 4 -3 8.5t-4 7.5t-5 6
t-6 5t-7 3.5t-8 1.5h-95z" />
    <glyph glyph-name="asciitilde" unicode="~" horiz-adv-x="555" 
d="M529 264l-25 -26t-21 -20l-18 -15.5t-16 -11.5q-7 -5 -14.5 -8t-14.5 -4q-7 -2 -15.5 -3t-17.5 -1q-6 0 -12.5 0.5t-11.5 2.5q-6 1 -12 3.5l-11 4.5t-11.5 5t-11.5 6l-11 6.5t-12 6.5l-11 6.5l-11 6.5t-11.5 6.5t-11.5 5.5t-11.5 4l-12.5 4q-6 1 -13 2.5t-14 1.5
q-4 0 -8 -1t-9 -2q-4 -2 -9.5 -4.5t-9.5 -4.5l-9 -6.5l-9 -6.5q-3 -3 -7.5 -7t-8.5 -7l-41 54q8 12 16.5 23t16.5 19l18 15.5t18 12.5t18 9.5t17 6.5q9 2 19 4t19 2q6 0 12 -1l12 -2l12 -4t11 -3q6 -2 12 -5t12 -5l11 -6.5l11 -6.5t11.5 -6t11.5 -6l11 -6.5t12 -5.5
q5 -2 11.5 -5t11.5 -4q6 -2 13 -3.5l12 -2.5h9.5t8.5 2q5 1 10 4t8 5q5 3 9.5 6.5l8.5 6.5t8.5 7t8.5 7z" />
    <glyph glyph-name="ellipsis" unicode="&#x2026;" horiz-adv-x="1033" 
d="M75 188h244l-50 -188h-244zM765 188h244l-50 -188h-244zM420 188h244l-50 -188h-244z" />
    <glyph glyph-name="dagger" unicode="&#x2020;" horiz-adv-x="660" 
d="M573 718l-67 -250h178l-34 -128h-178l-143 -534h-223l143 534h-179l34 128h182l67 250h220z" />
    <glyph glyph-name="daggerdbl" unicode="&#x2021;" horiz-adv-x="663" 
d="M573 718l-50 -188h178l-34 -127h-178l-66 -247h181l-36 -131h-181l-58 -219h-223l58 219h-178l35 131h179l66 247h-179l34 127h182l50 188h220z" />
    <glyph glyph-name="circumflex" unicode="&#x2c6;" horiz-adv-x="408" 
d="M98 596h-148l163 161h175l79 -161h-158l-29 82z" />
    <glyph glyph-name="OE" unicode="&#x152;" horiz-adv-x="1058" 
d="M1094 718l-32 -120h-266l-45 -167h257l-31 -117h-257l-52 -194h276l-32 -120h-792q-8 0 -15.5 0.5t-14.5 2.5q-8 1 -16 3.5t-15 5.5q-5 2 -11.5 5.5t-11.5 6.5q-5 4 -10 8.5t-10 9.5q-5 4 -9 10.5t-7 12.5q-2 7 -4.5 14.5t-4.5 15.5l-2 16.5t0 17.5t2.5 19t4.5 21l99 374
q3 10 7 20.5t8 19.5t9.5 18.5t10.5 16.5l12 16t12 14q7 7 14.5 13.5t14.5 11.5l13 9t13 8q7 4 14.5 7.5l13.5 6.5q9 3 18 5.5t18 4.5q9 1 18 2.5t17 1.5h786zM546 599h-156q-3 0 -6 -1.5t-6 -2.5t-6.5 -4t-6.5 -6t-5.5 -6.5l-4.5 -6.5t-4 -7t-3 -7l-106 -398q-1 -3 -1.5 -7
t0.5 -7q0 -4 2 -7.5t3 -6.5l4 -6t4 -4q3 -2 6 -3t6 -1h151z" />
    <glyph glyph-name="quoteleft" unicode="&#x2018;" horiz-adv-x="316" 
d="M255 390h-243l50 188l164 154h104l-113 -154h88z" />
    <glyph glyph-name="quoteright" unicode="&#x2019;" horiz-adv-x="316" 
d="M104 732h243l-50 -187l-164 -155h-103l113 155h-89z" />
    <glyph glyph-name="quotedblleft" unicode="&#x201c;" horiz-adv-x="627" 
d="M255 390h-243l50 188l164 154h104l-113 -154h88zM552 390h-243l50 188l164 154h104l-113 -154h88z" />
    <glyph glyph-name="quotedblright" unicode="&#x201d;" horiz-adv-x="627" 
d="M401 732h243l-50 -187l-164 -155h-103l113 155h-89zM104 732h243l-50 -187l-164 -155h-103l113 155h-89z" />
    <glyph glyph-name="bullet" unicode="&#x2022;" horiz-adv-x="443" 
d="M212 193q-17 0 -32.5 3.5t-28.5 9.5t-24.5 15t-20.5 20q-7 11 -13 24.5t-7 28.5q-3 15 -2 32t5 33t12 32.5t18 31.5q11 15 24 28.5t26 24.5q15 11 30.5 20.5t32.5 15.5t34.5 9.5t33.5 3.5q17 0 32.5 -3.5t28.5 -9.5t24.5 -15.5t18.5 -20.5q9 -11 14.5 -24t7.5 -28t1 -32
t-5 -33t-12 -32.5t-18 -31.5t-23 -29t-28 -25q-13 -11 -28.5 -20t-32.5 -15t-34.5 -9.5t-33.5 -3.5z" />
    <glyph glyph-name="endash" unicode="&#x2013;" horiz-adv-x="529" 
d="M24 319h63.5h61.5h61h61h61h61h62h63l-28 -105h-124h-123h-124h-122z" />
    <glyph glyph-name="emdash" unicode="&#x2014;" horiz-adv-x="1037" 
d="M24 319h125h122h121h121h121h121h123h124l-28 -105h-244.5h-244.5h-244h-244z" />
    <glyph glyph-name="tilde" unicode="&#x2dc;" horiz-adv-x="405" 
d="M276 710q7 0 13.5 2.5t12.5 8.5t12 14t11 17h82q-2 -6 -5.5 -13t-5.5 -13q-2 -7 -5.5 -14l-6.5 -13t-7 -12.5t-7 -12.5t-7 -12t-9 -11q-4 -5 -9.5 -10.5t-10.5 -9.5q-12 -9 -25 -15q-14 -6 -30 -9q-8 -2 -17 -3t-19 -1q-4 0 -9 0.5t-10 0.5l-10.5 2l-10.5 2t-10.5 2.5
t-10.5 3.5q-5 1 -9.5 3.5t-9.5 4.5q-4 1 -9.5 3.5t-9.5 3.5t-8.5 3t-7.5 4q-4 1 -8 2.5t-7 2.5t-6.5 2t-6.5 1q-4 0 -8 -1t-8 -3q-3 -2 -7.5 -5.5t-7.5 -6.5q-4 -4 -8 -8.5t-7 -8.5q-2 -4 -5 -8.5t-4 -8.5h-82l4 12.5t5 12.5q3 7 7 14t7 13l8.5 13t7.5 13l10 13.5t10 11.5
q6 6 12.5 11.5t11.5 10.5l13 9t13 8q7 4 14.5 7t13.5 5q6 1 14 2.5t15 1.5q21 0 40 -6q10 -3 19.5 -6.5t19.5 -6.5l18 -8t17 -7t16.5 -5.5t16.5 -2.5z" />
    <glyph glyph-name="trademark" unicode="&#x2122;" horiz-adv-x="1044" 
d="M510 719h195l10 -247l148 247h190l-116 -434h-149l93 346l-207 -345h-104l-18 341l-92 -341h-66zM82 719h377l-19 -72h-113l-97 -360h-151l97 360h-113z" />
    <glyph glyph-name="oe" unicode="&#x153;" horiz-adv-x="1048" 
d="M1028 374l-44 -167h-357l-17 -62q-1 -3 -1 -6v-5q0 -3 1 -6t2 -5q2 -4 5 -7.5t7 -5.5q3 -3 8 -4.5t9 -1.5h292l-28 -104h-824q-6 0 -11.5 0.5t-11.5 0.5q-5 1 -10 2.5t-9 3.5q-6 1 -10.5 4.5t-9.5 6.5q-4 3 -8 8l-7 9t-5 8.5t-4 9.5q-1 5 -2 11t-1 12t-0.5 12.5t0.5 12.5
q1 7 2.5 14t3.5 15l69 262q2 7 4.5 14.5t4.5 14.5l6.5 14.5l6.5 13.5l8 12t8 11q4 6 9 11l10 10q4 4 9.5 7.5l10.5 6.5t11 6t12 5q5 1 11.5 3t13.5 3q6 1 13.5 2t13.5 1h719q7 0 14 -1t13 -2l12 -4t11 -4q6 -3 10.5 -6.5t8.5 -7.5t8 -9l7 -9q3 -5 5.5 -11.5t3.5 -13.5
q2 -7 3.5 -14.5t1.5 -15.5v-13t-2 -13q-1 -7 -2.5 -14t-3.5 -15zM342 423q-3 0 -6.5 -0.5t-5.5 -1.5q-3 -1 -6.5 -3t-5.5 -4l-4.5 -4.5t-3.5 -4.5q-2 -2 -4 -5.5t-3 -6.5l-69 -260q-1 -3 -1 -6v-5l2 -6t2 -4q1 -2 3.5 -3.5t4.5 -2.5q3 -1 5.5 -1.5t5.5 -0.5h77q3 0 6 0.5
t6 1.5q2 1 5.5 2.5t5.5 3.5q2 1 4.5 4t4.5 5q1 3 2.5 6t2.5 6l70 260q0 3 0.5 6.5t0.5 5.5t-1.5 4.5t-2.5 4.5l-4 4t-4 3t-5 1.5t-5 0.5h-77zM652 309h130l22 83q1 2 1 5v6l-2 6t-3 5q-1 2 -3 4l-4 4q-4 3 -10 3h-71q-2 0 -5 -1l-6 -2l-6.5 -4.5t-5.5 -4.5l-5 -5t-4 -6
q-2 -3 -3.5 -6t-2.5 -6z" />
    <glyph glyph-name="Ydieresis" unicode="&#x178;" horiz-adv-x="795" 
d="M206 278l-144 440h295l98 -295l247 295h129l-378 -451l-72 -267h-250zM367 894h173l-39 -145h-173zM605 894h173l-39 -145h-173z" />
    <glyph glyph-name="exclamdown" unicode="&#xa1;" horiz-adv-x="315" 
d="M-38 0l79 301l74 185h197l-31 -199l-77 -287h-242zM345 527h-244l51 190h244z" />
    <glyph glyph-name="cent" unicode="&#xa2;" horiz-adv-x="528" 
d="M563 583l-24 -87h-203q-3 0 -6.5 -1t-7.5 -2q-3 -2 -7 -4t-7 -4t-6 -5l-6 -6q-2 -3 -4 -6.5t-3 -6.5l-53 -199q-1 -3 -0.5 -6.5t0.5 -5.5q1 -3 3 -6t3 -5q3 -2 5.5 -4.5t4.5 -3.5q3 -2 7 -2.5t7 -0.5h202l-24 -87h-168l-31 -116h-88l32 116h-72q-8 0 -16 0.5t-14 2.5
q-7 1 -13 4.5l-11 6.5t-9 6.5t-7 7.5q-4 4 -7 9.5t-5 9.5t-3.5 9t-1.5 10q-1 4 -2 10t-1 10q1 5 1.5 11t1.5 10q1 5 1.5 10.5t1.5 10.5l50 184q1 6 3.5 12t4.5 12t6 13t7 13t7.5 12t9.5 12q4 6 9.5 11.5t11.5 10.5q4 4 9.5 8t11.5 7l11 6.5t13 5.5q5 1 10 2.5t10 2.5
t10.5 1.5t11.5 0.5h79l29 112h88l-30 -112h168z" />
    <glyph glyph-name="sterling" unicode="&#xa3;" horiz-adv-x="669" 
d="M125 593q1 5 3 11t3 11q3 5 5.5 11l4.5 11l6.5 11t6.5 10t7.5 9t8.5 10q4 4 9.5 8.5t10.5 7.5q6 4 12.5 7.5t13.5 5.5l14 4t15 4q8 1 17.5 2t18.5 1h317q4 0 9.5 -1t9.5 -2q4 -2 8.5 -4t8.5 -4q4 -3 8 -6.5t7 -6.5q4 -4 7 -8.5t5 -8.5q2 -5 4.5 -10.5t3.5 -9.5
q2 -5 3.5 -10.5t1.5 -9.5q1 -5 1.5 -11t-0.5 -11q0 -5 -1 -10.5l-2 -10.5l-21 -77h-186l14 51v4v5q-1 2 -2 4.5t-3 4.5l-4.5 4.5t-5.5 4.5q-4 1 -7.5 2.5t-7.5 1.5h-33q-3 0 -7 -0.5t-8 -1.5l-8 -4t-7 -4q-2 -2 -5 -4.5t-4 -4.5q-2 -3 -3.5 -6t-2.5 -6l-44 -164h51l-24 -88
h-51l-53 -198h323l-31 -116h-575l82 311h-51l24 91h52z" />
    <glyph glyph-name="yen" unicode="&#xa5;" horiz-adv-x="811" 
d="M64 291h175l-28 87h-125l25 94l69 -1l-82 247h296l100 -295l246 295h129l-208 -248l73 1l-25 -94h-126l-73 -87h176l-24 -91h-190l-53 -199h-250l53 199h-183z" />
    <glyph glyph-name="section" unicode="&#xa7;" horiz-adv-x="649" 
d="M715 718l-28 -103h-333q-2 0 -4.5 -0.5t-4.5 -0.5q-3 -1 -6.5 -2.5t-6.5 -2.5q-1 -1 -3.5 -3t-4.5 -3q-2 -2 -3.5 -4.5t-2.5 -4.5l-12 -47q-1 -3 -1 -6v-5q1 -2 2 -5t2 -4q1 -2 3.5 -3t3.5 -2q2 -1 4.5 -1.5t4.5 -0.5h246q5 0 10.5 -0.5t11.5 -1.5t11.5 -2.5t10.5 -2.5
q5 -2 9.5 -4.5t8.5 -5.5l8.5 -6.5t7.5 -7.5q5 -6 8.5 -14.5t5.5 -17.5q3 -20 -4 -47l-37 -137q-1 -5 -3 -10.5t-3 -10.5l-4.5 -11t-4.5 -10q-2 -5 -5.5 -10.5t-5.5 -9.5q-3 -5 -7 -10.5t-9 -9.5q-5 -5 -11 -10t-13 -9q-6 -4 -14.5 -9t-16.5 -8q8 -4 14 -10t10 -11
q5 -6 8.5 -12.5t5.5 -12.5q3 -6 4 -13t0 -14q0 -8 -1 -15.5t-3 -14.5l-34 -125q-3 -13 -8.5 -26t-13.5 -24q-7 -11 -16.5 -21l-17.5 -18q-10 -8 -20.5 -14.5t-20.5 -11.5q-11 -4 -22 -6.5t-22 -2.5h-416l28 103h330q1 0 4 0.5t5 1.5q4 1 7 2t5 2q2 2 4.5 4t4.5 3
q2 2 3.5 4.5t1.5 3.5l19 71q1 2 1 3t-1 3q-1 1 -2.5 3t-2.5 4q-1 1 -2.5 3t-3.5 2q-3 1 -5.5 1.5t-3.5 0.5h-248q-11 0 -21.5 2.5t-20.5 6.5t-18.5 11t-14.5 15q-11 15 -14 36q-2 10 -1 22.5t4 26.5l40 150l6.5 17t8.5 18t12 17.5l14 16.5q6 6 12.5 11t13.5 9t16 7t17 5
q-5 1 -11 3.5t-11 5.5t-9.5 6.5t-7.5 7.5q-5 5 -8 11.5t-5 13.5t-2 14t2 15l39 145q3 10 7.5 20.5t11.5 19.5q6 9 13.5 17t15.5 15q5 4 11 8t11 7l12.5 6t11.5 5l12.5 4t11.5 3t11 1.5t11 0.5h418zM273 327q-2 0 -5 -0.5t-5 -1.5l-5 -2.5l-5 -2.5l-4.5 -4.5t-3.5 -4.5
q-2 -2 -3.5 -5t-1.5 -6l-17 -62q-1 -3 -1 -6v-4q0 -2 1.5 -5t2.5 -4q1 -2 2.5 -3.5t3.5 -2.5t5 -1.5t5 -0.5h171q3 0 6 0.5t5 1.5q3 1 5.5 2t4.5 3q2 1 4.5 4t3.5 5l2.5 5t2.5 6l17 62q0 3 0.5 5.5t-0.5 4.5q0 2 -0.5 4.5t-1.5 4.5q-1 1 -3.5 3t-4.5 3t-4.5 1.5t-5.5 0.5
h-171z" />
    <glyph glyph-name="dieresis" unicode="&#xa8;" horiz-adv-x="402" 
d="M364 601h-177l39 145h176zM129 601h-174l38 145h174z" />
    <glyph glyph-name="copyright" unicode="&#xa9;" horiz-adv-x="789" 
d="M573 532l-15 -57h-130q-2 0 -3.5 -0.5t-2.5 -0.5l-4 -2t-3 -2q-2 -2 -4 -3.5t-2 -2.5q-1 -2 -2 -3.5t-2 -2.5l-52 -195v-3.5v-2.5q1 -2 2 -3.5t2 -2.5q0 -1 1.5 -2t2.5 -1q1 -1 3 -1.5t4 -0.5h134l-16 -57h-201q-7 0 -14.5 2t-14.5 5q-2 1 -4.5 3.5t-5.5 4.5q-5 5 -8 11
q-1 2 -2 5l-2 6t-1.5 7t-0.5 8v7t1 7q1 4 1.5 8t1.5 9l48 176q2 7 5.5 15t7.5 16q2 4 4.5 8l4.5 7t5.5 6.5l6.5 6.5l11 8.5t12 7.5q16 9 31 9h201zM343 116q12 0 24.5 1.5t25.5 3.5t25 5.5t24 8.5q11 4 23.5 10.5l23.5 12.5t23 14t22 16q10 7 20.5 16.5t18.5 18.5
q9 10 17.5 20.5t16.5 21.5q7 10 14 22t13 24l10 24.5t8 24.5t5 24.5t3 24.5t0.5 23.5t-1.5 22.5q-2 11 -5.5 21.5t-7.5 19.5q-3 10 -8.5 19t-11.5 17t-13.5 16t-14.5 14q-8 7 -16.5 13t-18.5 10q-9 4 -20 8t-22 6t-23.5 3.5t-24.5 1.5t-25 -1.5t-25 -3.5q-13 -2 -25.5 -6
l-24.5 -8t-24 -10l-23 -12l-22.5 -15l-22.5 -16l-19.5 -17t-18.5 -18q-10 -10 -18.5 -20.5t-16.5 -21.5q-7 -11 -13.5 -22.5t-12.5 -23.5l-10 -24.5t-8 -24.5t-5 -24.5t-3 -24.5t-0.5 -24t2.5 -22q1 -11 4 -21.5t7 -19.5q4 -10 9.5 -19.5t10.5 -16.5q6 -8 13.5 -16t14.5 -14
q8 -6 17.5 -12t18.5 -10q9 -5 19.5 -9t21.5 -6t23.5 -3.5t25.5 -1.5zM316 20q-17 0 -33.5 2t-32.5 5t-31 8.5t-29 11.5q-13 6 -25.5 14t-24.5 17q-11 9 -21 20t-18 22q-9 12 -16 24.5t-13 26.5q-5 13 -9.5 28t-6.5 30t-3 32t0 33q2 16 4.5 34t7.5 35q4 17 11 34.5l14 34.5
q8 16 18 32.5l19 31.5q11 15 23 29.5t25 28.5l27 26.5t29 24.5q14 12 29.5 22.5t31.5 19.5t33.5 17.5t33.5 14.5q17 6 35 11.5t35 8.5t35 5t36 2t34.5 -2t32.5 -5t31 -8.5t28 -11.5q14 -6 26.5 -14t23.5 -17t21.5 -20t18.5 -23q8 -11 15 -24t12 -26q6 -14 10.5 -28.5
t6.5 -29.5q3 -15 4 -32t-1 -33q-1 -17 -4 -34.5t-7 -34.5q-5 -17 -11.5 -35t-14.5 -34q-7 -16 -17 -32.5l-20 -31.5t-22.5 -30t-24.5 -28q-13 -14 -27.5 -27l-28.5 -25l-30.5 -21.5t-31.5 -19.5t-33 -17.5t-34 -14.5q-16 -6 -34 -11.5t-35 -8.5t-35.5 -5t-36.5 -2z" />
    <glyph glyph-name="registered" unicode="&#xae;" horiz-adv-x="789" 
d="M316 20q-17 0 -33.5 2t-32.5 5t-31 8.5t-29 11.5q-13 6 -25.5 14t-24.5 17q-11 9 -21 20t-18 22q-9 12 -16 24.5t-13 26.5q-5 13 -9.5 28t-6.5 30t-3 32t0 33q2 16 4.5 34t7.5 35q4 17 11 34.5l14 34.5q8 16 18 32.5l19 31.5q11 15 23 29.5t25 28.5l27 26.5t29 24.5
q14 12 29.5 22.5t31.5 19.5t33.5 17.5t34.5 14.5q16 6 34 11.5t35 8.5t35 5t36 2t34.5 -2t32.5 -5t31 -8.5t28 -11.5q14 -6 26.5 -14t23.5 -17t21.5 -20t18.5 -23q8 -11 15 -24t12 -26q6 -14 10.5 -28.5t6.5 -29.5t3.5 -32t-0.5 -33q-1 -17 -4 -34.5t-7 -34.5
q-5 -17 -11.5 -35t-14.5 -34q-7 -16 -17 -32.5l-20 -31.5t-22.5 -30t-24.5 -28q-13 -14 -27.5 -27l-28.5 -25l-30.5 -21.5t-31.5 -19.5t-33 -17.5t-34 -14.5q-16 -6 -34 -11.5t-35 -8.5q-18 -3 -36 -5t-36 -2zM343 119q12 0 25 1.5t25 3.5q13 2 25.5 6l24.5 8
q11 4 23.5 10.5l23.5 12.5t22.5 14l22.5 16q9 7 19.5 16.5t18.5 18.5l18 20.5t16 21.5q8 10 14.5 22l12.5 24l10 24.5t8 24.5t5 24.5t3 24.5t0.5 23.5t-2.5 22.5q-1 10 -4 21t-7 20q-4 10 -9.5 19l-10.5 17q-6 8 -13.5 16t-14.5 14q-8 6 -17.5 11.5l-18.5 10.5l-20 8.5
t-21 6.5q-12 2 -24 3.5t-25 1.5q-12 0 -24.5 -1.5t-25.5 -3.5t-25 -6l-24 -8q-12 -5 -24 -11l-23 -12t-23 -14t-22 -16l-20.5 -17t-19.5 -18l-16.5 -21l-16.5 -21l-14.5 -22.5t-12.5 -23.5l-10 -24.5t-8 -24.5t-5 -24.5t-3 -24.5t-0.5 -24t1.5 -22q2 -11 5.5 -21.5
l6.5 -19.5q4 -10 9.5 -19.5t11.5 -16.5q6 -8 13 -16t15 -14t17 -12t18 -10q9 -5 19.5 -9t22.5 -6q11 -2 23.5 -3.5t24.5 -1.5zM304 533h221q9 0 16 -1.5t11 -2.5q6 -2 10 -6.5t5 -8.5q3 -5 4 -11t1 -14q-1 -3 -1 -6.5t-1 -6.5t-1.5 -7t-1.5 -8l-19 -70q0 -2 -1 -5t-1 -5
l-2.5 -5l-2.5 -5t-2 -5t-2 -4q-2 -2 -4 -5t-4 -4q-2 -3 -6 -5q-2 -2 -4.5 -3t-3.5 -2q-2 0 -5 -1t-5 -1t-5.5 -0.5t-6.5 -0.5l19 -147h-114l-9 147h-33l-40 -147h-103zM393 477l-21 -80h64q3 0 5.5 1t4.5 3q0 1 1 2t1 3q1 1 2 3t1 4l14 52q1 1 0.5 2.5t0.5 2.5q0 1 -1 2.5
t-1 2.5l-1 0.5t-2 0.5t-2.5 0.5t-2.5 0.5h-63z" />
    <glyph glyph-name="acute" unicode="&#xb4;" horiz-adv-x="308" 
d="M316 760l-219 -164h-157l206 164h170z" />
    <glyph glyph-name="paragraph" unicode="&#xb6;" horiz-adv-x="583" 
d="M679 720l-245 -914h-119l138 514h-99l-139 -517h-122l139 517q-23 0 -44.5 2.5t-39.5 8.5q-20 6 -35.5 16t-26.5 22q-12 12 -20 28t-11 35q-8 39 6 90q6 25 16 47t22 40q13 19 28.5 34.5t32.5 27.5q16 12 35.5 21.5t40.5 15.5t42.5 9t43.5 3h357z" />
    <glyph glyph-name="periodcentered" unicode="&#xb7;" horiz-adv-x="354" 
d="M234 276q-8 0 -16 1.5t-15 4.5q-6 3 -11.5 8t-9.5 11q-3 5 -6 11.5t-4 14.5t-0.5 16t2.5 16q4 17 15 32q5 8 11.5 14.5t13.5 11.5q6 5 14 9.5t16 7.5t17 5t17 2t16 -1.5t14 -4.5q7 -3 12.5 -8t9.5 -10q3 -5 6 -11.5t4 -14.5t0.5 -16t-2.5 -16t-6 -16t-9 -16t-11.5 -14.5
t-13.5 -11.5q-6 -6 -14 -10.5t-16 -7.5q-9 -3 -17.5 -5t-16.5 -2z" />
    <glyph glyph-name="periodcentered" unicode="&#x2219;" horiz-adv-x="354" 
d="M234 276q-8 0 -16 1.5t-15 4.5q-6 3 -11.5 8t-9.5 11q-3 5 -6 11.5t-4 14.5t-0.5 16t2.5 16q4 17 15 32q5 8 11.5 14.5t13.5 11.5q6 5 14 9.5t16 7.5t17 5t17 2t16 -1.5t14 -4.5q7 -3 12.5 -8t9.5 -10q3 -5 6 -11.5t4 -14.5t0.5 -16t-2.5 -16t-6 -16t-9 -16t-11.5 -14.5
t-13.5 -11.5q-6 -6 -14 -10.5t-16 -7.5q-9 -3 -17.5 -5t-16.5 -2z" />
    <glyph glyph-name="cedilla" unicode="&#xb8;" horiz-adv-x="300" 
d="M44 -265l11 40h94q1 0 3 0.5t3 0.5q2 1 4 2.5t4 2.5q1 1 3 2.5t2 2.5q1 1 2 3t2 3l24 92q1 1 0.5 2.5t-1.5 2.5q0 2 -1 3t-1 2q-1 2 -2.5 3t-2.5 1q-2 0 -3 0.5t-3 0.5h-94l11 41h24l53 60h69l-52 -61h58q4 0 7.5 -0.5t6.5 -0.5q2 -1 5.5 -2t4.5 -3q3 -1 5.5 -2.5
t3.5 -3.5q1 -1 2.5 -4l2.5 -5q2 -4 2.5 -8.5t0.5 -9.5q0 -4 -1 -9.5l-2 -10.5l-22 -84l-2 -6l-2 -6q0 -3 -2 -6l-4 -6q-1 -2 -3 -5t-5 -5q-2 -3 -4.5 -6t-4.5 -5q-2 -1 -5 -3t-5 -4l-5 -2.5t-7 -2.5q-1 -1 -4 -2t-4 -1q-3 0 -5.5 -0.5t-5.5 -0.5h-155z" />
    <glyph glyph-name="onequarter" unicode="&#xbc;" horiz-adv-x="1195" 
d="M881 718l-566 -718h-141l563 718h144zM345 718l-115 -429h-148l80 298h-55l20 76l183 55h35zM1090 429l-60 -221h69l-30 -112h-69l-26 -96h-145l26 96h-264l28 106l297 227h174zM922 352l-191 -142h153z" />
    <glyph glyph-name="onehalf" unicode="&#xbd;" horiz-adv-x="1195" 
d="M345 718l-115 -429h-148l80 298h-55l21 76l182 55h35zM881 718l-566 -718h-141l563 718h144zM758 430l-19 -71h234q1 0 2 -0.5t3 -0.5q1 0 2.5 -0.5t3.5 -0.5l1 -1l2 -2q1 -2 0 -5l-11 -42q0 -2 -1 -3.5t-3 -2.5q-1 -2 -2.5 -3t-2.5 -2q-2 -1 -3.5 -2.5t-3.5 -2.5
q-2 0 -3.5 -0.5t-2.5 -0.5l-188 -10q-3 0 -7 -0.5t-8 -1.5q-3 0 -6 -1t-5 -2q-4 -1 -8 -3.5l-7 -4.5q-2 -2 -5 -4.5t-5 -4.5t-4.5 -5t-4.5 -6q-1 -3 -3 -6t-3 -6l-4 -8t-3 -8t-2.5 -8t-2.5 -8l-54 -203h397l19 71h-248l16 61q1 3 2.5 6t3.5 5q1 1 3.5 3t4.5 4q2 1 4.5 2
t5.5 1q2 0 5 0.5t6 0.5l174 9q3 0 7 0.5t7 2.5q4 1 8 2.5t7 3.5q3 1 6 3l6 4q2 1 4.5 4t4.5 5q2 1 4 4t5 5q2 2 4 5t3 6q1 2 3 5t3 6q0 3 1.5 6.5t2.5 6.5l31 115q1 4 1.5 8t1.5 8t1 8t-1 7q0 4 -1 8t-3 8q0 3 -2 6.5t-4 5.5q-3 3 -5.5 6t-5.5 5q-4 2 -7.5 4t-7.5 4
q-4 1 -8 2.5t-8 1.5q-5 0 -9 0.5t-8 0.5h-310z" />
    <glyph glyph-name="threequarters" unicode="&#xbe;" horiz-adv-x="1195" 
d="M922 352l-191 -142h153zM1090 429l-59 -221h68l-30 -112h-69l-26 -96h-145l26 96h-264l28 106l297 227h174zM881 718l-566 -718h-141l563 718h144zM71 647l19 70h291h8h8t8 -1l8 -2t7.5 -2.5t6.5 -2.5q3 -2 6 -4.5t5 -4.5t4 -4.5t3 -4.5q2 -2 3 -5.5t2 -6.5
q0 -3 0.5 -6.5t-0.5 -7.5q0 -4 -1 -9t-2 -9l-24 -90q-1 -5 -4 -10t-5 -9q-3 -4 -7.5 -7.5t-9.5 -6.5l-7 -4.5t-8 -3.5l-9 -4.5t-10 -3.5q5 -1 9.5 -3t7.5 -4q4 -2 7 -5.5t4 -7.5q3 -3 4 -7.5t1 -8.5v-10.5t-1 -10.5l-26 -96q-1 -4 -2.5 -7.5t-2.5 -6.5t-3.5 -6.5t-3.5 -6.5
q-4 -5 -9 -10.5t-10 -9.5q-2 -2 -5.5 -4.5t-6.5 -3.5q-3 -2 -6.5 -3.5t-5.5 -2.5q-7 -2 -14 -3.5t-13 -1.5h-310l19 71h210q2 0 3.5 0.5l1.5 0.5q4 2 7 5q2 1 3.5 2t1.5 3q1 1 1.5 2.5t0.5 2.5l23 82q0 1 -0.5 2t0.5 2q-1 1 -2 2.5t-1 2.5q-2 0 -3 1t-2 1q-1 1 -2.5 1.5
t-2.5 0.5h-149l19 70h148q1 0 2.5 0.5t2.5 0.5t3 1l4 2q1 1 2.5 2t1.5 2l2 2t1 3l21 79q1 1 0.5 2.5t0.5 2.5q-1 1 -1.5 2.5t-1.5 2.5l-2 2t-2 1q-2 0 -3 0.5t-3 0.5h-210z" />
    <glyph glyph-name="questiondown" unicode="&#xbf;" horiz-adv-x="708" 
d="M579 0h-507q-6 0 -11.5 0.5t-11.5 2.5q-5 1 -10.5 3.5t-9.5 4.5q-6 2 -10.5 5.5l-8.5 6.5l-8 8l-8 8q-3 4 -6 9l-6 10t-5 10.5t-3 10.5q-2 5 -2.5 11t-0.5 11v12t2 12l35 136q2 4 4 9.5l4 10.5l6.5 11t7.5 11q2 4 6.5 9.5l8.5 10.5q4 4 9 9.5t10 9.5q4 4 9.5 8.5
t11.5 7.5q5 4 10.5 7.5t10.5 5.5q5 3 11 5l12 4q4 1 10 2t10 1h105q3 0 7.5 0.5t8.5 1.5q5 1 9.5 3t8.5 4l7.5 5t7.5 6t5.5 7t2.5 7l18 65h251l-28 -105q-2 -4 -3.5 -9.5t-3.5 -9.5q-2 -5 -5.5 -10.5t-6.5 -9.5q-2 -4 -6.5 -10l-7.5 -10q-4 -5 -9 -9.5t-9 -8.5t-9 -8t-10 -7
q-5 -4 -10 -7.5t-10 -5.5t-10 -4.5t-10 -3.5q-5 -2 -10 -2.5t-9 -0.5h-125q-3 0 -7 -0.5t-7 -1.5q-3 -2 -7.5 -4t-7.5 -4l-6.5 -4.5t-5.5 -4.5q-3 -3 -5 -6t-3 -6l-26 -100q-1 -3 -0.5 -6t1.5 -5t3 -5t5 -4q3 -2 6.5 -3.5t5.5 -2.5q3 -1 7 -1.5t7 -0.5h348zM593 530h-243
l50 188h243z" />
    <glyph glyph-name="Agrave" unicode="&#xc0;" horiz-adv-x="880" 
d="M638 715l80 -715h-268l-23 190h-291l-137 -190h-121l509 715h251zM386 554l-165 -244h197zM361 902h170l119 -165h-159z" />
    <glyph glyph-name="Aacute" unicode="&#xc1;" horiz-adv-x="880" 
d="M386 554l-165 -244h197zM638 715l80 -715h-268l-23 190h-291l-137 -190h-121l509 715h251zM763 902l-221 -165h-159l210 165h170z" />
    <glyph glyph-name="Acircumflex" unicode="&#xc2;" horiz-adv-x="880" 
d="M638 715l80 -715h-268l-23 190h-291l-137 -190h-121l509 715h251zM386 554l-165 -244h197zM460 740h-150l166 162h175l78 -162h-159l-29 83z" />
    <glyph glyph-name="Atilde" unicode="&#xc3;" horiz-adv-x="880" 
d="M387 554l-165 -244h197zM638 715l81 -715h-268l-23 190h-291l-137 -190h-121l508 715h251zM629 854q6 0 12.5 2.5t12.5 8.5q7 6 13 14t11 18h82q-2 -6 -5 -13t-5 -13q-2 -7 -5.5 -14l-6.5 -13t-7 -12.5t-7 -12.5l-8.5 -12.5t-8.5 -10.5q-4 -5 -9.5 -10.5t-10.5 -9.5
q-6 -5 -12 -8.5t-12 -6.5l-14.5 -6t-15.5 -4q-8 -2 -17.5 -3t-18.5 -1q-5 0 -10.5 0.5t-10.5 0.5l-10 2t-10 3l-9.5 2.5t-10.5 3.5q-5 1 -10 3l-10 4q-5 1 -10 4t-9 4t-8.5 3t-7.5 4q-4 1 -8 2.5t-7 2.5t-6.5 1.5t-5.5 0.5q-4 0 -8.5 -1t-7.5 -2q-4 -2 -8 -5.5t-7 -6.5
q-4 -4 -8 -8.5t-7 -8.5q-2 -4 -5.5 -8.5t-4.5 -8.5h-84q1 6 4 12.5t5 12.5q4 6 7.5 13l6.5 13q4 7 8.5 14t9.5 13q4 6 10 12.5t11 12.5l12 11.5l11 10.5l13 9t13 8q7 4 14.5 7t13.5 5q7 1 15 2.5t15 1.5q10 0 20 -1.5t19 -4.5q10 -3 20 -6.5t19 -7.5t18.5 -7.5l17.5 -6.5
t16 -5.5t16 -3.5z" />
    <glyph glyph-name="Adieresis" unicode="&#xc4;" horiz-adv-x="880" 
d="M389 554l-166 -244h197zM640 715l80 -715h-268l-23 190h-291l-138 -190h-120l509 715h251zM723 740h-175l38 145h175zM488 740h-176l38 145h176z" />
    <glyph glyph-name="Aring" unicode="&#xc5;" horiz-adv-x="880" 
d="M635 715l80 -715h-268l-23 190h-291l-137 -190h-120l508 715h251zM384 554l-165 -244h197zM528 789q4 0 8.5 0.5t8.5 2.5q4 1 8 3.5t8 5.5t7 6.5t5 6.5q3 4 5 8t3 9q1 4 1.5 8.5t-0.5 7.5q0 4 -1.5 7.5t-3.5 6.5t-5 5l-6 4q-3 1 -7 2.5t-8 1.5q-5 0 -9.5 -1t-8.5 -2
q-4 -2 -8.5 -4.5t-7.5 -5.5q-4 -3 -7 -6.5t-5 -6.5q-3 -4 -5.5 -8.5t-3.5 -8.5q-1 -5 -1.5 -9t0.5 -7q0 -4 1.5 -7.5t3.5 -6.5t5 -5.5t6 -3.5q4 -2 8 -2.5t9 -0.5zM515 740q-9 0 -18 2t-16 5q-7 4 -13 9t-10 11q-5 6 -8.5 13t-4.5 15q0 8 0.5 17.5t2.5 18.5t6.5 18.5
t9.5 16.5q6 8 13 15.5t14 13.5q8 6 17 11.5t18 8.5t18.5 5t18.5 2t17.5 -2t15.5 -5q8 -3 14 -8t10 -11q5 -6 8 -14t4 -15q1 -8 0.5 -17.5t-2.5 -18.5t-6.5 -18t-9.5 -17q-6 -8 -13 -15.5t-15 -13.5t-16.5 -11t-17.5 -8q-9 -4 -18.5 -6t-18.5 -2z" />
    <glyph glyph-name="AE" unicode="&#xc6;" horiz-adv-x="1052" 
d="M459 717h632l-31 -116h-300l-46 -172h292l-31 -117h-292l-53 -195h307l-31 -116h-560l52 189h-244l-147 -190h-134zM430 309l84 315l-274 -315h190z" />
    <glyph glyph-name="Ccedilla" unicode="&#xc7;" horiz-adv-x="645" 
d="M737 719l-32 -118h-274q-6 0 -12 -3q-4 -2 -8 -4.5l-7 -4.5q-8 -6 -12 -12q-2 -3 -4 -6.5t-3 -6.5l-110 -410q-1 -6 0 -12q1 -3 3 -6.5t4 -5.5t5 -4.5t6 -3.5q3 -2 6.5 -2.5t6.5 -0.5h280l-32 -119h-225l-51 -60h62q4 0 8.5 -1.5t8.5 -3.5t7 -5.5t5 -7.5t4 -9.5t3 -10.5
v-11.5t-1 -10.5l-23 -86q-1 -4 -4 -10t-6 -11t-7.5 -10t-8.5 -10q-4 -4 -8.5 -7.5t-9.5 -5.5q-4 -2 -8.5 -3.5t-9.5 -1.5h-161l11 40h98l1.5 0.5t2.5 0.5q2 1 3.5 2t2.5 2t2.5 2t1.5 2q1 2 2 3t1 2l26 97q1 2 0.5 3t-0.5 2l-1.5 3t-1.5 2q-1 0 -2.5 1t-2.5 1q-2 0 -4 0.5
t-3 0.5h-92l10 41h24l51 60h-127q-8 0 -16.5 0.5t-15.5 2.5q-8 1 -15 4.5t-14 6.5q-5 3 -10.5 7t-10.5 9q-5 4 -9.5 10.5t-7.5 12.5l-4.5 11.5t-3.5 13.5q-2 7 -3 14.5t-1 15.5q1 7 1 14.5t1 15.5t2.5 16.5t3.5 17.5l99 370l6 18t6 16t7 15l8 16l10.5 16.5t10.5 15.5
l12.5 14l12.5 13l11.5 10l11.5 10l12.5 8t12.5 7q8 4 16.5 7.5t15.5 5.5q9 2 18 3.5t17 1.5h421z" />
    <glyph glyph-name="Egrave" unicode="&#xc8;" horiz-adv-x="642" 
d="M123 717h553l-31 -116h-300l-46 -172h292l-32 -117h-292l-52 -195h307l-31 -116h-559zM290 905h170l121 -165h-159z" />
    <glyph glyph-name="Eacute" unicode="&#xc9;" horiz-adv-x="642" 
d="M123 717h553l-31 -116h-300l-46 -172h292l-32 -117h-292l-52 -195h307l-31 -116h-559zM625 905l-220 -165h-159l209 165h170z" />
    <glyph glyph-name="Ecircumflex" unicode="&#xca;" horiz-adv-x="642" 
d="M123 717h553l-31 -116h-300l-46 -172h292l-31 -117h-292l-53 -195h307l-31 -116h-559zM361 740h-150l166 162h175l78 -162h-158l-29 83z" />
    <glyph glyph-name="Edieresis" unicode="&#xcb;" horiz-adv-x="642" 
d="M125 717h553l-31 -116h-300l-46 -172h292l-31 -117h-292l-52 -195h307l-31 -116h-559zM612 740h-175l38 145h175zM378 740h-176l38 145h176z" />
    <glyph glyph-name="Igrave" unicode="&#xcc;" horiz-adv-x="391" 
d="M141 715l253 2l-192 -717h-251zM160 905h170l120 -165h-159z" />
    <glyph glyph-name="Iacute" unicode="&#xcd;" horiz-adv-x="391" 
d="M141 715l253 2l-192 -717h-251zM494 905l-219 -165h-159l208 165h170z" />
    <glyph glyph-name="Icircumflex" unicode="&#xce;" horiz-adv-x="429" 
d="M142 715l252 2l-192 -717h-251zM217 740h-148l164 162h175l78 -162h-159l-28 83z" />
    <glyph glyph-name="Idieresis" unicode="&#xcf;" horiz-adv-x="422" 
d="M144 715l252 2l-192 -717h-251zM482 740h-175l38 145h175zM248 740h-175l39 145h174z" />
    <glyph glyph-name="Eth" unicode="&#xd0;" horiz-adv-x="769" 
d="M148 717h518q7 0 14.5 -0.5t13.5 -1.5q8 -1 14.5 -3t13.5 -3q8 -2 15.5 -6.5l14.5 -8.5q7 -5 13 -11t10 -13q3 -5 6.5 -12t4.5 -14q3 -7 4.5 -15.5t1.5 -17.5q-1 -7 -1 -15t-1 -15q-1 -8 -2.5 -17t-4.5 -18l-99 -372l-6 -18t-6 -17t-7 -16t-7 -15q-5 -9 -10.5 -17
l-10.5 -15t-12 -14t-13 -12q-6 -6 -13 -11.5t-14 -9.5q-8 -5 -15.5 -8.5t-14.5 -5.5q-10 -4 -20.5 -7t-19.5 -4q-9 -2 -19.5 -2.5t-19.5 -0.5h-519l82 310h-61l31 119h62zM369 599l-45 -168h96l-32 -120h-96l-52 -194h146q3 0 6.5 1.5t5.5 2.5q4 1 7.5 4t5.5 6q2 2 5 5.5
t4 6.5q3 3 4.5 6.5t2.5 6.5l111 415v5t-1 5q0 2 -1.5 4.5t-3.5 4.5q-1 1 -3.5 3t-4.5 3q-6 3 -11 3h-144z" />
    <glyph glyph-name="Ntilde" unicode="&#xd1;" horiz-adv-x="803" 
d="M126 718h327l115 -586l157 586h112l-192 -716h-327l-116 597l-160 -597h-107zM603 854q7 0 13.5 2.5t12.5 8.5t12.5 14t11.5 18h82q-3 -6 -6 -13t-5 -13l-6 -14t-6 -13l-6.5 -12.5l-6.5 -12.5l-8.5 -12.5t-8.5 -10.5l-10.5 -10.5t-10.5 -9.5q-11 -9 -25 -15
q-6 -3 -13.5 -6t-15.5 -4q-8 -2 -17 -3t-19 -1q-4 0 -9.5 0.5t-10.5 0.5l-10.5 2t-10.5 3q-5 1 -10 2.5t-10 3.5q-5 1 -10 3t-9 4q-5 1 -10 4t-9 4t-8.5 3t-7.5 4q-4 1 -8 2.5t-7 2.5q-4 1 -7 1.5t-6 0.5q-4 0 -8.5 -1t-7.5 -2q-4 -2 -8 -5.5t-8 -6.5q-3 -4 -7 -8.5t-7 -8.5
t-6 -8.5t-4 -8.5h-84q2 6 5 12.5t5 12.5t6 13t7 13q4 7 9 14l9 13l10.5 12.5l10.5 12.5t11.5 11.5l12.5 10.5l13 9t12 8q7 4 14.5 7t14.5 5q6 1 13.5 2.5t15.5 1.5q21 0 40 -6q10 -3 19.5 -6.5t18.5 -7.5l18.5 -7.5t17.5 -6.5q8 -3 16.5 -5.5t15.5 -3.5z" />
    <glyph glyph-name="Ograve" unicode="&#xd2;" horiz-adv-x="793" 
d="M276 718h391q18 0 34 -3q9 -2 16.5 -4.5t13.5 -5.5q7 -3 14 -7.5t12 -8.5q5 -5 10 -12.5t8 -14.5t5.5 -15t3.5 -17q2 -9 2.5 -20t-0.5 -22q0 -7 -1.5 -16t-3.5 -18t-4 -19.5t-5 -20.5l-82 -308q-3 -11 -6.5 -22t-7.5 -21q-3 -10 -7.5 -19.5l-8.5 -18.5q-4 -11 -10 -20.5
l-12 -18.5l-14 -17.5l-13 -15.5q-11 -11 -24 -20t-25 -15q-8 -4 -17 -7.5t-18 -4.5t-18.5 -2.5t-19.5 -1.5h-420q-8 0 -16 0.5t-14 2.5q-7 1 -13.5 4t-11.5 6q-7 4 -13 9t-10 11q-5 6 -9 12.5t-7 14.5q-2 6 -4 13t-3 14t-2 15t0 16v14.5t2 15.5q1 7 2.5 14.5t2.5 14.5
l94 354l6.5 21l6.5 20q4 9 8.5 18l8.5 17q4 9 10 17t11 16t11.5 14.5t12.5 11.5q6 6 13 11l14 10l14.5 8t14.5 7q9 3 19 5.5t20 4.5q9 1 19.5 2.5t19.5 1.5zM379 599q-5 0 -9.5 -1t-8.5 -2q-4 -2 -8.5 -4.5t-7.5 -4.5q-4 -3 -8 -7.5t-7 -8.5q-2 -5 -4.5 -10l-4.5 -9
l-106 -397q-1 -3 -0.5 -6.5t0.5 -6.5q1 -3 3 -6.5t3 -5.5q3 -2 6 -4.5t5 -3.5q3 -2 6.5 -3t6.5 -1h134q3 0 7 1t7 3q4 1 8 4t7 6q3 2 6 5.5t5 6.5t4 7t3 7l108 403q1 3 1 7v7q-1 3 -2.5 6.5t-3.5 5.5l-4.5 4.5t-5.5 3.5t-6 2.5t-6 1.5h-128zM346 905h171l120 -165h-159z" />
    <glyph glyph-name="Oacute" unicode="&#xd3;" horiz-adv-x="793" 
d="M379 599q-5 0 -9.5 -1t-8.5 -2q-4 -2 -8.5 -4.5t-7.5 -4.5q-4 -3 -8 -7.5t-7 -8.5q-2 -5 -4.5 -10l-4.5 -9l-106 -397q-1 -3 -0.5 -6.5t1.5 -6.5q0 -3 2 -6.5t3 -5.5q3 -2 6 -4.5t5 -3.5q3 -2 6.5 -3t6.5 -1h134q3 0 7 1t7 3q4 1 8 4t7 6q3 2 6 5.5t5 6.5t4 7t3 7
l108 403q1 3 1 7v7q-1 3 -2.5 6.5t-3.5 5.5l-4.5 4.5t-5.5 3.5t-6 2.5t-6 1.5h-128zM276 718h391q18 0 34 -3q9 -2 16.5 -4.5t13.5 -5.5q7 -3 14 -7.5t12 -8.5q5 -5 10 -12.5t8 -14.5t5.5 -15t3.5 -17q2 -9 2.5 -20t-0.5 -22q0 -7 -1.5 -16t-3.5 -18t-4 -19.5t-5 -20.5
l-82 -308q-3 -11 -6.5 -22t-7.5 -21q-3 -10 -7.5 -19.5l-8.5 -18.5q-4 -11 -10 -20.5l-12 -18.5l-14 -17.5l-13 -15.5q-11 -11 -24 -20t-25 -15q-8 -4 -17 -7.5t-18 -4.5t-18.5 -2.5t-19.5 -1.5h-420q-8 0 -16 0.5t-14 2.5q-7 1 -13.5 4t-11.5 6q-7 4 -13 9t-10 11
l-8.5 12.5t-7.5 14.5q-2 6 -3.5 13t-3.5 14q-1 7 -2 15t0 16v14.5t2 15.5q1 7 2.5 14.5t3.5 14.5l93 354l6.5 21l6.5 20q4 9 8.5 18l8.5 17q4 9 9.5 17l10.5 16q6 8 12 14.5t12 11.5q6 6 13.5 11l14.5 10l14.5 8t14.5 7q9 3 19 5.5t20 4.5q9 1 19.5 2.5t19.5 1.5zM681 905
l-219 -165h-160l209 165h170z" />
    <glyph glyph-name="Ocircumflex" unicode="&#xd4;" horiz-adv-x="793" 
d="M276 718h391q18 0 35 -3q8 -2 15.5 -4.5t14.5 -5.5t13.5 -7.5l12.5 -8.5q5 -5 9.5 -12.5t7.5 -14.5t5.5 -15t4.5 -17q1 -9 1.5 -20t-0.5 -22q0 -7 -1 -16t-4 -18q-1 -9 -3.5 -19.5t-4.5 -20.5l-83 -308q-3 -11 -6.5 -22l-6.5 -21q-4 -10 -8.5 -19.5l-8.5 -18.5
q-4 -11 -10 -20.5l-12 -18.5t-13.5 -17.5l-13.5 -15.5q-11 -11 -23.5 -20t-24.5 -15q-9 -4 -18 -7.5t-18 -4.5q-8 -1 -18 -2.5t-20 -1.5h-420q-8 0 -15.5 0.5t-14.5 2.5q-7 1 -13.5 4t-11.5 6q-7 4 -12.5 9t-10.5 11l-8.5 12.5t-6.5 14.5q-3 6 -4.5 13t-2.5 14t-2 15t-1 16
q1 7 1 14.5t1 15.5q1 7 2.5 14.5t3.5 14.5l94 354l6.5 21l6.5 20q4 9 8.5 18t7.5 17q5 9 10.5 17l10.5 16q6 8 12 14.5t12 11.5q6 6 13 11t15 10l14.5 8t14.5 7q9 3 19 5.5t19 4.5q10 1 20 2.5t19 1.5zM379 599q-4 0 -9 -1t-8 -2q-5 -2 -9 -4.5t-8 -4.5q-4 -3 -7.5 -7.5
l-6.5 -8.5q-3 -5 -5.5 -10t-3.5 -9l-107 -397v-6.5t1 -6.5t2.5 -6.5t3.5 -5.5t5 -4.5t6 -3.5q2 -2 6 -3t7 -1h134q3 0 6.5 1t7.5 3q3 1 7 4t7 6q3 2 6 5.5t6 6.5q2 3 3.5 7t2.5 7l108 403q1 3 1.5 7t-0.5 7t-2 6.5t-4 5.5q-1 2 -4 4.5t-6 3.5q-2 1 -5.5 2.5t-6.5 1.5h-128z
M421 740h-150l165 162h175l78 -162h-158l-29 83z" />
    <glyph glyph-name="Otilde" unicode="&#xd5;" horiz-adv-x="793" 
d="M380 599q-4 0 -9 -1t-9 -2q-4 -2 -8.5 -4.5t-7.5 -4.5q-4 -3 -8 -7.5t-7 -8.5q-2 -5 -4.5 -10l-4.5 -9l-106 -397q-1 -3 -0.5 -6.5t1.5 -6.5q0 -3 2 -6.5t3 -5.5q3 -2 6 -4.5t5 -3.5q3 -2 6.5 -3t6.5 -1h134q3 0 7 1t7 3q4 1 8 4t7 6q3 2 6 5.5t5 6.5t4 7t3 7l108 403
q1 3 1 7v7q-1 3 -2.5 6.5t-3.5 5.5l-4.5 4.5t-5.5 3.5t-6 2.5t-6 1.5h-128zM277 718h391q18 0 34 -3q9 -2 16.5 -4.5t13.5 -5.5q7 -3 14 -7.5t12 -8.5q5 -5 10 -12.5t8 -14.5t5.5 -15t3.5 -17q2 -9 2.5 -20t-0.5 -22q0 -7 -1.5 -16t-3.5 -18t-4 -19.5t-5 -20.5l-82 -308
q-3 -11 -6.5 -22t-7.5 -21q-3 -10 -7.5 -19.5l-8.5 -18.5q-4 -11 -10 -20.5l-12 -18.5l-14 -17.5l-13 -15.5q-11 -11 -24 -20t-25 -15q-8 -4 -17 -7.5t-18 -4.5t-18.5 -2.5t-19.5 -1.5h-420q-8 0 -16 0.5t-14 2.5q-7 1 -13.5 4t-11.5 6q-7 4 -13 9t-10 11l-8.5 12.5
t-7.5 14.5q-2 6 -3.5 13t-3.5 14q-1 7 -2 15t0 16q0 7 0.5 14.5t1.5 15.5q1 7 2.5 14.5t3.5 14.5l93 354l6.5 21l6.5 20q4 9 8.5 18l8.5 17q4 9 9.5 17l10.5 16q6 8 12 14.5t12 11.5q6 6 13.5 11l14.5 10l14.5 8t14.5 7q9 3 19 5.5t20 4.5q9 1 19.5 2.5t19.5 1.5zM589 854
q7 0 13.5 2.5t12.5 8.5t12 14t11 18h82q-2 -6 -5 -13t-5 -13l-6 -14t-6 -13q-4 -6 -7.5 -12.5l-6.5 -12.5t-7.5 -12.5t-8.5 -10.5l-10.5 -10.5t-10.5 -9.5q-11 -9 -25 -15q-6 -3 -13.5 -6t-15.5 -4q-8 -2 -17.5 -3t-18.5 -1q-5 0 -10.5 0.5t-9.5 1.5l-10.5 2l-10.5 2
t-10 2.5t-10 3.5q-5 1 -10 3t-9 4q-5 1 -10 4t-9 4t-8.5 3t-8.5 4q-4 1 -8 2.5t-7 2.5t-6 1.5t-6 0.5q-4 0 -8.5 -1t-7.5 -2q-4 -2 -8 -5.5t-7 -6.5q-4 -4 -8 -8.5t-7 -8.5t-6 -8.5t-5 -8.5h-83q2 6 4.5 12.5t4.5 12.5q3 7 7 14t7 13l9 13l9 13l10.5 12.5l10.5 12.5t11 11.5
l12 10.5q6 4 12.5 9t12.5 8q8 4 15 7t14 5q7 1 14.5 2.5t15.5 1.5q10 0 19.5 -1.5t19.5 -4.5t20 -6.5t18 -7.5l19.5 -7.5l17.5 -6.5t16.5 -5.5t15.5 -3.5z" />
    <glyph glyph-name="Odieresis" unicode="&#xd6;" horiz-adv-x="793" 
d="M278 718h391q19 0 35 -3q8 -2 15.5 -4.5t14.5 -5.5t13.5 -7.5l12.5 -8.5q5 -5 9.5 -12.5l8.5 -14.5q2 -7 5 -15t4 -17t2 -20t0 -22q-1 -7 -2 -16t-3 -18t-4 -19.5t-5 -20.5l-83 -308q-3 -11 -6.5 -22l-6.5 -21l-8 -19.5l-8 -18.5q-5 -11 -11 -20.5l-12 -18.5t-13 -17.5
t-14 -15.5q-11 -11 -23.5 -20t-24.5 -15q-8 -4 -17.5 -7.5t-17.5 -4.5q-9 -1 -19 -2.5t-19 -1.5h-420q-9 0 -16.5 0.5t-14.5 2.5q-7 1 -13.5 4t-11.5 6q-6 4 -12 9t-10 11q-5 6 -9.5 12.5t-6.5 14.5q-2 6 -4 13t-3 14t-2 15t-1 16q1 7 1 14.5t1 15.5q2 7 3 14.5t3 14.5
l94 354l6.5 21l6.5 20q4 9 8.5 18t7.5 17q5 9 10.5 17l10.5 16q6 8 12 14.5t12 11.5q6 6 13.5 11l14.5 10l14.5 8t14.5 7q9 3 19 5.5t19 4.5q10 1 20 2.5t19 1.5zM382 599q-5 0 -10 -1t-8 -2q-4 -2 -8.5 -4.5t-8.5 -4.5q-3 -3 -7 -7.5t-7 -8.5q-3 -5 -5.5 -10t-3.5 -9
l-106 -397q-1 -3 -1 -6.5t1 -6.5t2.5 -6.5t3.5 -5.5t5 -4.5t6 -3.5q2 -2 6 -3t7 -1h134q3 0 6.5 1t7.5 3q3 1 7 4l8 6q2 2 5 5.5t6 6.5q2 3 4 7t2 7l108 403q1 3 1.5 7t-0.5 7t-2 6.5t-4 5.5q-1 2 -4 4.5t-5 3.5q-3 1 -6 2.5t-6 1.5h-128zM679 740h-175l39 145h175zM445 740
h-176l39 145h176z" />
    <glyph glyph-name="multiply" unicode="&#xd7;" horiz-adv-x="575" 
d="M189 549l128 -175l222 175l56 -77l-222 -174l128 -175l-96 -76l-129 174l-221 -174l-55 76l221 175l-128 175z" />
    <glyph glyph-name="Oslash" unicode="&#xd8;" horiz-adv-x="849" 
d="M302 718h392h3.5h4.5t4.5 -0.5t3.5 -0.5l109 109l117 1l-147 -145q3 -5 6.5 -10t6.5 -10q2 -7 5 -15t4 -17t2 -20t0 -22q-1 -7 -2 -16t-3 -18t-4 -19.5t-5 -20.5l-83 -308q-3 -11 -6.5 -22l-6.5 -21l-8 -19.5l-8 -18.5q-5 -11 -11 -20.5l-12 -18.5t-13 -17.5t-14 -15.5
l-11 -10.5t-12 -9.5q-6 -5 -12.5 -8.5l-12.5 -6.5q-8 -4 -17.5 -7.5t-17.5 -4.5q-9 -1 -18.5 -2.5t-19.5 -1.5h-414l-124 -121h-112l152 153l-4.5 6.5l-4.5 6.5l-4.5 7t-3.5 8q-1 6 -3 13t-3 14t-2 15t-1 16q1 7 1 14.5t1 15.5q2 7 3 14.5t3 14.5l94 354l6.5 21l6.5 20
q4 9 8.5 18t7.5 17q5 9 10.5 17l10.5 16q6 8 12 14.5t12 11.5q6 6 13.5 11l14.5 10l14.5 8t14.5 7q9 3 19 5.5t19 4.5q10 1 20 2.5t19 1.5zM406 599q-5 0 -10 -1t-8 -2q-4 -2 -8.5 -4.5t-7.5 -4.5q-4 -3 -8 -7.5t-7 -8.5q-2 -5 -5 -10t-4 -9l-70 -262l283 282q1 1 0.5 3.5
t-1.5 4.5q-1 1 -2 3l-2 4q-2 2 -5 4.5t-5 3.5q-3 1 -6 2.5t-6 1.5h-128zM394 110q4 0 9 0.5t8 2.5q5 1 9 4t7 5q4 4 8.5 8t6.5 9q3 4 5.5 9t3.5 10l71 262l-285 -283q0 -2 0.5 -4.5t1.5 -3.5q1 -2 2.5 -4t2.5 -3l4.5 -4.5t5.5 -3.5q2 -2 5.5 -3t6.5 -1h128z" />
    <glyph glyph-name="Ugrave" unicode="&#xd9;" horiz-adv-x="786" 
d="M120 718h251l-144 -539q-2 -5 -2.5 -10t-0.5 -9q1 -5 2.5 -9.5t3.5 -8.5t5.5 -8.5t6.5 -7.5q5 -3 10 -5t11 -2h238q6 0 11.5 0.5t9.5 2.5q5 1 9.5 4t8.5 5q4 3 8 7t7 9q3 4 5.5 10t3.5 10l148 551h108l-141 -528q-2 -8 -5 -16.5t-5 -16.5q-3 -9 -7 -18t-8 -17
q-3 -8 -8 -17t-10 -16l-12.5 -16l-12.5 -16q-5 -6 -11 -12t-13 -10l-14 -9t-15 -8q-9 -4 -19 -8t-20 -5q-11 -2 -23 -3.5t-24 -1.5h-380q-12 0 -22.5 1t-18.5 3q-9 1 -17.5 4.5t-14.5 7.5q-7 4 -12 9t-9 10l-8 12.5t-7 12.5q-3 7 -6 15.5t-4 16.5q0 9 -1 18t-1 18
q1 9 1.5 18t2.5 18q1 9 3 18.5t4 17.5zM344 905h170l120 -165h-159z" />
    <glyph glyph-name="Uacute" unicode="&#xda;" horiz-adv-x="786" 
d="M120 718h251l-144 -539q-2 -5 -2.5 -10t-0.5 -9q1 -5 2.5 -9.5t3.5 -8.5t5.5 -8.5t6.5 -7.5q5 -3 10 -5t11 -2h238q6 0 11.5 0.5t9.5 2.5q5 1 9.5 4t8.5 5q4 3 8 7t7 9q3 4 5.5 10t3.5 10l148 551h108l-141 -528q-2 -8 -5 -16.5t-5 -16.5q-3 -9 -7 -18t-8 -17
q-3 -8 -8 -17t-10 -16l-12.5 -16l-12.5 -16q-5 -6 -11 -12t-13 -10l-14 -9t-15 -8q-9 -4 -19 -8t-20 -5q-11 -2 -23 -3.5t-24 -1.5h-380q-12 0 -22.5 1t-18.5 3q-9 1 -17.5 4.5t-14.5 7.5q-7 4 -12 9t-9 10l-8 12.5t-7 12.5q-3 7 -6 15.5t-4 16.5q0 9 -1 18t-1 18
q1 9 1.5 18t2.5 18q1 9 3 18.5t4 17.5zM678 905l-219 -165h-159l208 165h170z" />
    <glyph glyph-name="Ucircumflex" unicode="&#xdb;" horiz-adv-x="786" 
d="M120 718h251l-144 -539q-1 -5 -1.5 -10t-0.5 -9q0 -5 1.5 -9.5t3.5 -8.5t5.5 -8.5t7.5 -7.5t9.5 -5t10.5 -2h238q6 0 11.5 0.5t10.5 2.5q5 1 9.5 4l7.5 5q5 3 9 7t6 9q3 4 6 10t4 10l147 551h108l-141 -528q-2 -8 -5 -16.5t-5 -16.5q-3 -9 -6.5 -18t-7.5 -17t-9 -17
t-10 -16q-5 -8 -11.5 -16l-13.5 -16q-4 -6 -10.5 -12t-13.5 -10l-14 -9t-15 -8l-18.5 -8t-20.5 -5q-11 -2 -23 -3.5t-24 -1.5h-380q-11 0 -21.5 1t-19.5 3q-9 1 -17 4.5t-15 7.5q-6 4 -11.5 9t-9.5 10l-8 12.5t-7 12.5q-3 7 -5.5 15.5t-3.5 16.5l-2 18t-1 18q1 9 1.5 18
t2.5 18t3.5 18.5t4.5 17.5zM426 740h-150l166 162h175l78 -162h-159l-29 83z" />
    <glyph glyph-name="Udieresis" unicode="&#xdc;" horiz-adv-x="786" 
d="M123 718h251l-145 -539q-1 -5 -1.5 -10t-0.5 -9q1 -5 2 -9.5t3 -8.5t5.5 -8.5t7.5 -7.5q5 -3 10 -5t10 -2h238q6 0 11.5 0.5t10.5 2.5q5 1 9.5 4t8.5 5q4 3 8 7t7 9l5 10t4 10l148 551h108l-142 -528q-2 -8 -4.5 -16.5t-5.5 -16.5q-3 -9 -6.5 -18t-7.5 -17t-9 -17
t-10 -16q-5 -8 -11.5 -16l-12.5 -16q-5 -6 -11.5 -12t-12.5 -10q-7 -4 -14.5 -9t-15.5 -8q-8 -4 -18 -8t-20 -5q-11 -2 -23.5 -3.5t-24.5 -1.5h-380q-11 0 -21.5 1t-19.5 3q-8 1 -16.5 4.5t-14.5 7.5q-7 4 -12.5 9t-9.5 10l-8 12.5t-7 12.5q-3 7 -5.5 15.5t-3.5 16.5l-2 18
t0 18t1.5 18t1.5 18l4 18.5t4 17.5zM675 740h-175l38 145h175zM440 740h-177l39 145h176z" />
    <glyph glyph-name="Yacute" unicode="&#xdd;" horiz-adv-x="795" 
d="M204 278l-144 440h295l99 -295l246 295h129l-378 -451l-71 -267h-250zM675 905l-219 -165h-159l208 165h170z" />
    <glyph glyph-name="Thorn" unicode="&#xde;" horiz-adv-x="769" 
d="M148 719h254l-30 -115h283q7 0 13 -0.5t12 -1.5t12.5 -3t11.5 -3q6 -2 11 -4.5t10 -5.5t9.5 -6.5t8.5 -7.5q5 -4 9.5 -10.5t6.5 -13.5q3 -8 5 -16t3 -17v-11.5t-1 -12.5t-2 -13t-3 -14l-48 -178q-2 -9 -5.5 -18.5t-6.5 -16.5q-4 -7 -8 -15t-8 -15l-10 -12.5t-9 -10.5
q-5 -5 -11 -10l-11 -9q-7 -5 -14 -9t-14 -7t-14 -6.5t-14 -4.5q-6 -2 -13.5 -3.5t-13.5 -2.5q-7 -1 -14.5 -1.5t-14.5 -0.5h-284l-38 -144h-253zM339 487l-61 -228h141q3 0 7 1t7 3q3 1 7.5 4.5t7.5 6.5t6 6.5t5 6.5q3 4 5 8t3 7l39 147q1 3 1 6.5v6.5t-1.5 6.5t-2.5 5.5
q-2 3 -4 5t-5 4q-3 1 -5.5 2.5t-5.5 1.5h-144z" />
    <glyph glyph-name="germandbls" unicode="&#xdf;" horiz-adv-x="756" 
d="M661 717q4 0 8.5 -0.5t9.5 -0.5q4 0 8.5 -1t8.5 -2t8 -3t8 -3q4 -2 8 -4.5t6 -4.5q11 -9 17 -23q5 -15 -1 -36l-26 -97q-2 -8 -6 -15.5t-8 -12.5q-6 -5 -13.5 -10.5t-16.5 -9.5l-12 -5t-13 -5q-8 -2 -16.5 -5t-17.5 -5q8 0 16 -0.5t14 -1.5q8 -1 14 -2.5t12 -2.5
q8 -2 15 -5.5t12 -6.5q5 -4 9.5 -9t7.5 -9q3 -6 5.5 -12.5t3.5 -13.5q1 -8 1 -15t-1 -15t-2.5 -16.5t-3.5 -15.5t-3.5 -15.5t-3.5 -16.5l-47 -173q-2 -8 -4.5 -16t-5.5 -15q-3 -8 -6 -14.5l-6 -12.5q-4 -8 -8.5 -15t-9.5 -13q-4 -6 -10 -12t-12 -10q-4 -5 -9 -8.5t-10 -6.5
l-12 -6t-11 -4q-7 -2 -15 -4t-16 -3q-8 -2 -16.5 -2.5t-16.5 -0.5h-231l27 100h92q1 0 4 0.5t4 1.5q3 1 6 2.5t5 3.5q2 1 4 4t3 4q2 1 3.5 4l2.5 5l65 243q1 3 1 6.5t-1 6.5q0 4 -1 7.5t-2 5.5q-2 3 -4 5.5t-5 4.5q-2 1 -5.5 2.5t-6.5 1.5h-89l28 103h70q4 0 9 1.5t9 4.5
t9 7.5t8 8.5q2 3 5 7t5 8l4 8t3 7t1.5 7t0.5 9q0 4 -1 8.5t-1 7.5q-1 4 -3 7.5t-4 5.5t-6 3.5t-7 1.5h-85q-2 0 -5 -0.5t-5 -1.5q-3 -1 -6 -2.5t-4 -2.5q-2 -2 -4.5 -4t-3.5 -3q-2 -2 -3.5 -5t-2.5 -4l-158 -591h-242l113 426h-71l27 100h70l12 46q2 7 5 14.5l6 15.5
l8.5 14.5t9.5 14.5q3 4 7.5 9.5l8.5 10.5l10.5 10.5t11.5 9.5l11.5 9t13.5 9l15.5 8t14.5 7q8 3 16.5 5l16.5 4q8 1 17 2.5t18 1.5h343z" />
    <glyph glyph-name="agrave" unicode="&#xe0;" 
d="M673 346l-92 -344h-214v56q-1 -3 -3 -6t-3 -4q-2 -2 -4 -5t-3 -4q-3 -3 -5.5 -6t-4.5 -4q-2 -2 -5.5 -5t-4.5 -4q-7 -5 -14 -8.5t-13 -5.5q-7 -1 -14.5 -2.5t-13.5 -1.5h-223q-19 0 -32 3q-6 1 -12.5 3.5t-11.5 5.5l-9 6.5t-8 8.5q-3 4 -6.5 10t-4.5 12q-2 6 -3.5 13.5
t-0.5 15.5v16.5t1 16.5q2 8 3.5 17t4.5 17q2 8 3.5 16.5t3.5 15.5t4 15t4 15t5 15.5t5 16.5q3 8 6.5 15.5t6.5 15.5l8.5 15t9.5 14q5 7 11.5 13.5t12.5 11.5q6 6 14 11t17 8q13 6 29 9t34 3h248q3 0 7 1t8 3q3 1 7.5 4.5l8.5 6.5q2 1 4.5 4t3.5 6q3 3 4.5 6t1.5 5q2 6 1 12
q-1 3 -2.5 5.5t-3.5 4.5q-1 2 -3.5 4t-5.5 4q-5 3 -11 3h-330l28 103h460q10 0 19 -1t17 -2q8 -2 15 -5t13 -6q7 -3 12.5 -8t9.5 -10q5 -5 8.5 -11.5t5.5 -12.5l4 -12.5t2 -12.5q1 -7 1.5 -14t0.5 -14q0 -9 -1 -19t-4 -19q-1 -9 -3 -18.5t-4 -17.5zM407 255h-118
q-4 0 -8.5 -1.5t-8.5 -2.5q-4 -2 -8 -4.5t-8 -5.5l-6.5 -6.5l-6.5 -6.5q-2 -4 -4.5 -8t-3.5 -7l-20 -75q0 -2 -0.5 -5t0.5 -5q0 -3 1 -6t1 -5l5 -5t5 -4q3 -2 6 -3t6 -1h96q2 0 5 0.5t7 2.5q3 1 6.5 4t6.5 5q2 1 4.5 4t4.5 5q2 3 3.5 6l2.5 5zM287 720h171l120 -164h-159z
" />
    <glyph glyph-name="aacute" unicode="&#xe1;" 
d="M407 255h-118q-4 0 -8.5 -1.5l-7.5 -2.5q-5 -2 -9 -4.5t-8 -5.5l-6.5 -6.5l-6.5 -6.5q-2 -4 -4.5 -8t-3.5 -7l-20 -75v-5v-5q0 -3 1 -6t2 -5t4 -5t5 -4q3 -2 6 -3t6 -1h96q2 0 5.5 0.5t6.5 2.5q3 1 7 4t6 5q2 1 4.5 4t4.5 5q2 3 3.5 6l2.5 5zM673 346l-92 -344h-214v56
q-1 -3 -3 -6t-3 -4q-2 -2 -4 -5t-3 -4q-3 -3 -5.5 -6t-4.5 -4l-5 -5t-5 -4q-7 -5 -13.5 -8.5t-13.5 -5.5q-6 -1 -13.5 -2.5t-14.5 -1.5h-223q-18 0 -31 3q-7 1 -13.5 3.5t-11.5 5.5l-9 6.5t-8 8.5q-3 4 -6.5 10t-4.5 12q-2 6 -3.5 13.5t-0.5 15.5v16.5t2 16.5q1 8 2.5 17
t4.5 17q2 8 3.5 16.5t3.5 15.5t4 15t4 15t5 15.5t5 16.5q3 8 6.5 15.5t6.5 15.5l8.5 15t9.5 14q5 7 11.5 13.5t12.5 11.5q6 6 14 11t17 8q13 6 29 9t34 3h248q3 0 7 1t8 3q3 1 7.5 4.5l8.5 6.5q2 1 4.5 4t4.5 6t3.5 6t1.5 5q2 6 1 12q-1 3 -2.5 5.5t-3.5 4.5q-1 2 -3.5 4
t-5.5 4q-5 3 -11 3h-330l28 103h460q10 0 19 -1t17 -2q8 -2 15 -5t13 -6q7 -3 13 -8t9 -10q5 -5 8.5 -11.5t5.5 -12.5l4 -12.5t2 -12.5q1 -7 1.5 -14t0.5 -14q0 -9 -1 -19t-3 -19l-4 -18.5t-4 -17.5zM622 720l-219 -164h-160l209 164h170z" />
    <glyph glyph-name="acircumflex" unicode="&#xe2;" 
d="M673 346l-92 -344h-214v56q-1 -3 -3 -6t-3 -4q-2 -2 -4 -5t-3 -4q-2 -3 -5 -6t-5 -4l-5 -5t-5 -4q-7 -5 -13.5 -8.5t-13.5 -5.5q-6 -1 -13.5 -2.5t-14.5 -1.5h-223q-18 0 -31 3q-7 1 -13.5 3.5t-11.5 5.5l-9 6.5t-8 8.5q-3 4 -6 10t-5 12t-3.5 13.5t-0.5 15.5v16.5
t2 16.5q1 8 3 17t4 17t3.5 16.5t3.5 15.5t4 15t4 15t5 15.5t5 16.5q3 8 6.5 15.5t6.5 15.5l8.5 15t9.5 14q5 7 11.5 13.5t12.5 11.5q7 6 15 11t16 8q13 6 29 9t34 3h248q3 0 7.5 1t7.5 3q3 1 7.5 4.5l8.5 6.5q2 1 4.5 4t4.5 6t3.5 6l2.5 5q1 6 0 12q-1 3 -2.5 5.5t-2.5 4.5
q-2 2 -4.5 4t-4.5 4q-6 3 -12 3h-330l28 103h460q10 0 19 -1t17 -2q8 -2 15 -5t13 -6q7 -3 13 -8t10 -10t7.5 -11.5t5.5 -12.5l4 -12.5t2 -12.5q2 -7 2 -14v-14q0 -9 -1 -19t-3 -19l-4 -18.5t-4 -17.5zM407 255h-118q-4 0 -8.5 -1.5l-7.5 -2.5q-4 -2 -8.5 -4.5t-8.5 -5.5
l-6.5 -6.5t-5.5 -6.5q-3 -4 -5.5 -8t-2.5 -7l-21 -75v-5v-5q0 -3 1 -6t2 -5t4 -5t5 -4q3 -2 6 -3t6 -1h96q3 0 6 0.5t6 2.5q3 1 7 4t7 5l4 4t4 5q2 3 3.5 6l2.5 5zM331 556h-150l165 162h176l77 -162h-158l-29 82z" />
    <glyph glyph-name="atilde" unicode="&#xe3;" 
d="M408 255h-119q-3 0 -7.5 -1.5l-7.5 -2.5q-5 -2 -9 -4.5t-8 -5.5l-6.5 -6.5l-6.5 -6.5q-2 -4 -4.5 -8t-3.5 -7l-20 -75q0 -2 -0.5 -5t0.5 -5q0 -3 1 -6t2 -5t4 -5t5 -4q3 -2 6 -3t6 -1h96q2 0 5 0.5t7 2.5q3 1 7 4t6 5q2 1 4.5 4t4.5 5q2 3 3.5 6l2.5 5zM674 346l-92 -344
h-214v56q-1 -3 -3 -6t-3 -4q-2 -2 -4 -5t-3 -4q-3 -3 -5.5 -6t-4.5 -4q-2 -2 -5.5 -5t-4.5 -4q-7 -5 -14 -8.5t-13 -5.5q-7 -1 -14 -2.5t-14 -1.5h-223q-18 0 -32 3q-6 1 -12.5 3.5t-11.5 5.5l-9 6.5t-8 8.5q-3 4 -6.5 10t-4.5 12q-2 6 -3.5 13.5t-0.5 15.5v16.5t1 16.5
q2 8 3.5 17t4.5 17q2 8 3.5 16.5t3.5 15.5t4 15t4 15l4.5 15.5t5.5 16.5l6 15.5t7 15.5l8.5 15t9.5 14q5 7 11.5 13.5l11.5 11.5q7 6 15 11t17 8q13 6 29 9t34 3h248q3 0 7 1t8 3q3 1 7.5 4.5l8.5 6.5q2 1 4.5 4t4.5 6t3.5 6t1.5 5q2 6 1 12q-1 3 -2.5 5.5t-3.5 4.5
q-1 2 -3.5 4t-5.5 4q-5 3 -11 3h-330l28 103h460q10 0 19 -1t17 -2q8 -2 15 -5t13 -6q7 -3 12.5 -8t9.5 -10q5 -5 8.5 -11.5t5.5 -12.5l4 -12.5t2 -12.5q1 -7 1.5 -14t0.5 -14q0 -9 -1 -19t-4 -19q-1 -9 -3 -18.5t-4 -17.5zM511 670q6 0 12.5 2.5t13.5 8.5q6 6 12 14t11 18
h82q-2 -7 -5.5 -14t-5.5 -13l-6 -14t-5 -13q-3 -6 -7 -12.5t-7 -12.5q-4 -6 -8.5 -12l-8.5 -11l-10 -10t-10 -9q-12 -9 -25 -15l-14.5 -6t-15.5 -4q-8 -2 -17 -3t-18 -1q-4 0 -10 0.5t-11 0.5l-10.5 2l-10.5 2l-9.5 2.5t-10.5 3.5q-5 1 -10 4t-9 4q-5 1 -10 3t-9 4
q-4 1 -8.5 3t-7.5 4q-4 1 -8 2.5t-7 2.5t-6.5 2t-6.5 1q-4 0 -8 -1l-8 -2q-3 -2 -7.5 -5.5t-7.5 -6.5q-4 -4 -7.5 -8.5l-6.5 -8.5q-2 -4 -5.5 -8.5t-4.5 -8.5h-84q1 6 4 12.5l6 12.5l6.5 13t7.5 13q3 7 7.5 14t9.5 13q4 6 9.5 12.5t10.5 11.5l12 12t12 10q6 5 13 10t13 8
l14 6t14 5t14.5 3.5t14.5 1.5q21 0 41 -6q9 -3 19 -7t19 -7l18.5 -8t17.5 -7t16 -5.5t16 -2.5z" />
    <glyph glyph-name="adieresis" unicode="&#xe4;" 
d="M675 346l-92 -344h-214v56q0 -3 -2 -6t-3 -4q-2 -2 -4.5 -5t-3.5 -4q-2 -3 -5 -6l-4 -4q-3 -2 -6 -5t-5 -4q-6 -5 -13 -8.5t-14 -5.5q-6 -1 -13.5 -2.5t-14.5 -1.5h-223q-18 0 -31 3q-7 1 -13 3.5t-11 5.5t-9.5 6.5t-7.5 8.5q-4 4 -7 10t-5 12t-3 13.5t-1 15.5t0.5 16.5
t1.5 16.5q2 8 3.5 17t3.5 17l4 16.5t4 15.5t4 15t4 15l4.5 15.5t4.5 16.5q3 8 6.5 15.5l7.5 15.5q3 7 8 15l9 14q5 7 11.5 13.5t12.5 11.5q7 6 15 11t16 8q14 6 30 9t33 3h248q3 0 7.5 1t7.5 3q4 1 8.5 4.5t7.5 6.5q2 1 4.5 4t4.5 6t3.5 6l2.5 5q2 6 0 12q-1 3 -2 5.5
t-3 4.5l-4 4t-5 4q-5 3 -11 3h-330l28 103h459q10 0 19.5 -1t17.5 -2q8 -2 15 -5t13 -6t12 -8t10 -10t7.5 -11.5t5.5 -12.5q3 -6 4.5 -12.5t2.5 -12.5q1 -7 1.5 -14t-0.5 -14q0 -9 -1 -19t-3 -19t-3.5 -18.5t-4.5 -17.5zM409 255h-118q-4 0 -8.5 -1.5l-7.5 -2.5
q-4 -2 -8.5 -4.5t-8.5 -5.5l-6.5 -6.5t-5.5 -6.5q-3 -4 -5 -8t-3 -7l-20 -75q-1 -2 -1 -5v-5q1 -3 1.5 -6t1.5 -5q2 -2 4.5 -5t5.5 -4q2 -2 5.5 -3t6.5 -1h96q2 0 5 0.5t6 2.5q4 1 7.5 4t6.5 5q2 1 4.5 4t3.5 5q3 3 4.5 6t1.5 5zM592 555h-175l39 146h175zM358 555h-177
l39 146h177z" />
    <glyph glyph-name="aring" unicode="&#xe5;" 
d="M404 255h-118q-4 0 -8 -1.5t-8 -2.5q-4 -2 -8.5 -4.5t-7.5 -5.5q-4 -3 -7.5 -6.5t-5.5 -6.5q-2 -4 -4.5 -8t-3.5 -7l-20 -75q-1 -2 -1 -5v-5q1 -3 1.5 -6t1.5 -5q2 -2 4.5 -5t5.5 -4q3 -2 6 -3t6 -1h96q2 0 5 0.5t7 2.5q3 1 6.5 4t6.5 5q2 1 4.5 4t3.5 5q3 3 4.5 6t1.5 5
zM671 346l-93 -344h-214l1 56q-1 -3 -3 -6t-3 -4q-2 -2 -4.5 -5t-3.5 -4q-2 -3 -4.5 -6t-4.5 -4q-2 -2 -5.5 -5t-5.5 -4q-6 -5 -13 -8.5t-13 -5.5q-7 -1 -14.5 -2.5t-14.5 -1.5h-223q-18 0 -31 3q-7 1 -13 3.5t-10 5.5q-5 3 -10 6.5t-8 8.5q-4 4 -7 10t-4 12q-2 6 -3.5 13.5
t-1.5 15.5t0.5 16.5t1.5 16.5q2 8 3.5 17t3.5 17q3 8 4.5 16.5t3.5 15.5t4 15t4 15t5 15.5t5 16.5t5.5 15.5l7.5 15.5q3 7 8 15t10 14q4 7 10.5 13.5t12.5 11.5q7 6 15 11t16 8q14 6 30 9t33 3h248q3 0 7.5 1t8.5 3q3 1 7.5 4.5t7.5 6.5q2 1 5 4t4 6q3 3 4.5 6t1.5 5
q2 6 0 12q0 3 -1.5 5.5t-3.5 4.5l-4 4t-5 4q-5 3 -11 3h-330l28 103h460q9 0 18.5 -1t17.5 -2q8 -2 15 -5t13 -6q7 -3 12.5 -8t9.5 -10q5 -5 8 -11.5l6 -12.5q2 -6 3.5 -12.5t2.5 -12.5q1 -7 1.5 -14t-0.5 -14q0 -9 -0.5 -19t-3.5 -19q-1 -9 -3 -18.5t-4 -17.5zM385 556
q-9 0 -18 2t-15 5q-8 3 -14 8t-10 11q-5 6 -7.5 13.5t-3.5 15.5q-2 8 -1.5 17.5t2.5 18.5q3 9 7 17.5t9 16.5q6 8 13.5 15.5t14.5 13.5q8 6 16.5 11.5t16.5 8.5q9 3 19 5t19 2t18 -2t15 -5q8 -3 14 -8t10 -11q5 -6 8.5 -14t4.5 -15v-17t-3 -18q-2 -9 -6.5 -18t-9.5 -17
t-12 -15.5t-15 -13.5q-7 -6 -16.5 -11.5t-17.5 -8.5q-9 -3 -19 -5t-19 -2zM398 604q4 0 8.5 0.5t7.5 2.5q5 1 9 4t8 5q4 3 7 6.5t6 7.5q2 4 4.5 8t3.5 9q1 4 1.5 8t0.5 8q-1 4 -3 7.5t-4 5.5q-2 3 -5 5l-6 4q-3 1 -7 2.5t-9 1.5q-4 0 -8.5 -1t-7.5 -2q-4 -2 -8.5 -4.5
t-8.5 -4.5q-4 -3 -7 -6.5t-6 -7.5q-2 -4 -4.5 -8t-3.5 -8q-2 -9 -1 -17q0 -4 2 -7.5t4 -5.5q2 -3 5 -5.5t6 -3.5q3 -2 7 -3t9 -1z" />
    <glyph glyph-name="ae" unicode="&#xe6;" horiz-adv-x="1043" 
d="M954 528h5.5h7.5q3 0 7 -1t8 -1q4 -1 8 -2.5t8 -2.5l6 -4t5 -3t4 -4t4 -4q1 -2 3 -5t3 -4q2 -2 4 -5t3 -5q1 -3 2.5 -6t1.5 -6q1 -4 2 -10t1 -11t-0.5 -11.5t-1.5 -12.5q0 -8 -2 -17.5l-4 -18.5l-50 -187h-366l-15 -57q-1 -4 -0.5 -8t0.5 -8t2 -8t4 -7l4.5 -6.5t5.5 -4.5
q3 -2 6.5 -3t7.5 -1h301l-28 -103h-450q-7 0 -14 0.5t-13 1.5t-12 4t-11 6q-2 1 -4.5 3t-5.5 4q-2 2 -4.5 5t-4.5 5l-4 6l-4 6q-1 3 -3 6.5t-2 6.5q-5 -5 -8.5 -10t-5.5 -9q-3 -5 -7 -9l-7 -7l-4.5 -4.5t-4.5 -3.5q-2 -2 -5 -3.5t-6 -2.5q-4 -1 -8 -2.5t-7 -1.5
q-5 -1 -10.5 -1.5t-11.5 -0.5h-204q-6 0 -13 0.5t-12 1.5q-7 1 -13.5 3.5t-11.5 5.5q-4 1 -8.5 4t-7.5 6q-4 3 -7 7t-5 9q-2 4 -4 9l-4 10l-2 12.5t-1 13.5q0 5 0.5 11t1.5 12t2.5 13t2.5 14l23 87q2 8 4.5 15.5t4.5 14.5t5.5 13.5l6.5 12.5q4 8 9 15l9 13q5 6 10.5 11
l11.5 10q9 7 20.5 13.5t22.5 9.5q6 1 12 2.5t12 1.5q6 1 13.5 1.5t13.5 0.5h212q3 0 6 1t7 3q3 1 7.5 4t7.5 6q3 2 6 5.5t6 6.5q2 4 4.5 8t3.5 7q0 2 0.5 5t-0.5 5t-2 4.5t-2 4.5q-2 2 -5 4t-5 4l-6 2t-5 1h-297l28 104h812zM795 309l22 83q1 2 1 5v5q0 3 -1 6t-2 5t-2.5 4
t-2.5 4q-2 1 -4.5 2t-4.5 1h-103q-3 0 -5.5 -1t-4.5 -2q-2 -2 -4.5 -4t-4.5 -3q-2 -2 -4.5 -5t-4.5 -5q-1 -3 -2.5 -6l-2.5 -5l-22 -84h152zM397 251h-106q-2 0 -5 -0.5t-5 -1.5q-4 -1 -7 -3.5t-5 -3.5q-4 -2 -7 -5.5t-5 -6.5q-3 -3 -5 -7t-3 -7l-21 -77q0 -3 -0.5 -6.5
t0.5 -6.5l2 -6t3 -5l4.5 -4.5t5.5 -3.5q5 -3 11 -3h71q3 0 6.5 0.5t6.5 1.5q4 1 7.5 3t5.5 4q3 3 5.5 6.5t4.5 8.5q3 5 5.5 11.5t4.5 13.5z" />
    <glyph glyph-name="ccedilla" unicode="&#xe7;" horiz-adv-x="591" 
d="M669 526l-28 -103h-242q-3 0 -8 -1.5t-9 -2.5q-4 -2 -8.5 -4.5t-7.5 -5.5l-8.5 -6.5t-6.5 -6.5q-2 -4 -4.5 -8t-3.5 -7l-64 -238v-7t1 -7q1 -4 3 -7.5t4 -5.5q2 -3 5.5 -5.5t7.5 -3.5q3 -2 7 -2.5t8 -0.5h241l-28 -104h-200l-54 -61h61q5 0 9 -0.5t8 -2.5q4 -1 7.5 -4
t6.5 -6q3 -4 5 -8t3 -9q2 -4 2.5 -9t-1.5 -10l-27 -103q-1 -4 -3.5 -8l-5.5 -9l-7 -9t-8 -9q-3 -3 -7.5 -6.5t-9.5 -5.5q-4 -2 -9 -3.5t-9 -1.5h-162l10 39h97q1 0 2.5 0.5l1.5 0.5q2 0 3.5 1t2.5 2t2.5 2t1.5 2l2 2t1 2l27 99v3v2q0 2 -1 3t-1 2q-2 1 -3 2t-3 1
q-1 0 -2.5 0.5t-2.5 0.5h-95l10 40h23l56 61h-121q-11 0 -20 1t-17 3q-8 1 -15 4.5l-13 6.5q-5 4 -10 8.5t-9 9.5q-5 4 -8.5 10.5t-5.5 12.5q-2 4 -3.5 10t-2.5 12q-3 12 -3 24q1 6 1 12.5t1 12.5l2 12.5t3 12.5l58 219q2 7 5 14t5 15q4 7 8 15t8 15t9.5 14.5l10.5 14.5
q6 7 12.5 13.5l12.5 12.5q6 4 12.5 9t12.5 9t13.5 8t15.5 7q5 1 11 3t12 3q7 1 14 1.5t13 0.5h398z" />
    <glyph glyph-name="egrave" unicode="&#xe8;" horiz-adv-x="715" 
d="M602 528q8 0 16.5 -1l16.5 -2q8 -2 16 -4.5t14 -6.5q5 -3 10 -7.5t8 -8.5q3 -5 6 -11l6 -12q1 -4 2 -10t1 -11v-11.5t-1 -12.5q-1 -8 -3 -17.5l-4 -18.5l-50 -187h-407l-16 -57q-1 -4 -0.5 -8t0.5 -8t2.5 -8l4.5 -7t5.5 -6.5t6.5 -4.5q4 -2 7.5 -3t7.5 -1h337l-27 -103
h-504q-7 0 -15 0.5t-15 1.5t-14 4t-12 6q-5 2 -9.5 6t-8.5 8q-3 4 -6 10l-6 12q-1 4 -2.5 9.5t-1.5 11.5v13.5t1 14.5q0 5 0.5 10.5t1.5 10.5q2 6 3 12.5t3 12.5l62 237l4 12t4 11q1 5 3.5 10.5t3.5 10.5l8 16t8 15l10 14t9 12l12.5 12t11.5 10l14 8t14 6l14 4t14 3l14.5 2
t14.5 1h405zM432 309l22 83q1 2 1 5v5l-2 6t-2 5t-3 4l-4 4q-2 1 -4.5 2t-4.5 1h-116q-2 0 -5 -1t-5 -2l-6 -4t-5 -3q-2 -2 -4.5 -5t-4.5 -5q-4 -6 -5 -11l-23 -84h171zM242 720h170l121 -164h-159z" />
    <glyph glyph-name="eacute" unicode="&#xe9;" horiz-adv-x="715" 
d="M577 720l-220 -164h-159l209 164h170zM432 309l22 83q1 2 1 5v5l-2 6t-2 5t-3 4l-4 4q-2 1 -4.5 2t-4.5 1h-116q-2 0 -5 -1t-5 -2q-2 -2 -5.5 -4t-5.5 -3q-2 -2 -4.5 -5t-3.5 -5q-3 -3 -4.5 -6t-1.5 -5l-23 -84h171zM602 528q8 0 16.5 -1l16.5 -2q8 -2 16 -4.5t14 -6.5
q5 -3 10 -7.5t8 -8.5q3 -5 6 -11l6 -12q1 -4 2 -10t1 -11v-11.5v-12.5q-2 -8 -4 -17.5l-4 -18.5l-50 -187h-407l-16 -57q-1 -4 -0.5 -8t0.5 -8q1 -4 3 -8t4 -7t5.5 -6.5t6.5 -4.5q4 -2 8 -3t7 -1h337l-27 -103h-503q-8 0 -16 0.5t-15 1.5t-14 4t-12 6q-5 2 -9.5 6t-7.5 8
q-4 4 -7 10t-5 12q-2 4 -3.5 9.5t-1.5 11.5v13.5t1 14.5q0 5 0.5 10.5t1.5 10.5q2 6 3 12.5t3 12.5l62 237l4 12t4 11q1 5 3.5 10.5t3.5 10.5l8 16t9 15q4 7 9 14t9 12l12.5 12t11.5 10l14.5 8t13.5 6l14 4t14 3l14.5 2t14.5 1h405z" />
    <glyph glyph-name="ecircumflex" unicode="&#xea;" horiz-adv-x="715" 
d="M602 528q8 0 16.5 -1l16.5 -2q8 -2 16 -4.5t14 -6.5q5 -3 10 -7.5t8 -8.5l6.5 -11t5.5 -12q1 -4 2 -10t1 -11t0.5 -11.5t-0.5 -12.5q-2 -8 -3.5 -17.5t-4.5 -18.5l-50 -187h-407l-15 -57q-1 -4 -1 -8v-8q1 -4 3 -8t4 -7q3 -3 6 -6.5t6 -4.5q4 -2 8 -3t7 -1h337l-27 -103
h-503q-8 0 -15.5 0.5t-15.5 1.5q-7 1 -14 4t-12 6q-4 2 -9 6t-8 8t-6.5 10t-5.5 12q-2 4 -3.5 9.5t-1.5 11.5q1 6 0.5 13.5t0.5 14.5q0 5 0.5 10.5t1.5 10.5q2 6 3.5 12.5t2.5 12.5l63 237q1 6 3.5 12t3.5 11t3.5 10.5t3.5 10.5q4 8 8.5 16l8.5 15t9 14t10 12q5 6 11.5 12
t12.5 10t13.5 8t13.5 6l14 4t14 3l14.5 2t14.5 1h405zM432 309l23 83v5v5q0 3 -1.5 6l-2.5 5t-3 4l-4 4q-1 1 -4 2t-5 1h-116q-2 0 -5 -1t-5 -2q-2 -2 -5.5 -4t-5.5 -3q-2 -2 -4.5 -5t-3.5 -5q-5 -6 -6 -11l-23 -84h171zM331 556h-150l165 162h176l77 -162h-158l-29 82z" />
    <glyph glyph-name="edieresis" unicode="&#xeb;" horiz-adv-x="715" 
d="M435 309l22 83q1 2 1 5v5q-1 3 -2.5 6t-1.5 5q-1 2 -3.5 4t-3.5 4q-2 1 -4.5 2t-5.5 1h-116q-2 0 -4.5 -1t-4.5 -2l-6 -4t-5 -3l-5 -5t-4 -5q-5 -6 -6 -11l-22 -84h171zM604 528q9 0 17.5 -1l16.5 -2l15 -4.5t15 -6.5q5 -3 9.5 -7.5t7.5 -8.5q4 -5 7 -11t5 -12
q1 -4 2 -10t2 -11v-11.5t-1 -12.5q-1 -8 -3 -17.5t-5 -18.5l-50 -187h-407l-15 -57q-1 -4 -1 -8t1 -8q0 -4 2.5 -8l4.5 -7t5.5 -6.5t6.5 -4.5q3 -2 7 -3t8 -1h337l-28 -103h-503q-7 0 -15 0.5t-15 1.5t-14 4t-13 6q-4 2 -8.5 6t-8.5 8q-3 4 -6.5 10t-5.5 12q-2 4 -3 9.5
t-1 11.5v13.5v14.5q1 5 1.5 10.5t1.5 10.5q1 6 2.5 12.5t3.5 12.5l62 237l4 12t3 11l4 10.5l4 10.5q3 8 7.5 16l8.5 15t9.5 14l9.5 12q5 6 11.5 12t12.5 10t13.5 8t14.5 6q6 2 13.5 4t13.5 3l15.5 2t13.5 1h405zM599 555h-175l39 146h175zM364 555h-177l40 146h176z" />
    <glyph glyph-name="igrave" unicode="&#xec;" horiz-adv-x="353" 
d="M345 529l-142 -529h-239l140 529h241zM98 720h170l121 -164h-159z" />
    <glyph glyph-name="iacute" unicode="&#xed;" horiz-adv-x="353" 
d="M433 720l-219 -164h-160l209 164h170zM345 529l-141 -529h-240l140 529h241z" />
    <glyph glyph-name="icircumflex" unicode="&#xee;" horiz-adv-x="408" 
d="M345 529l-141 -529h-240l141 529h240zM173 556h-149l164 162h175l79 -162h-158l-29 82z" />
    <glyph glyph-name="idieresis" unicode="&#xef;" horiz-adv-x="404" 
d="M348 529l-142 -529h-240l141 529h241zM440 555h-175l39 146h175zM206 555h-175l39 146h175z" />
    <glyph glyph-name="eth" unicode="&#xf0;" horiz-adv-x="717" 
d="M401 320h-108q-2 0 -5 -1l-6 -2q-3 -2 -6.5 -4t-5.5 -4l-5 -5t-4 -6q-2 -3 -4 -6.5t-3 -6.5l-40 -150q0 -2 -0.5 -5t-0.5 -6q1 -3 2.5 -6t3.5 -4q0 -2 2.5 -4.5l3.5 -3.5q6 -3 12 -3h106q2 0 5 0.5t5 2.5q3 1 6.5 3.5t5.5 4.5t4.5 5t4.5 6t3.5 6t1.5 5l41 152q1 2 1 5v6
l-2 6t-2 4q-1 2 -3 4l-4 4q-2 1 -4.5 2t-4.5 1zM394 720l118 -57l98 60l83 -59l-94 -46l105 -51q3 -2 6 -4.5t5 -5.5t4 -7.5t3 -8.5t1.5 -8.5t-0.5 -8.5q1 -5 0 -10t-2 -9l-135 -505h-512q-10 0 -18 0.5t-14 0.5q-5 1 -9.5 2t-7.5 2q-2 1 -4 2.5t-2 2.5l-2 2l-1 1
q-6 3 -11 6.5t-8 8.5q-4 4 -8 9t-6 10q-3 4 -5 10t-3 12q-2 6 -3 12t-1 12v12.5t1 12.5l2 12.5l2 12.5l35 131q2 9 5 17.5l6 16.5q3 7 7 15t8 15q4 6 9.5 12.5l9.5 11.5q5 6 10.5 11l10.5 10q5 4 12 9l13 9q7 4 14.5 7.5t14.5 5.5l17 5.5t12 3.5q6 1 10.5 1.5t6.5 0.5h5h3
t1.5 -0.5l0.5 -0.5h68h67h67h67l21 81q1 3 1 6v5q-1 2 -2 4.5t-2 4.5q-1 1 -3.5 3t-3.5 4q-3 1 -5.5 3t-5.5 4l-129 -68l-75 65l100 50l-113 52z" />
    <glyph glyph-name="ntilde" unicode="&#xf1;" horiz-adv-x="732" 
d="M297 393l-106 -393h-243l140 526h511q19 0 35 -4.5t29 -12.5q12 -7 20.5 -17.5t13.5 -23.5q2 -5 3.5 -11t3.5 -12q1 -7 1.5 -14t0.5 -15q-1 -8 -1 -16t-2 -16q-1 -8 -3 -17.5l-4 -18.5l-93 -348h-242l105 392q1 4 1 7.5v5.5q-1 3 -2 5.5t-2 4.5q-2 2 -4.5 4t-4.5 3
q-3 1 -6.5 1.5t-6.5 0.5h-105q-2 0 -5 -0.5t-6 -1.5q-4 -1 -7 -3t-5 -3q-2 -2 -4.5 -4t-4.5 -5q-3 -3 -4.5 -6.5t-2.5 -7.5zM502 670q7 0 14 2.5t13 8.5t12 14t11 18h81q-1 -7 -4 -14t-6 -13q-2 -7 -5.5 -14l-6.5 -13t-7 -12.5t-7 -12.5t-7 -12t-9 -11q-4 -5 -9.5 -10
t-10.5 -9q-11 -9 -25 -15l-14.5 -6t-15.5 -4q-8 -2 -17.5 -3t-18.5 -1q-4 0 -9.5 0.5t-9.5 0.5l-10.5 2l-10.5 2t-10.5 2.5t-10.5 3.5q-5 1 -9.5 4t-9.5 4q-4 1 -9.5 3t-9.5 4q-4 1 -8.5 3t-8.5 4q-4 1 -8 2.5t-7 2.5l-6 2t-6 1t-7.5 -1t-7.5 -2q-4 -2 -8.5 -5.5t-7.5 -6.5
q-4 -4 -8 -8.5t-6 -8.5q-3 -4 -6 -8.5t-5 -8.5h-83q2 6 4.5 12.5t4.5 12.5q3 6 7 13t7 13q4 7 8.5 14t9.5 13l10 12.5t11 11.5q5 6 11 12t11 10q6 5 13 10t13 8l14.5 6t13.5 5q8 2 15.5 3.5t14.5 1.5q10 0 20 -1.5t20 -4.5t19.5 -7t18.5 -7q10 -4 19 -8t17 -7t16 -5.5
t16 -2.5z" />
    <glyph glyph-name="ograve" unicode="&#xf2;" horiz-adv-x="723" 
d="M611 526q7 0 14 -0.5t13 -1.5t12.5 -3t11.5 -3q6 -1 10.5 -4t7.5 -6q4 -3 8 -8l7 -9t4.5 -10.5t3.5 -12.5q1 -7 2 -15t0 -17q0 -5 -0.5 -11t-2.5 -12t-3 -13.5t-3 -14.5l-67 -249l-4.5 -15l-4.5 -14l-6 -13.5l-6 -12.5q-3 -7 -7.5 -13.5t-9.5 -12.5q-4 -6 -9 -11t-10 -9
q-4 -4 -9.5 -8t-10.5 -7t-11.5 -6.5t-11.5 -4.5l-14.5 -4t-14.5 -3q-8 -1 -15.5 -1.5t-14.5 -0.5h-411q-7 0 -15 0.5t-15 2.5q-7 1 -14 4t-13 6l-8.5 6.5t-7.5 7.5q-4 4 -7.5 8.5t-6.5 9.5q-1 4 -3 10t-3 12t-1.5 12.5t0.5 14.5v8t1 9q1 4 2 10t3 11l67 254l4 13.5l4 12.5
q1 6 4 12t5 11q4 8 9 16l9 15q5 7 10 12.5l10 10.5l12.5 10t11.5 8l13 6.5t12 4.5q7 1 13.5 3t12.5 3t12.5 1.5t12.5 0.5h418zM438 422h-132q-3 0 -7 -3q-2 -2 -4.5 -4t-3.5 -3q-1 -2 -3 -4.5t-2 -3.5q-1 -2 -2 -5t-2 -4l-69 -259q-1 -3 -1 -6t1 -5l2 -6t2 -4q1 -2 3 -4.5
t4 -3.5q5 -3 10 -3h115q3 0 5.5 0.5t5.5 2.5q3 1 6.5 3t5.5 4q3 1 5.5 4t3.5 5q3 3 4.5 6t1.5 5l70 260q1 2 1 5v5q-1 2 -2.5 4.5t-2.5 4.5l-3 3t-4 3t-4.5 2t-3.5 1zM287 720h171l120 -164h-159z" />
    <glyph glyph-name="oacute" unicode="&#xf3;" horiz-adv-x="723" 
d="M438 422h-132q-3 0 -7 -3q-2 -2 -4.5 -4t-3.5 -3q-1 -2 -3 -4.5t-2 -3.5q-1 -2 -2 -5t-2 -4l-69 -259q-1 -3 -1 -6t1 -5l2 -6t2 -4q1 -2 3 -4.5t4 -3.5q5 -3 10 -3h115q3 0 6 0.5t5 2.5q4 1 7 3t5 4q3 1 5.5 4t3.5 5q3 3 4.5 6t1.5 5l70 260q1 2 1 5v5q-1 2 -2.5 4.5
t-2.5 4.5l-3 3t-4 3t-4.5 2t-3.5 1zM611 526q7 0 14 -0.5t13 -1.5t12.5 -3t11.5 -3q6 -1 10.5 -4t7.5 -6q4 -3 8 -8l7 -9t4.5 -10.5t3.5 -12.5q1 -7 2 -15t0 -17q0 -5 -0.5 -11t-2.5 -12q-1 -6 -2.5 -13.5t-3.5 -14.5l-67 -249l-4.5 -15l-4.5 -14q-2 -7 -5.5 -13.5
l-6.5 -12.5q-3 -7 -7.5 -13.5t-9.5 -12.5q-4 -6 -9 -11t-10 -9q-4 -4 -9.5 -8t-10.5 -7t-11.5 -6.5t-11.5 -4.5l-14.5 -4t-14.5 -3q-8 -1 -15.5 -1.5t-13.5 -0.5h-412q-7 0 -15 0.5t-15 2.5q-7 1 -14 4t-13 6q-3 3 -8 6.5t-8 7.5q-4 4 -7.5 8.5t-5.5 9.5q-2 4 -4 10t-3 12
t-1.5 12.5t0.5 14.5v8t1 9q1 4 2 10t3 11l67 254l4 13.5l4 12.5t4.5 12l4.5 11q4 8 9 16l9 15q5 7 10 12.5l10 10.5l12.5 10t11.5 8l13 6.5t12 4.5q7 1 13.5 3t12.5 3t12.5 1.5t12.5 0.5h418zM622 720l-219 -164h-160l209 164h170z" />
    <glyph glyph-name="ocircumflex" unicode="&#xf4;" horiz-adv-x="723" 
d="M612 526q6 0 13 -0.5t13 -1.5q7 -1 13 -3t12 -3q5 -1 9.5 -4t8.5 -6t7.5 -8l6.5 -9t5 -10.5t3 -12.5q1 -7 2 -15t1 -17q-1 -5 -1.5 -11t-2.5 -12q-1 -6 -2.5 -13.5t-3.5 -14.5l-67 -249l-4.5 -15l-4.5 -14q-2 -7 -5 -13.5t-7 -12.5q-3 -7 -7.5 -13.5t-9.5 -12.5
q-4 -6 -9 -11t-10 -9q-4 -4 -9.5 -8t-10.5 -7t-11.5 -6.5t-11.5 -4.5q-6 -2 -14 -4t-15 -3t-15 -1.5t-14 -0.5h-411q-8 0 -15.5 0.5t-15.5 2.5q-7 1 -14 4t-13 6q-3 3 -7.5 6.5t-8.5 7.5t-7.5 8.5t-5.5 9.5q-2 4 -4 10t-2 12q-2 6 -2.5 12.5t0.5 14.5v8t1 9q2 4 3 10t2 11
l67 254l4 13.5l4 12.5t4.5 12l4.5 11q4 8 9 16t10 15q4 7 9.5 12.5l10.5 10.5l12 10t12 8l12.5 6.5t12.5 4.5t12.5 3t12.5 3t13 1.5t13 0.5h418zM438 422h-132q-3 0 -7 -3q-2 -2 -4.5 -4t-3.5 -3q-1 -2 -3 -4.5t-2 -3.5q-1 -2 -2 -5t-1 -4l-70 -259q-1 -3 -1 -6t1 -5l2 -6
t2 -4q1 -2 3.5 -4.5l3.5 -3.5q6 -3 10 -3h116q2 0 5 0.5t5 2.5q4 1 7 3t5 4q3 1 5.5 4t4.5 5q2 3 3.5 6l2.5 5l69 260q1 2 1 5v5q-1 2 -2 4.5t-3 4.5l-3 3t-4 3t-4.5 2t-3.5 1zM357 556h-150l165 162h175l79 -162h-159l-29 82z" />
    <glyph glyph-name="otilde" unicode="&#xf5;" horiz-adv-x="723" 
d="M439 422h-132q-3 0 -7 -3q-2 -2 -4.5 -4t-3.5 -3q-1 -2 -3 -4.5t-2 -3.5q-1 -2 -2 -5t-2 -4l-69 -259q-1 -3 -1 -6t1 -5l2 -6t2 -4q1 -2 3 -4.5t4 -3.5q6 -3 10 -3h115q3 0 6 0.5t5 2.5q4 1 7 3t5 4q3 1 5.5 4t3.5 5q3 3 4.5 6l2.5 5l69 260q1 2 1 5v5q-1 2 -2.5 4.5
t-2.5 4.5l-3 3t-4 3t-4.5 2t-3.5 1zM612 526q7 0 14 -0.5t13 -1.5t12.5 -3t11.5 -3q6 -1 10.5 -4t7.5 -6q4 -3 8 -8l7 -9t4.5 -10.5t3.5 -12.5q1 -7 2 -15t0 -17q0 -5 -0.5 -11t-2.5 -12q-1 -6 -2.5 -13.5t-3.5 -14.5l-67 -249l-4.5 -15l-4.5 -14q-2 -7 -5.5 -13.5
l-6.5 -12.5q-3 -7 -7.5 -13.5t-9.5 -12.5q-4 -6 -9 -11t-10 -9q-4 -4 -9.5 -8t-10.5 -7t-11.5 -6.5t-11.5 -4.5l-14.5 -4t-14.5 -3q-8 -1 -15.5 -1.5t-13.5 -0.5h-411q-8 0 -16 0.5t-15 2.5q-7 1 -14 4t-13 6q-3 3 -8 6.5t-8 7.5q-4 4 -7.5 8.5t-5.5 9.5q-2 4 -4 10t-2 12
q-2 6 -2.5 12.5t0.5 14.5v8t1 9q1 4 2 10t3 11l67 254l4 13.5l4 12.5t4.5 12l4.5 11q4 8 9 16l9 15q5 7 10 12.5t11 10.5q5 5 11.5 10t11.5 8l13 6.5t12 4.5q7 1 13.5 3t12.5 3t12.5 1.5t12.5 0.5h418zM528 670q7 0 13.5 2.5t12.5 8.5t12.5 14t11.5 18h81q-2 -7 -5 -14
t-6 -13q-2 -7 -5.5 -14t-5.5 -13q-3 -6 -7 -12.5t-7 -12.5t-7.5 -12t-9.5 -11q-4 -5 -9 -10t-11 -9q-12 -9 -25 -15l-14.5 -6t-15.5 -4q-7 -2 -16.5 -3t-18.5 -1q-4 0 -9.5 0.5t-10.5 0.5l-10.5 2l-10.5 2t-10.5 2.5t-10.5 3.5q-5 1 -9.5 4t-9.5 4q-4 1 -9.5 3t-9.5 4
q-4 1 -8.5 3t-7.5 4q-4 1 -8 2.5t-7 2.5t-6.5 2t-6.5 1t-7.5 -1t-8.5 -2q-3 -2 -7.5 -5.5t-7.5 -6.5q-4 -4 -7.5 -8.5t-5.5 -8.5q-3 -4 -6 -8.5t-5 -8.5h-84q2 6 5 12.5t5 12.5q3 6 7 13t7 13q3 7 7.5 14t9.5 13l10 12.5t10 11.5l12.5 12t11.5 10q6 5 13 10t13 8l14.5 6
t13.5 5q7 2 14.5 3.5t14.5 1.5q22 0 41 -6q10 -3 19.5 -7t18.5 -7q10 -4 19 -8t17 -7t16 -5.5t16 -2.5z" />
    <glyph glyph-name="odieresis" unicode="&#xf6;" horiz-adv-x="723" 
d="M614 526q7 0 14 -0.5t12 -1.5q7 -1 13 -3t12 -3q5 -1 9.5 -4t8.5 -6t7.5 -8t7.5 -9q2 -4 4 -10.5t3 -12.5q2 -7 3 -15t0 -17q-1 -5 -1.5 -11t-1.5 -12q-2 -6 -3.5 -13.5t-3.5 -14.5l-67 -249l-4.5 -15t-3.5 -14l-6 -13.5l-6 -12.5q-4 -7 -8.5 -13.5l-8.5 -12.5
q-5 -6 -10 -11t-10 -9q-4 -4 -9 -8t-11 -7q-5 -3 -11.5 -6.5t-11.5 -4.5q-6 -2 -14 -4t-15 -3t-14.5 -1.5t-14.5 -0.5h-411q-8 0 -15.5 0.5t-14.5 2.5q-7 1 -14.5 4t-13.5 6q-4 3 -8 6.5t-8 7.5l-6.5 8.5t-6.5 9.5q-2 4 -3.5 10t-2.5 12t-1.5 12.5t-0.5 14.5q0 4 0.5 8
t1.5 9q1 4 2 10t2 11l67 254q2 7 4.5 13.5t3.5 12.5q2 6 4.5 12t5.5 11q3 8 8 16t10 15t10 12.5l10 10.5l12 10t12 8l12.5 6.5t12.5 4.5t12.5 3t12.5 3q7 1 13.5 1.5t12.5 0.5h418zM440 422h-132q-3 0 -7 -3l-4 -4t-4 -3q-1 -2 -2.5 -4.5t-2.5 -3.5q0 -2 -1.5 -5t-1.5 -4
l-70 -259v-6v-5q1 -3 2.5 -6t2.5 -4q1 -2 3 -4.5t4 -3.5q5 -3 10 -3h115q2 0 5 0.5t6 2.5q3 1 6.5 3t5.5 4q2 1 5 4t4 5q2 3 3.5 6l2.5 5l70 260v5v5q-1 2 -2 4.5t-2 4.5q-1 1 -3.5 3t-4.5 3l-4 2t-4 1zM609 555h-175l40 146h175zM376 555h-177l39 146h177z" />
    <glyph glyph-name="divide" unicode="&#xf7;" horiz-adv-x="597" 
d="M55 319h67.5h65.5h66h65h65.5h64.5h67h67l-28 -105h-132h-132h-132h-132zM181 139h180l-37 -139h-180zM286 530h180l-37 -139h-180z" />
    <glyph glyph-name="oslash" unicode="&#xf8;" horiz-adv-x="741" 
d="M464 422h-132q-2 0 -6 -3q-2 -2 -4.5 -4t-3.5 -3q-1 -2 -3 -4.5t-2 -3.5q-1 -2 -2 -5t-2 -4l-47 -178l211 202q-1 1 -3.5 2t-5.5 1zM262 97h131q2 0 4 0.5t4 1.5t4 3t3 4q1 1 3 3.5t2 4.5t1.5 4.5t1.5 4.5l48 178l-211 -202q2 -1 4.5 -1.5t4.5 -0.5zM696 638h111
l-124 -119h1.5h1.5q1 0 2 -0.5l1 -0.5q6 -1 10.5 -4t7.5 -6q4 -3 8 -8l7 -9q2 -4 4 -10.5l4 -12.5q1 -7 2 -15t0 -17q-1 -5 -1 -11t-2 -12t-3 -13.5t-3 -14.5l-67 -249l-4.5 -15l-4.5 -14l-6 -13.5l-6 -12.5q-3 -7 -7.5 -13.5t-9.5 -12.5l-9.5 -11t-9.5 -9q-4 -4 -9.5 -8
t-10.5 -7q-6 -3 -12 -6.5t-11 -4.5l-14.5 -4t-14.5 -3q-8 -1 -15.5 -1.5t-14.5 -0.5h-344l-119 -117h-114l126 122q-2 1 -4.5 2t-4.5 2t-4.5 2t-3.5 2q-5 2 -9.5 5.5t-8.5 7.5l-6.5 9t-5.5 10q-1 4 -3 10t-3 12t-1.5 12.5t-0.5 14.5q1 4 1 8t1 9q1 4 2 10t3 11l67 254
l4 13.5l4 12.5q1 6 4 12t5 11q4 8 8.5 16t9.5 15t10 12.5l10 10.5l12.5 10t11.5 8l12.5 6.5t12.5 4.5t12.5 3t13.5 3q6 1 12.5 1.5t12.5 0.5h363z" />
    <glyph glyph-name="ugrave" unicode="&#xf9;" horiz-adv-x="732" 
d="M330 528l-106 -396q-1 -2 -1 -5t1 -5l2 -6t2 -4q2 -2 4.5 -3.5t4.5 -2.5q3 -2 5.5 -2.5t4.5 -0.5h109q2 0 5 0.5t6 1.5t6 2.5t5 3.5q2 1 4.5 3.5l4.5 4.5t3.5 5l2.5 5l107 398h243l-142 -527h-510q-9 0 -17 0.5t-15 2.5q-7 1 -13.5 4t-11.5 6t-10.5 7t-9.5 9
q-4 4 -7.5 10l-6.5 11l-4.5 11.5t-4.5 12.5q-2 7 -3.5 14t-1.5 14v14t1 14q1 15 5 29l98 369h240zM299 720h170l120 -164h-159z" />
    <glyph glyph-name="uacute" unicode="&#xfa;" horiz-adv-x="732" 
d="M330 528l-106 -396q-1 -2 -1 -5t1 -5l2 -6t2 -4q2 -2 4.5 -3.5t4.5 -2.5q3 -2 5.5 -2.5t4.5 -0.5h109q2 0 5 0.5t6 1.5t6 2.5t5 3.5q2 1 4.5 3.5l4.5 4.5t3.5 5l2.5 5l107 398h243l-142 -527h-510q-9 0 -17 0.5t-15 2.5q-7 1 -13.5 4t-11.5 6t-10.5 7t-9.5 9
q-4 4 -7.5 10l-6.5 11l-4.5 11.5t-4.5 12.5q-2 7 -3.5 14t-1.5 14v14t1 14q1 15 5 29l98 369h240zM633 720l-219 -164h-159l208 164h170z" />
    <glyph glyph-name="ucircumflex" unicode="&#xfb;" horiz-adv-x="732" 
d="M330 528l-106 -396v-5v-5q1 -3 2.5 -6t2.5 -4q2 -2 4 -3.5t4 -2.5q3 -2 5.5 -2.5t4.5 -0.5h109q3 0 5.5 0.5t5.5 1.5t6.5 2.5t4.5 3.5q3 1 5.5 3.5l4.5 4.5t3.5 5t1.5 5l107 398h243l-141 -527h-511q-8 0 -16 0.5t-15 2.5q-7 1 -14 4t-12 6t-10 7t-9 9q-5 4 -8.5 10
l-6.5 11l-4.5 11.5t-3.5 12.5q-2 7 -3.5 14t-2.5 14q0 7 0.5 14t1.5 14q1 15 4 29l98 369h240zM363 556h-150l164 162h176l78 -162h-158l-29 82z" />
    <glyph glyph-name="udieresis" unicode="&#xfc;" horiz-adv-x="732" 
d="M332 528l-106 -396v-5t1 -5l2 -6t2 -4q2 -2 4 -3.5t4 -2.5q3 -2 5.5 -2.5t5.5 -0.5h109q2 0 5 0.5t5 1.5q3 1 6.5 2.5t5.5 3.5q2 1 4.5 3.5l4.5 4.5t3.5 5l2.5 5l106 398h243l-141 -527h-511q-8 0 -16 0.5t-15 2.5q-7 1 -13.5 4t-11.5 6q-6 3 -11 7t-9 9q-4 4 -7.5 10
t-7.5 11l-4.5 11.5t-3.5 12.5q-2 7 -3.5 14t-2.5 14q1 7 1 14t1 14q1 15 5 29l97 369h240zM633 555h-175l39 146h175zM398 555h-176l39 146h176z" />
    <glyph glyph-name="yacute" unicode="&#xfd;" horiz-adv-x="721" 
d="M358 528l-105 -392v-5v-5q0 -3 1 -6t2 -4q1 -3 3 -5.5t5 -3.5q5 -3 10 -3h109q2 0 5 0.5t4 1.5q2 1 4.5 3.5l4.5 4.5q2 1 4 4t3 5q1 3 2.5 5.5t2.5 4.5l105 392h239l-160 -597q-1 -4 -3 -10t-4 -11t-5 -11t-6 -11t-7 -10.5l-8 -10.5l-9 -9t-9 -10q-4 -4 -9.5 -8.5
t-10.5 -7.5q-6 -4 -12 -7.5t-12 -6.5q-6 -2 -12.5 -4.5t-12.5 -3.5t-13.5 -2t-15.5 -1h-495l28 102h334q4 0 8.5 0.5t7.5 1.5q3 2 7 4t7 3l4.5 4.5t3.5 4.5q2 2 4 5t2 6l18 65h-261q-9 0 -17.5 1t-15.5 3q-7 1 -14 4.5t-13 7.5t-11 9t-9 10t-8 11.5t-7 13.5q-2 4 -4 10
t-2 12q-1 6 -2.5 12.5t-0.5 12.5v13t1 14t2.5 14t3.5 15l97 365h242zM672 720l-220 -164h-159l209 164h170z" />
    <glyph glyph-name="thorn" unicode="&#xfe;" horiz-adv-x="725" 
d="M403 718l-50 -188h266q6 0 12.5 -1l12.5 -2q6 -2 12 -4.5t11 -5.5q11 -6 20 -15q5 -5 9.5 -10t7.5 -10l6.5 -10.5t5.5 -11.5q3 -6 5.5 -12.5t3.5 -12.5q2 -6 2.5 -13t-0.5 -13q0 -6 -1 -13t-2 -13l-64 -239l-4.5 -13t-6.5 -14q-3 -8 -8.5 -15l-10.5 -14q-3 -5 -8 -10.5
t-9 -9.5q-4 -5 -9.5 -10.5l-9.5 -9.5l-12.5 -10t-12.5 -9q-7 -5 -14 -9t-13 -7t-12.5 -5.5t-12.5 -3.5q-6 -2 -13 -3t-13 -1h-280l-52 -194h-239l243 912h240zM357 423q-3 0 -6.5 -0.5t-5.5 -1.5q-4 -2 -7 -4t-5 -3q-3 -2 -5.5 -4.5t-4.5 -5.5q-5 -6 -6 -12l-69 -257
q-1 -3 -1 -6.5v-5.5l2 -6t3 -4q1 -2 3.5 -3.5t4.5 -2.5q2 -2 5.5 -2.5t6.5 -0.5h103q3 0 6 0.5t6 1.5q4 1 7 3t5 4q2 1 4.5 4t4.5 5q2 3 3.5 6.5t2.5 6.5l69 257q1 3 1 6v5l-2 6t-2 5q-1 1 -3.5 3t-5.5 3q-5 3 -11 3h-103z" />
    <glyph glyph-name="ydieresis" unicode="&#xff;" horiz-adv-x="721" 
d="M361 528l-105 -392q-1 -2 -1 -5v-5q0 -3 1 -6t2 -4q1 -3 3.5 -5.5t4.5 -3.5q5 -3 10 -3h109q3 0 5.5 0.5t4.5 1.5t4.5 3.5l4.5 4.5q2 1 4 4t2 5q2 3 3.5 5.5t1.5 4.5l105 392h240l-160 -597q-1 -4 -3.5 -10l-4.5 -11t-5 -11t-6 -11q-2 -5 -6.5 -10.5t-7.5 -10.5l-9 -9
t-9 -10q-5 -4 -10 -8.5t-11 -7.5q-5 -4 -11 -7.5t-12 -6.5q-6 -2 -12.5 -4.5t-13.5 -3.5q-6 -1 -13.5 -2t-14.5 -1h-495l27 102h335q4 0 8 0.5t8 1.5q3 2 7 4l6 3q2 2 5 4.5t4 4.5q2 2 3.5 5t2.5 6l17 65h-261q-9 0 -17 1t-15 3q-8 1 -14.5 4.5t-12.5 7.5t-11 9t-9 10
q-5 5 -9 11.5t-6 13.5q-2 4 -4 10t-3 12l-2 12.5t-1 12.5v13t1 14t2.5 14t3.5 15l98 365h242zM659 555h-175l39 146h175zM424 555h-176l39 146h176z" />
    <glyph glyph-name="currency" unicode="&#xa4;" horiz-adv-x="637" 
d="M8 232h101q13 0 24 -4t20 -10.5t16.5 -16t12.5 -20.5q8 -17 11 -31.5t2.5 -29t-4 -28.5t-9.5 -30q-8 -26 -27.5 -41t-46.5 -16h-25h-25h-24.5h-25.5v227zM39 206v-175q16 0 31.5 -2t29 -1t25 6.5t20.5 20.5q10 15 16 34t5.5 38.5t-8 37.5t-22.5 29q-11 8 -22.5 10.5
t-23.5 3t-24.5 -0.5t-26.5 -1zM394 163l-5 15.5t-5.5 11.5t-9.5 8t-18 7q-9 3 -18 5t-18.5 1t-18 -4.5t-17.5 -10.5q-8 -5 -14 -13t-10.5 -18t-7.5 -20.5t-4 -22t0 -22.5t4 -21.5t8.5 -19.5t13.5 -15q11 -11 24.5 -16.5t28 -5t28 6t24.5 16.5q6 6 9.5 12t6 12t3 13.5
t0.5 16.5h-70v26h98v-120h-19l-8 29q-4 -5 -9 -10t-10 -9t-10.5 -7t-13.5 -4q-8 -2 -15 -3t-14 -1t-14.5 0.5t-15.5 1.5q-19 3 -33 11.5t-25 24.5q-10 18 -15 37.5t-5 40.5q0 24 6.5 44.5t21.5 39.5q10 12 19 19t19.5 11t22 5.5t26.5 1.5q13 -1 25 -3.5t22 -8t18.5 -14.5
t14.5 -21q3 -6 5.5 -13.5t2.5 -13.5h-14h-14zM491 232v-200h116v-27h-146v227h30z" />
  </font>
</defs>
</svg>
